<svg width="1987" height="970" viewBox="0 0 1987 970" fill="none" xmlns="http://www.w3.org/2000/svg">
<path d="M750.1 706.615L723.7 739.715L718 783.515C718 783.515 693.5 774.215 691.6 786.115C689.8 798.115 627.6 852.515 616.3 851.115C604.9 849.815 584.2 879.015 584.2 879.015L559.7 969.215L520.1 944.015V771.515C416.6 730.215 446.1 668.415 460.1 647.515C450.8 643.515 404.8 623.115 401.4 612.415C397.6 600.515 318.5 593.815 318.5 593.815L250.6 520.915L258.2 559.315C258.2 559.315 211.1 490.415 203.5 485.115C196 479.815 212.9 413.515 212.9 413.515C212.9 413.515 226.1 417.415 228 413.515C229.9 409.515 156.4 284.815 156.4 284.815L0 324.615L54.6 286.115L30.1 259.615L90.4 235.715L92.3 226.415L60.3 229.115L67.8 209.215L99.9 214.515L101.7 182.715L120.6 178.715L165.8 161.515L245 194.615L260.1 213.215L320.4 206.615L365.6 230.415L401.4 250.315C401.4 250.315 471.1 262.315 473 257.015C474.9 251.615 493.8 221.115 493.8 221.115L506.9 270.215L531.4 257.015L539 270.215L439.1 320.615V348.515L484.3 373.715L486.2 402.815L508.8 396.215L506.9 373.715L531.4 363.115C531.4 363.115 520.1 344.515 525.8 337.915C531.4 331.215 520.1 319.315 533.3 319.315C546.5 319.315 578.6 329.915 578.6 329.915L574.8 353.815L595.5 355.115L608.7 340.515L640.8 401.515L650.2 432.015L623.8 425.415L625.7 406.815L569.1 404.215L563.5 417.415L582.3 421.415L593.6 440.015L537.1 449.315C537.1 449.315 499.4 470.515 497.5 481.115C495.6 491.715 495.6 502.315 495.6 502.315L457.9 514.215V546.115L448.5 544.815L439.1 523.515C439.1 523.515 420.3 508.915 414.6 512.915C408.9 516.915 380.7 514.215 371.2 520.915C361.8 527.515 316.6 580.615 363.7 585.915C401.4 590.115 406.5 579.115 407.1 574.515V599.115L429.7 600.515L428.5 618.215L465.5 640.215L508.8 616.415L510.7 631.015L531.4 623.015L616.3 653.515L646.4 677.415L750.1 706.615Z" fill="#20689B"/>
<path d="M407.1 572.615V574.515C407.2 573.415 407.1 572.615 407.1 572.615Z" fill="#20689B"/>
<path d="M585.2 255.015C581.4 233.715 545.6 239.015 545.6 239.015L515.4 231.715L554.1 200.615C554.1 200.615 582.3 194.615 576.7 209.915C571 225.115 600.2 218.515 598.3 222.515C596.5 226.415 626.6 248.315 626.6 248.315L619.1 261.615L648.3 294.715L629.4 293.415C629.4 293.415 599.3 320.615 599.3 322.615C599.3 324.615 555 292.115 555 292.115C586.1 287.515 588.9 276.215 585.2 255.015V255.015Z" fill="#20689B"/>
<path d="M385.4 234.415L369.4 205.915C369.4 205.915 380.7 197.315 380.7 195.315C380.7 193.315 370.3 190.615 370.3 190.615L352.4 195.915L374.1 164.815C374.1 164.815 395.8 168.115 405.2 173.415C414.6 178.715 389.2 183.315 398.6 188.615C408 193.915 422.1 187.315 425.9 192.615C429.7 197.915 440 203.915 442.9 199.315C445.7 194.615 448.5 185.315 453.2 189.315C457.9 193.315 453.2 228.415 453.2 228.415L385.4 234.415Z" fill="#20689B"/>
<path d="M501.3 301.415L516.4 289.415L529.6 302.715L515.4 306.015L501.3 301.415Z" fill="#20689B"/>
<path d="M474 215.815L471.1 201.215L481.5 200.615L486.2 188.015L500.3 192.015L491.9 207.215L504.1 208.515L474 215.815Z" fill="#20689B"/>
<path d="M507.9 205.215L513.5 192.615L534.3 195.315L507.9 205.215Z" fill="#20689B"/>
<path d="M432.5 174.715L418.4 156.215L448.5 146.215L474 150.215L481.5 165.415L432.5 174.715Z" fill="#20689B"/>
<path d="M535.2 156.815L554.1 161.515L568.2 182.015L593.6 183.315L588.9 192.015L557.8 188.015L539 170.115L535.2 156.815Z" fill="#20689B"/>
<path d="M636 122.315C636 122.315 609.7 95.8147 618.1 93.2147C704.3 66.2147 728.4 111.115 728.4 111.115L673.7 137.615H644.5L652.1 145.515L603.1 176.715L569.1 166.815L636 122.315Z" fill="#20689B"/>
<path d="M572 116.415C572 116.415 593.6 99.8147 601.2 98.5147C608.7 97.1147 606.8 133.615 606.8 133.615L568.2 143.515L572 116.415Z" fill="#20689B"/>
<path d="M659.6 186.715L657.7 153.515L688.8 152.215L747.2 115.715L786.8 119.015C786.8 119.015 825.4 96.5147 842.4 97.8147C859.4 99.1147 898.9 127.615 898.9 132.915C898.9 138.215 929.1 136.915 929.1 136.915L896.1 158.815L887.6 199.915C887.6 199.915 866.9 230.415 871.6 239.015C876.3 247.715 849.9 225.115 849.9 225.115L849 238.415L866.9 255.615L855.6 258.915L837.7 247.015L831.1 262.915L858.4 266.215L768.9 298.715L728.4 347.815C728.4 347.815 673.7 313.315 692.6 294.115C695.6 291.015 708.6 276.815 708.6 276.815L699.2 198.615L659.6 186.715Z" fill="#20689B"/>
<path d="M915.4 485.415C915.4 483.415 925.3 457.615 925.3 457.615H965.6L964.9 437.215L948.7 428.715L967 425.715L1002.4 408.315L1007.3 397.415H1024.3L1023.6 377.515L1031.3 372.015L1039.1 391.915H1060.3C1060.3 391.915 1087.9 390.415 1089.3 386.915C1090.7 383.415 1116.2 357.615 1116.2 357.615C1116.2 357.615 1109.1 323.315 1087.2 325.815C1065.3 328.215 1070.2 340.215 1070.2 340.215C1070.2 340.215 1082.2 360.115 1070.9 373.015C1059.6 385.915 1053.2 381.515 1053.2 381.515C1053.2 381.515 1037 370.015 1037 359.615C1037 349.115 1029.2 351.115 1029.2 351.115C1029.2 351.115 1018.6 365.515 1016.5 365.515C1014.4 365.515 1000.2 366.015 1003.8 347.115C1007.3 328.215 1045.5 317.815 1053.2 290.915C1061 264.115 1090.7 258.115 1107.7 260.615C1124.6 263.115 1197.4 280.515 1194.6 288.515C1191.8 296.415 1181.2 299.915 1181.2 299.915C1181.2 299.915 1153.6 291.415 1150.1 293.915C1146.5 296.415 1169.9 314.815 1169.9 314.815L1254 277.015L1295.7 276.515L1304.1 262.615H1331.7L1309.1 242.215L1328.9 224.815L1343.7 236.715L1369.2 221.815L1419.3 245.715L1370.6 208.915L1388.2 205.915L1392.5 183.015L1432.8 166.615L1442.7 137.315L1470.9 149.215L1485.8 144.215L1509.1 156.615L1499.9 189.515C1499.9 189.515 1545.1 173.115 1586.8 177.515C1628.5 182.015 1633.5 189.015 1633.5 189.015L1678.7 164.115L1861 165.115L1854.7 153.215H1979.8L1986.1 177.515C1986.1 177.515 1957.2 178.515 1955 183.015C1952.9 187.515 1963.5 190.015 1960 196.915C1956.5 203.915 1943 206.415 1943 206.415C1943 206.415 1974.8 220.315 1983.3 224.815C1991.8 229.315 1967.1 237.215 1961.4 245.715C1955.8 254.115 1954.3 258.115 1957.2 263.615C1960 269.015 1956.5 257.115 1945.1 262.115C1933.8 267.115 1938.1 283.515 1938.8 305.415C1939.5 327.215 1929.6 356.615 1929.6 356.615L1898.5 316.315L1909.8 255.115C1909.8 255.115 1864.6 248.715 1866 264.115C1867.4 279.515 1867.4 289.915 1867.4 289.915C1867.4 289.915 1821.5 280.515 1813.7 291.915C1805.9 303.415 1769.2 336.715 1781.2 344.215C1793.2 351.615 1825 346.115 1830 357.615C1834.9 369.015 1830 434.215 1821.5 435.215C1813 436.215 1789.7 457.615 1789.7 457.615C1782.6 455.115 1810.2 478.415 1805.9 488.415C1801.7 498.315 1794.6 502.815 1791.1 492.415C1787.5 481.915 1774.1 459.015 1767.1 460.515C1760 462.015 1731.7 468.015 1731.7 468.015L1750.1 479.915L1748.7 492.415L1758.6 508.315L1749.4 547.615C1749.4 547.615 1711.2 572.915 1680.1 569.015C1649 565.015 1678.7 588.415 1678.7 588.415C1678.7 588.415 1702.7 594.315 1700.6 608.215C1698.5 622.215 1683 626.715 1670.9 623.715C1658.9 620.715 1642.7 604.315 1642.7 611.715C1642.7 619.215 1642.7 635.115 1654 642.615C1665.3 650.015 1683.7 668.915 1672.3 667.915C1661 666.915 1632.1 644.615 1632.8 640.115C1633.5 635.615 1625 620.715 1627.8 616.715C1630.7 612.715 1581.2 575.915 1573.4 570.515C1565.6 565.015 1510.5 599.315 1510.5 599.315C1510.5 599.315 1514.7 616.715 1506.3 622.715C1497.8 628.615 1478 630.615 1478.7 624.215C1479.4 617.715 1443.4 570.915 1443.4 570.915L1404.5 551.115L1364.2 549.615L1303.4 529.215C1303.4 529.215 1279.4 526.215 1294.2 540.115C1309.1 554.015 1316.2 559.515 1316.2 559.515L1338.8 554.015L1364.9 566.015C1364.9 566.015 1324.6 608.215 1279.4 611.215L1207.3 542.615C1207.3 542.615 1198.8 534.115 1193.2 543.615C1187.5 553.015 1275.9 628.615 1275.9 628.615L1317.6 621.215C1317.6 621.215 1298.5 666.915 1237 699.315L1242.7 747.015L1208.7 770.415L1204.5 786.815L1183.3 797.715L1179 815.215C1179 815.215 1147.2 837.015 1143 838.515C1138.8 840.015 1097.8 844.015 1097.8 844.015C1097.8 844.015 1072.3 796.715 1073 783.815C1073.7 770.915 1049 749.515 1049 749.515C1049 749.515 1057.5 738.115 1061.7 737.115C1066 736.115 1034.9 654.515 1034.9 654.515L1001 644.615L933.1 651.015L869.5 603.815C869.5 603.815 870.9 567.515 878 562.515C885 557.515 909.8 532.715 916.8 531.215C923.9 529.715 940.9 506.315 940.9 506.315C940.9 506.315 963.5 496.315 972.7 496.815C981.9 497.315 1036.3 496.315 1036.3 496.315L1044.8 509.315L1101.3 527.215L1111.9 514.715L1196 521.215L1203.1 497.815L1160 494.915C1160 494.915 1140.9 485.415 1142.3 479.915C1143.7 474.515 1161.4 469.515 1165.6 469.015C1169.9 468.515 1233.5 469.015 1233.5 469.015L1220.7 450.615L1208.7 433.715L1183.3 436.715L1194.6 447.115L1179.8 448.615L1175.5 438.615H1163.5C1163.5 438.615 1145.8 456.115 1145.8 459.015C1145.8 462.015 1152.2 467.015 1152.2 467.015L1144.4 471.015L1133.1 470.515L1131 462.515C1131 462.515 1107.7 478.415 1117.6 484.415C1127.5 490.415 1115.4 490.915 1115.4 490.915C1115.4 490.915 1107.7 493.915 1102 471.015C1096.4 448.115 1067.4 445.115 1067.4 445.115C1067.4 445.115 1049 443.615 1051.1 452.615C1053.2 461.515 1088.6 474.015 1088.6 474.015L1078.7 483.415L1068.1 475.515C1068.1 475.515 1034.2 458.015 1032 453.115C1029.9 448.115 1011.6 459.515 1007.3 458.515C1003.1 457.615 984.7 469.015 985.4 471.515C986.1 474.015 973.4 490.415 973.4 490.415L946.5 497.815L940.9 490.415L923.9 493.415L915.4 485.415Z" fill="#20689B"/>
<path d="M946.5 417.815C946.8 416.715 951.7 401.515 951.7 401.515L953.1 388.315L942.8 381.315L934.3 372.715L951.7 364.415L962.6 366.715L958.8 375.015L961.1 381.315C961.1 381.315 977.2 394.615 978.6 396.215C980 397.915 984.7 408.815 984.7 408.815C984.7 408.815 944.6 424.715 946.5 417.815V417.815Z" fill="#20689B"/>
<path d="M919.7 403.515C919.7 403.515 917.8 389.615 922 389.215C926.3 388.915 931.9 385.615 931.9 385.615L939 386.315L942.8 402.815C942.8 402.815 923.4 408.515 919.7 403.515V403.515Z" fill="#20689B"/>
<path d="M1270.2 792.115L1266.5 753.615C1266.5 753.615 1298.5 741.015 1301.3 737.115C1304.1 733.115 1308.8 760.915 1301.3 768.915C1293.8 776.915 1270.2 792.115 1270.2 792.115Z" fill="#20689B"/>
<path d="M1722.5 857.815C1718.8 857.515 1723.5 781.515 1723.5 781.515C1723.5 781.515 1752.7 778.815 1767.8 768.915C1782.8 758.915 1859.2 731.815 1877.1 737.715V751.015L1904.4 763.615L1920.4 734.415C1920.4 734.415 1977.9 794.115 1977 810.015C1976 825.915 1943 881.015 1922.3 893.615C1901.6 906.215 1871.4 883.015 1871.4 883.015L1870.5 849.815L1855.4 862.415L1829 837.215C1829 837.215 1756.5 860.415 1722.5 857.815V857.815Z" fill="#20689B"/>
<path d="M1670.7 679.415C1670.7 679.415 1683 706.615 1676.4 705.915C1669.8 705.215 1611.3 650.215 1611.3 650.215L1670.7 679.415Z" fill="#20689B"/>
<path d="M1751.7 644.215L1759.3 675.415C1759.3 675.415 1741.4 692.015 1732 692.015C1722.5 692.015 1703.7 669.415 1703.7 669.415C1699 667.415 1751.7 644.215 1751.7 644.215Z" fill="#20689B"/>
<path d="M1871.4 676.115L1873.3 688.015C1873.3 688.015 1893.7 691.015 1909.1 682.715C1925.1 674.115 1976 727.815 1976 727.815L1938.3 710.515L1922.3 719.215L1888.4 697.915L1869.5 698.615C1869.5 698.615 1850.7 681.415 1850.7 679.415L1871.4 676.115Z" fill="#20689B"/>
<path d="M1817.7 499.015C1817.7 499.015 1832.8 478.415 1845 475.115C1857.3 471.815 1873.3 473.815 1869.5 465.815C1865.8 457.915 1863.9 439.315 1863.9 439.315L1877.1 446.615L1879.9 484.415L1825.2 508.915L1817.7 499.015Z" fill="#20689B"/>
<path d="M1942.5 828C1942.5 832.7 1936.8 836.4 1929.6 836.4C1922.5 836.4 1916.8 832.7 1916.8 828C1916.8 823.3 1922.5 819.5 1929.6 819.5C1936.8 819.5 1942.5 823.3 1942.5 828Z" fill="#FFC947"/>
<path fill-rule="evenodd" clip-rule="evenodd" d="M1929.6 844C1916.6 844 1906 836.8 1906 828C1906 819.2 1916.6 812 1929.6 812C1942.7 812 1953.3 819.2 1953.3 828C1953.3 836.8 1942.7 844 1929.6 844ZM1929.6 814.5C1918 814.5 1908.4 820.5 1908.4 828C1908.4 835.4 1918 841.5 1929.6 841.5C1941.3 841.5 1950.9 835.4 1950.9 828C1950.9 820.5 1941.3 814.5 1929.6 814.5Z" fill="#FFC947"/>
<path d="M1715.5 424C1715.5 428.7 1709.8 432.4 1702.6 432.4C1695.5 432.4 1689.8 428.7 1689.8 424C1689.8 419.3 1695.5 415.5 1702.6 415.5C1709.8 415.5 1715.5 419.3 1715.5 424Z" fill="#FFC947"/>
<path fill-rule="evenodd" clip-rule="evenodd" d="M1702.6 440C1689.6 440 1679 432.8 1679 424C1679 415.2 1689.6 408 1702.6 408C1715.7 408 1726.3 415.2 1726.3 424C1726.3 432.8 1715.7 440 1702.6 440ZM1702.6 410.5C1691 410.5 1681.4 416.5 1681.4 424C1681.4 431.4 1691 437.5 1702.6 437.5C1714.3 437.5 1723.9 431.4 1723.9 424C1723.9 416.5 1714.3 410.5 1702.6 410.5Z" fill="#FFC947"/>
<path d="M487.6 655.215C487.6 655.215 488.2 652.715 489.6 648.015" stroke="white" stroke-width="5"/>
<path d="M494.2 634.015C519.9 561.015 1137.8 449.1 1480.5 543" stroke="white" stroke-width="5" stroke-dasharray="15 15"/>
<path d="M593.6 851.614C580.7 174.414 1494 317.614 1494 567.014" stroke="white" stroke-width="5" stroke-dasharray="15 15"/>
<path d="M471.1 392.015C471.1 -196.985 1490 43.5995 1490 534.5" stroke="white" stroke-width="5" stroke-dasharray="15 15"/>
<path d="M1930 809.5C1930 -109.4 1497.5 85.385 1497.5 529.385" stroke="white" stroke-width="5" stroke-dasharray="15 15"/>
<path d="M1169.7 550.115C1169.7 -0.485077 1494.5 75.6999 1494.5 534.5" stroke="white" stroke-width="5" stroke-dasharray="15 15"/>
<path d="M1118 697.5C1118 146.9 1494.5 75.6999 1494.5 534.5" stroke="white" stroke-width="5" stroke-dasharray="15 15"/>
<path d="M1494 530C1494 -20.6002 1702.8 -54.7427 1702.8 404.057" stroke="white" stroke-width="5" stroke-dasharray="15 15"/>
<path d="M263.3 506.316C263.3 98.4158 1494.5 -101.699 1494.5 566.501M230.8 283.815C230.8 -124.085 1493.81 -128.7 1493.81 539.5" stroke="white" stroke-width="5" stroke-dasharray="15 15"/>
<path d="M1521.92 570.262C1521.92 581.465 1511.14 590.285 1497.96 590.285C1484.77 590.285 1474 581.465 1474 570.262C1474 559.058 1484.77 550 1497.96 550C1511.14 550 1521.92 559.058 1521.92 570.262Z" fill="#D60000"/>
<path d="M484 392.014C484 396.614 478.3 400.414 471.1 400.414C464 400.414 458.2 396.614 458.2 392.014C458.2 387.314 464 383.514 471.1 383.514C478.3 383.514 484 387.314 484 392.014Z" fill="#FFC947"/>
<path fill-rule="evenodd" clip-rule="evenodd" d="M471.1 407.914C458.1 407.914 447.4 400.814 447.4 392.014C447.4 383.114 458.1 376.014 471.1 376.014C484.2 376.014 494.8 383.114 494.8 392.014C494.8 400.814 484.2 407.914 471.1 407.914ZM471.1 378.514C459.4 378.514 449.9 384.514 449.9 392.014C449.9 399.414 459.4 405.414 471.1 405.414C482.8 405.414 492.3 399.414 492.3 392.014C492.3 384.514 482.8 378.514 471.1 378.514Z" fill="#FFC947"/>
<path d="M274.6 506.615C274.6 511.315 268.8 515.115 261.7 515.115C254.6 515.115 248.8 511.315 248.8 506.615C248.8 501.915 254.6 498.215 261.7 498.215C268.8 498.215 274.6 501.915 274.6 506.615Z" fill="#FFC947"/>
<path fill-rule="evenodd" clip-rule="evenodd" d="M261.7 522.615C248.6 522.615 238 515.415 238 506.615C238 497.815 248.6 490.615 261.7 490.615C274.8 490.615 285.4 497.815 285.4 506.615C285.4 515.415 274.8 522.615 261.7 522.615ZM261.7 493.115C250 493.115 240.5 499.215 240.5 506.615C240.5 514.115 250 520.115 261.7 520.115C273.4 520.115 282.9 514.115 282.9 506.615C282.9 499.215 273.4 493.115 261.7 493.115Z" fill="#FFC947"/>
<path d="M500.5 655.215C500.5 659.915 494.7 663.715 487.6 663.715C480.5 663.715 474.7 659.915 474.7 655.215C474.7 650.615 480.5 646.815 487.6 646.815C494.7 646.815 500.5 650.615 500.5 655.215Z" fill="#FFC947"/>
<path fill-rule="evenodd" clip-rule="evenodd" d="M487.6 671.215C474.6 671.215 463.9 664.015 463.9 655.215C463.9 646.415 474.6 639.215 487.6 639.215C500.7 639.215 511.3 646.415 511.3 655.215C511.3 664.015 500.7 671.215 487.6 671.215ZM487.6 641.715C475.9 641.715 466.4 647.815 466.4 655.215C466.4 662.715 475.9 668.715 487.6 668.715C499.3 668.715 508.8 662.715 508.8 655.215C508.8 647.815 499.3 641.715 487.6 641.715Z" fill="#FFC947"/>
<path d="M1182.6 558.515C1182.6 563.215 1176.8 567.015 1169.7 567.015C1162.6 567.015 1156.8 563.215 1156.8 558.515C1156.8 553.915 1162.6 550.115 1169.7 550.115C1176.8 550.115 1182.6 553.915 1182.6 558.515Z" fill="#FFC947"/>
<path fill-rule="evenodd" clip-rule="evenodd" d="M1169.7 574.515C1156.6 574.515 1146 567.315 1146 558.515C1146 549.715 1156.6 542.515 1169.7 542.515C1182.8 542.515 1193.4 549.715 1193.4 558.515C1193.4 567.315 1182.8 574.515 1169.7 574.515ZM1169.7 545.015C1158 545.015 1148.5 551.115 1148.5 558.515C1148.5 566.015 1158 572.015 1169.7 572.015C1181.4 572.015 1190.9 566.015 1190.9 558.515C1190.9 551.115 1181.4 545.015 1169.7 545.015Z" fill="#FFC947"/>
<path d="M1130.5 722C1130.5 726.7 1124.8 730.4 1117.6 730.4C1110.5 730.4 1104.8 726.7 1104.8 722C1104.8 717.3 1110.5 713.5 1117.6 713.5C1124.8 713.5 1130.5 717.3 1130.5 722Z" fill="#FFC947"/>
<path fill-rule="evenodd" clip-rule="evenodd" d="M1117.6 738C1104.6 738 1094 730.8 1094 722C1094 713.2 1104.6 706 1117.6 706C1130.7 706 1141.3 713.2 1141.3 722C1141.3 730.8 1130.7 738 1117.6 738ZM1117.6 708.5C1106 708.5 1096.4 714.5 1096.4 722C1096.4 729.4 1106 735.5 1117.6 735.5C1129.3 735.5 1138.9 729.4 1138.9 722C1138.9 714.5 1129.3 708.5 1117.6 708.5Z" fill="#FFC947"/>
<path d="M243.5 306C243.5 310.7 237.8 314.4 230.6 314.4C223.5 314.4 217.8 310.7 217.8 306C217.8 301.3 223.5 297.5 230.6 297.5C237.8 297.5 243.5 301.3 243.5 306Z" fill="#FFC947"/>
<path fill-rule="evenodd" clip-rule="evenodd" d="M230.6 322C217.6 322 207 314.8 207 306C207 297.2 217.6 290 230.6 290C243.7 290 254.3 297.2 254.3 306C254.3 314.8 243.7 322 230.6 322ZM230.6 292.5C219 292.5 209.4 298.5 209.4 306C209.4 313.4 219 319.5 230.6 319.5C242.3 319.5 251.9 313.4 251.9 306C251.9 298.5 242.3 292.5 230.6 292.5Z" fill="#FFC947"/>
<path d="M606.5 851.615C606.5 856.315 600.8 860.115 593.6 860.115C586.5 860.115 580.7 856.315 580.7 851.615C580.7 846.915 586.5 843.215 593.6 843.215C600.8 843.215 606.5 846.915 606.5 851.615Z" fill="#FFC947"/>
<path fill-rule="evenodd" clip-rule="evenodd" d="M593.6 867.615C580.6 867.615 569.9 860.415 569.9 851.615C569.9 842.815 580.6 835.615 593.6 835.615C606.7 835.615 617.3 842.815 617.3 851.615C617.3 860.415 606.7 867.615 593.6 867.615ZM593.6 838.115C581.9 838.115 572.4 844.215 572.4 851.615C572.4 859.115 581.9 865.115 593.6 865.115C605.3 865.115 614.8 859.115 614.8 851.615C614.8 844.215 605.3 838.115 593.6 838.115Z" fill="#FFC947"/>
</svg>
