<svg width="283" height="283" viewBox="0 0 283 283" fill="none" xmlns="http://www.w3.org/2000/svg">
<path d="M150.786 185.683C151.552 186.737 152.684 187.425 153.968 187.63C155.251 187.835 156.55 187.528 157.604 186.757C159.781 185.175 160.264 182.115 158.683 179.938C157.731 178.625 156.242 177.927 154.729 177.927C153.733 177.927 152.728 178.23 151.864 178.855C149.682 180.441 149.199 183.501 150.786 185.683V185.683Z" fill="#FFC947"/>
<path d="M30.1971 164.173C16.2626 158.668 5.74463 147.428 1.24459 133.347C0.449029 139.194 0 145.153 0 151.22C0 194.605 21.0848 233.153 53.5368 257.181L68.0473 259.592C80.5371 261.671 92.9 257.713 101.856 249.235C63.8987 237.619 35.317 204.513 30.1971 164.173V164.173ZM11.3331 170.894L20.9677 169.313C21.4704 172.363 22.1098 175.448 22.8663 178.474L13.3976 180.846C12.5728 177.556 11.8797 174.213 11.3331 170.894ZM16.2773 190.593L25.5165 187.44C26.5219 190.378 27.6592 193.311 28.9037 196.162L19.9622 200.066C18.6103 196.977 17.3706 193.785 16.2773 190.593V190.593ZM24.4183 209.198L33.0084 204.566C34.4824 207.295 36.0882 209.999 37.7867 212.6L29.6115 217.935C27.7617 215.104 26.0192 212.166 24.4183 209.198V209.198ZM42.0769 233.973C39.7976 231.498 37.5866 228.887 35.5074 226.213L43.2141 220.219C45.1273 222.679 47.1577 225.08 49.2516 227.355L42.0769 233.973ZM57.0412 247.707C54.3763 245.643 51.7603 243.437 49.276 241.152L55.8796 233.958C58.1687 236.062 60.57 238.087 63.0201 239.986L57.0412 247.707Z" fill="#FFC947"/>
<path d="M170.421 143.796C172.978 142.967 174.384 140.204 173.554 137.647C173.149 136.407 172.29 135.401 171.129 134.806C170.431 134.45 169.679 134.274 168.918 134.274C168.41 134.274 167.902 134.357 167.4 134.518C164.842 135.348 163.437 138.105 164.266 140.668C165.106 143.22 167.873 144.631 170.421 143.796Z" fill="#FFC947"/>
<path d="M131.78 156.101C134.476 156.101 136.661 153.916 136.661 151.22C136.661 148.525 134.476 146.339 131.78 146.339C129.085 146.339 126.899 148.525 126.899 151.22C126.899 153.916 129.085 156.101 131.78 156.101Z" fill="#FFC947"/>
<path d="M131.78 117.055C134.476 117.055 136.661 114.87 136.661 112.174C136.661 109.479 134.476 107.293 131.78 107.293C129.085 107.293 126.899 109.479 126.899 112.174C126.899 114.87 129.085 117.055 131.78 117.055Z" fill="#FFC947"/>
<path d="M68.3306 151.22C68.3306 186.205 96.795 214.67 131.78 214.67C166.765 214.67 195.23 186.205 195.23 151.22C195.23 116.235 166.765 87.7703 131.78 87.7703C96.795 87.7703 68.3306 116.235 68.3306 151.22ZM80.7179 134.63C81.9283 130.911 84.5102 127.885 87.9951 126.108C91.4848 124.332 95.4528 124.02 99.172 125.23C106.849 127.724 111.066 136.002 108.572 143.679C106.561 149.858 100.807 153.797 94.6378 153.797C93.1394 153.797 91.6215 153.568 90.1231 153.079C82.4408 150.585 78.2238 142.308 80.7179 134.63V134.63ZM120.677 191.418C117.816 195.356 113.346 197.445 108.811 197.445C105.829 197.445 102.818 196.538 100.226 194.654C97.0586 192.355 94.9794 188.958 94.3693 185.097C93.7592 181.236 94.6866 177.366 96.9854 174.198C101.734 167.673 110.905 166.223 117.436 170.958C123.966 175.711 125.421 184.882 120.677 191.418V191.418ZM117.138 151.22C117.138 143.147 123.707 136.578 131.78 136.578C139.853 136.578 146.422 143.147 146.422 151.22C146.422 159.293 139.853 165.862 131.78 165.862C123.707 165.862 117.138 159.293 117.138 151.22ZM164.388 125.23C168.108 124.02 172.076 124.332 175.565 126.108C179.05 127.88 181.637 130.906 182.843 134.63C185.337 142.313 181.12 150.59 173.442 153.084C171.944 153.572 170.421 153.802 168.928 153.802C162.753 153.802 156.999 149.863 154.993 143.684C152.499 136.002 156.711 127.724 164.388 125.23V125.23ZM166.575 174.198C168.874 177.361 169.806 181.232 169.191 185.097C168.576 188.963 166.502 192.355 163.334 194.654C160.738 196.538 157.731 197.445 154.744 197.445C150.21 197.445 145.739 195.352 142.879 191.413C138.135 184.882 139.589 175.707 146.12 170.958C152.655 166.218 161.831 167.668 166.575 174.198V174.198ZM146.422 112.174C146.422 120.247 139.853 126.816 131.78 126.816C123.707 126.816 117.138 120.247 117.138 112.174C117.138 104.101 123.707 97.5317 131.78 97.5317C139.853 97.5317 146.422 104.101 146.422 112.174Z" fill="#FFC947"/>
<path d="M136.661 58.3979C136.114 58.4077 135.577 58.4126 135.026 58.4321C133.893 58.4565 132.79 58.4858 131.78 58.4858C80.6445 58.4858 39.0459 100.084 39.0459 151.22C39.0459 202.355 80.6445 243.954 131.78 243.954C182.916 243.954 224.514 202.355 224.514 151.22C224.514 150.214 224.543 149.116 224.573 147.984C224.587 147.432 224.592 146.891 224.602 146.339H214.689L214.206 141.995C209.979 103.803 179.191 73.0158 141 68.789L136.661 68.3107V58.3979ZM204.991 151.22C204.991 191.588 172.149 224.431 131.78 224.431C91.4114 224.431 58.5689 191.588 58.5689 151.22C58.5689 110.851 91.4114 78.0088 131.78 78.0088C172.149 78.0088 204.991 110.851 204.991 151.22Z" fill="#FFC947"/>
<path d="M29.3771 153.085C29.3674 152.455 29.2844 151.85 29.2844 151.22C29.2844 110.354 53.3855 75.1001 88.0681 58.652C88.9856 43.6827 96.4288 30.1875 108.44 21.5535C60.7603 30.1143 21.9194 64.3868 6.81836 109.475L9.01957 124.093C10.9084 136.646 18.5175 147.193 29.3771 153.085V153.085ZM75.8516 42.7456L80.3321 51.4187C77.5696 52.8439 74.8364 54.4057 72.2105 56.0505L67.0223 47.7874C69.8727 45.9962 72.845 44.2977 75.8516 42.7456ZM58.6421 53.5418L64.499 61.351C62.0049 63.2203 59.5694 65.2166 57.2559 67.2665L50.7694 59.9747C53.283 57.7393 55.9284 55.5722 58.6421 53.5418V53.5418ZM43.4581 67.0273L50.5205 73.7627C48.3827 76.0079 46.3036 78.375 44.3513 80.791L36.7519 74.6608C38.8799 72.035 41.1348 69.4677 43.4581 67.0273ZM30.7096 82.8312L38.7872 88.3122C37.0399 90.8844 35.3853 93.559 33.8674 96.2581L25.3652 91.4798C27.0149 88.5416 28.811 85.6327 30.7096 82.8312V82.8312ZM20.7529 100.534L29.6309 104.59C28.3327 107.43 27.1466 110.339 26.1022 113.243L16.9166 109.944C18.0587 106.786 19.3472 103.618 20.7529 100.534V100.534Z" fill="#FFC947"/>
<path d="M219.633 48.7244C214.255 48.7244 209.389 51.7407 206.851 56.3139C214.333 61.9902 221.01 68.6671 226.686 76.1492C231.259 73.6113 234.275 68.7452 234.275 63.3666C234.275 55.2938 227.706 48.7244 219.633 48.7244Z" fill="#FFC947"/>
<path d="M223.323 136.578H283C282.776 129.945 282.073 123.429 280.96 117.055H235.432L234.451 113.458C225.871 82.0013 200.999 57.1291 169.547 48.5536L165.945 47.5726L165.965 2.04503C159.581 0.932222 153.06 0.224514 146.422 0V59.6768C185.654 65.9437 217.056 97.3464 223.323 136.578V136.578Z" fill="#FFC947"/>
<path d="M131.78 253.716C125.259 253.716 118.905 253.037 112.721 251.871C103.232 263.35 89.3907 269.905 74.7094 269.905C74.6508 269.905 74.5874 269.9 74.5239 269.895C91.8506 278.29 111.276 283 131.78 283C160.342 283 186.786 273.839 208.393 258.338L215.148 245.321C221.005 234.046 221.044 221.029 215.704 209.877C197.153 236.34 166.482 253.716 131.78 253.716ZM123.375 272.965C120.017 272.741 116.62 272.365 113.267 271.847L114.746 262.198C117.826 262.667 120.95 263.013 124.034 263.223L123.375 272.965ZM133.537 273.234L133.391 263.472C136.5 263.423 139.643 263.248 142.732 262.945L143.684 272.658C140.326 272.99 136.914 273.18 133.537 273.234V273.234ZM153.748 271.242L151.991 261.642C155.056 261.081 158.126 260.383 161.113 259.577L163.656 269.002C160.41 269.881 157.077 270.632 153.748 271.242ZM173.354 265.952L170.035 256.771C172.959 255.717 175.868 254.526 178.684 253.227L182.759 262.096C179.694 263.506 176.531 264.8 173.354 265.952ZM191.818 257.479L187.02 248.981C189.734 247.449 192.408 245.789 194.966 244.047L200.457 252.115C197.67 254.013 194.766 255.814 191.818 257.479V257.479Z" fill="#FFC947"/>
<path d="M131.78 48.7244C132.708 48.7244 133.723 48.7 134.767 48.6707C135.392 48.6561 136.026 48.6512 136.661 48.6366V19.6108C135.392 19.5669 134.123 19.4888 132.859 19.479L119.647 26.0875C108.284 31.7687 100.602 42.2721 98.3618 54.4349C108.851 50.7987 120.066 48.7244 131.78 48.7244V48.7244Z" fill="#FFC947"/>
<path d="M99.2838 140.663C100.114 138.106 98.7128 135.348 96.1504 134.513C95.6525 134.352 95.1401 134.269 94.6325 134.269C93.8711 134.269 93.1194 134.45 92.4215 134.801C91.2599 135.397 90.396 136.402 89.9957 137.642C89.166 140.199 90.5717 142.962 93.1292 143.792C95.6916 144.631 98.4541 143.225 99.2838 140.663V140.663Z" fill="#FFC947"/>
<path d="M108.835 177.932C107.327 177.932 105.834 178.63 104.882 179.943C103.301 182.12 103.784 185.18 105.961 186.761C107.01 187.528 108.313 187.835 109.592 187.635C110.881 187.43 112.013 186.737 112.774 185.688C114.356 183.506 113.872 180.451 111.696 178.869C110.832 178.23 109.831 177.932 108.835 177.932V177.932Z" fill="#FFC947"/>
<path d="M219.633 38.963C233.089 38.963 244.037 49.9105 244.037 63.3667C244.037 71.9958 239.371 79.8246 232.221 84.1782C236.657 91.348 240.245 99.0986 242.812 107.293H278.876C266.274 56.6606 226.354 16.7361 175.721 4.12915L175.707 40.1881C183.901 42.7553 191.647 46.3427 198.817 50.7793C203.175 43.629 211.004 38.963 219.633 38.963ZM253.798 87.7704C256.493 87.7704 258.679 89.957 258.679 92.6511C258.679 95.3453 256.493 97.5319 253.798 97.5319C251.104 97.5319 248.918 95.3453 248.918 92.6511C248.918 89.957 251.104 87.7704 253.798 87.7704ZM190.349 34.0823C187.655 34.0823 185.468 31.8957 185.468 29.2015C185.468 26.5073 187.655 24.3208 190.349 24.3208C193.043 24.3208 195.23 26.5073 195.23 29.2015C195.23 31.8957 193.043 34.0823 190.349 34.0823Z" fill="#FFC947"/>
<path d="M234.363 146.339C234.353 146.974 234.349 147.608 234.329 148.238C234.3 149.282 234.275 150.298 234.275 151.22C234.275 169.074 229.668 185.864 221.605 200.496C229.595 213.088 231.493 228.277 226.92 242.256C249.591 218.579 263.56 186.508 263.56 151.22C263.56 149.59 263.448 147.97 263.389 146.339H234.363ZM240.786 206.104L232.064 201.726C233.465 198.934 234.759 196.064 235.906 193.204L244.964 196.836C243.72 199.949 242.309 203.068 240.786 206.104ZM248.361 187.259L239.034 184.38C239.952 181.407 240.752 178.367 241.416 175.336L250.953 177.425C250.231 180.719 249.357 184.028 248.361 187.259V187.259ZM252.72 167.419L243.046 166.121C243.456 163.046 243.749 159.913 243.905 156.809L253.652 157.301C253.481 160.679 253.164 164.081 252.72 167.419Z" fill="#FFC947"/>
</svg>
