<svg width="26" height="20" viewBox="0 0 26 20" fill="none" xmlns="http://www.w3.org/2000/svg">
<path d="M24.61 0H1.39C0.622324 0 0 0.622324 0 1.39C0 2.15768 0.622324 2.78 1.39 2.78H24.61C25.3777 2.78 26 2.15768 26 1.39C26 0.622324 25.3777 0 24.61 0Z" fill="#FFC947"/>
<path d="M24.61 8.55554H1.39C0.622324 8.55554 0 9.17787 0 9.94554C0 10.7132 0.622324 11.3355 1.39 11.3355H24.61C25.3777 11.3355 26 10.7132 26 9.94554C26 9.17787 25.3777 8.55554 24.61 8.55554Z" fill="#FFC947"/>
<path d="M24.61 16.5555H1.39C0.622324 16.5555 0 17.1778 0 17.9455C0 18.7132 0.622324 19.3355 1.39 19.3355H24.61C25.3777 19.3355 26 18.7132 26 17.9455C26 17.1778 25.3777 16.5555 24.61 16.5555Z" fill="#FFC947"/>
</svg>
