<svg width="294" height="294" viewBox="0 0 294 294" fill="none" xmlns="http://www.w3.org/2000/svg">
<path d="M284.951 58.6178C269.888 57.4712 192.803 49.4158 154.481 3.48394C152.631 1.26457 149.887 -0.0130202 146.999 0.000100073C144.112 -0.00738078 141.371 1.26706 139.516 3.47904C123.655 22.5397 99.4694 37.2395 67.6493 47.2451C48.585 53.1482 28.935 56.9599 9.04629 58.6129C3.88702 59.0108 -0.073786 63.3514 0.00104288 68.5254C1.44162 148.193 39.8962 254.889 143.52 293.373C145.765 294.209 148.237 294.209 150.482 293.373C254.101 254.884 292.58 148.193 293.996 68.5303C294.071 63.3563 290.11 59.0157 284.951 58.6178V58.6178ZM146.93 284.195C47.9271 247.417 11.1827 144.935 9.80088 68.3833C30.4299 66.6716 50.8112 62.7186 70.5843 56.5941C104.237 46.0152 129.962 30.2522 146.954 9.75584C187.785 58.7011 268.414 67.1829 284.196 68.3882C282.8 144.969 246.05 247.446 146.93 284.195V284.195Z" fill="#FFC947"/>
<path d="M30.3793 85.7486C45.9985 83.4849 61.4142 79.9902 76.4826 75.2971C89.7722 71.183 102.665 65.8829 115.006 59.4605C117.401 58.1967 118.318 55.2308 117.054 52.8358C115.79 50.4409 112.824 49.5239 110.429 50.7877C98.6171 56.9416 86.273 62.0157 73.5476 65.948C58.9734 70.4848 44.0641 73.8648 28.9583 76.0565C23.8193 76.815 20.165 81.4517 20.6285 86.6257C22.5502 107.74 27.0086 128.547 33.9072 148.595C34.825 151.1 37.578 152.41 40.1009 151.543C42.6237 150.676 43.9892 147.95 43.173 145.41C36.5299 126.108 32.2345 106.077 30.3793 85.7486V85.7486Z" fill="#FFC947"/>
<path d="M179.009 59.4556C191.356 65.8813 204.257 71.18 217.556 75.2873C232.608 79.9897 248.01 83.4879 263.616 85.7486C261.768 106.082 257.475 126.119 250.832 145.425C250.222 147.09 250.559 148.956 251.715 150.302C252.87 151.648 254.663 152.264 256.402 151.913C258.141 151.562 259.555 150.299 260.098 148.61C267.011 128.557 271.483 107.744 273.416 86.6208C273.879 81.4468 270.225 76.8101 265.086 76.0517C249.98 73.8591 235.07 70.4775 220.496 65.9382C207.771 62.007 195.427 56.9346 183.615 50.7828C181.22 49.519 178.254 50.436 176.99 52.8309C175.726 55.2259 176.643 58.1919 179.038 59.4556H179.009Z" fill="#FFC947"/>
<path d="M136.894 45.0792C130.457 56.8004 127.184 69.9963 127.398 83.3671V104.829L123.017 107.019C119.686 108.665 117.584 112.065 117.598 115.78V124.639L68.5987 153.201V146.997C68.5987 144.291 66.4049 142.098 63.6988 142.098C60.9926 142.098 58.7989 144.291 58.7989 146.997V186.197C58.7907 188.903 60.9779 191.103 63.6841 191.111C66.3902 191.12 68.5906 188.932 68.5987 186.226H117.598V193.659L96.7683 210.319C94.4455 212.176 93.0946 214.989 93.0983 217.963V225.396C93.0983 230.808 97.4858 235.196 102.898 235.196H128.765L130.318 239.841C132.317 245.843 137.932 249.893 144.258 249.896H149.736C156.054 249.885 161.659 245.839 163.657 239.846L165.23 235.196H191.097C196.509 235.196 200.896 230.808 200.896 225.396V217.963C200.901 214.984 199.546 212.166 197.217 210.309L176.397 193.659V186.226H225.396C225.401 187.977 226.34 189.592 227.859 190.462C229.377 191.333 231.245 191.327 232.759 190.448C234.272 189.568 235.201 187.947 235.196 186.197V146.997C235.196 144.291 233.002 142.098 230.296 142.098C227.59 142.098 225.396 144.291 225.396 146.997V153.201L176.397 124.639V115.78C176.415 112.072 174.326 108.674 171.007 107.019L166.597 104.858V83.3671C166.814 69.9866 163.542 56.7803 157.101 45.0498C155.025 41.4296 151.171 39.1968 146.997 39.1968C142.824 39.1968 138.97 41.4296 136.894 45.0498V45.0792ZM156.797 83.3671V104.858C156.78 108.566 158.869 111.963 162.187 113.619L166.597 115.805V146.997C166.597 149.704 168.791 151.897 171.497 151.897C174.203 151.897 176.397 149.704 176.397 146.997V135.982L225.396 164.544V176.426H176.397V166.597C176.397 163.891 174.203 161.697 171.497 161.697C168.791 161.697 166.597 163.891 166.597 166.597V195.997C166.598 197.486 167.276 198.894 168.439 199.823L191.097 217.963V225.396H161.697C159.589 225.398 157.718 226.748 157.052 228.748L154.386 236.739C153.72 238.741 151.846 240.091 149.736 240.091H144.258C142.148 240.091 140.275 238.741 139.608 236.739L136.943 228.748C136.277 226.748 134.406 225.398 132.298 225.396H102.898V217.963L125.56 199.833C126.725 198.901 127.401 197.489 127.398 195.997V166.597C127.398 163.891 125.204 161.697 122.498 161.697C119.792 161.697 117.598 163.891 117.598 166.597V176.426H68.5987V164.544L117.598 135.982V146.997C117.598 149.704 119.792 151.897 122.498 151.897C125.204 151.897 127.398 149.704 127.398 146.997V115.785L131.778 113.595C135.099 111.951 137.2 108.564 137.198 104.858V83.3671C136.979 71.6883 139.811 60.1546 145.415 49.9056C145.745 49.3454 146.347 49.0016 146.997 49.0016C147.648 49.0016 148.25 49.3454 148.58 49.9056C154.182 60.155 157.015 71.6885 156.797 83.3671V83.3671Z" fill="#FFC947"/>
</svg>
