<svg width="388" height="283" viewBox="0 0 388 283" fill="none" xmlns="http://www.w3.org/2000/svg">
<path d="M377.978 45.4663H352.455C347.239 45.4663 342.996 49.7092 342.996 54.9252V81.1665C342.996 86.3825 347.239 90.6254 352.455 90.6254H359.168V119.495H279.838V97.037H302.67C307.886 97.037 312.129 92.7941 312.129 87.5781V45.1591H318.643C323.859 45.1591 328.102 40.9162 328.102 35.7002V9.45891C328.102 4.24364 323.859 0 318.643 0H293.12C287.904 0 283.661 4.24364 283.661 9.45891V35.6994C283.661 40.9154 287.904 45.1583 293.12 45.1583H300.778V85.6856H279.838V63.0849C279.838 57.8688 275.595 53.6259 270.379 53.6259H249.231V28.0029C249.231 24.8686 246.69 22.3276 243.555 22.3276C240.421 22.3276 237.88 24.8686 237.88 28.0029V53.6259H216.007V28.0029C216.007 24.8686 213.466 22.3276 210.331 22.3276C207.197 22.3276 204.656 24.8686 204.656 28.0029V53.6259H182.782V28.0029C182.782 24.8686 180.241 22.3276 177.107 22.3276C173.973 22.3276 171.432 24.8686 171.432 28.0029V53.6259H149.558V28.0029C149.558 24.8686 147.017 22.3276 143.883 22.3276C140.749 22.3276 138.207 24.8686 138.207 28.0029V53.6259H117.059C111.843 53.6259 107.6 57.8688 107.6 63.0849V85.6856H86.6602V45.1583H94.3182C99.5342 45.1583 103.777 40.9154 103.777 35.6994V9.45891C103.777 4.24364 99.5342 0 94.3182 0H68.7935C63.5775 0 59.3346 4.24364 59.3346 9.45891V35.6994C59.3346 40.9154 63.5775 45.1583 68.7935 45.1583H75.308V87.5774C75.308 92.7934 79.5509 97.0363 84.7669 97.0363H107.598V119.494H28.2693V90.6246H34.9828C40.1988 90.6246 44.4417 86.3818 44.4417 81.1657V54.9245C44.4417 49.7084 40.1988 45.4656 34.9828 45.4656H9.45891C4.24289 45.4656 0 49.7084 0 54.9245V81.1657C0 86.3818 4.24289 90.6246 9.45891 90.6246H16.9186V121.386C16.9186 126.602 21.1615 130.845 26.3775 130.845H107.599V150.971H84.7518C81.6175 150.971 79.0765 153.512 79.0765 156.646C79.0765 159.781 81.6175 162.322 84.7518 162.322H107.598V185.944H84.7684C79.5524 185.944 75.3095 190.187 75.3095 195.403V237.822H68.7935C63.5775 237.822 59.3346 242.066 59.3346 247.281V273.522C59.3346 278.738 63.5775 282.981 68.7935 282.981H94.3166C99.5327 282.981 103.776 278.738 103.776 273.522V247.281C103.776 242.066 99.5327 237.822 94.3166 237.822H86.6595V197.295H107.598V219.895C107.598 225.111 111.841 229.354 117.057 229.354H138.205V254.977C138.205 258.112 140.746 260.653 143.881 260.653C147.015 260.653 149.556 258.112 149.556 254.977V229.354H171.429V254.977C171.429 258.112 173.97 260.653 177.105 260.653C180.239 260.653 182.78 258.112 182.78 254.977V229.354H204.654V254.977C204.654 258.112 207.195 260.653 210.329 260.653C213.463 260.653 216.004 258.112 216.004 254.977V229.354H237.878V254.977C237.878 258.112 240.419 260.653 243.553 260.653C246.688 260.653 249.229 258.112 249.229 254.977V229.354H270.377C275.593 229.354 279.836 225.111 279.836 219.895V197.295H300.774V237.822H293.117C287.901 237.822 283.658 242.066 283.658 247.281V273.522C283.658 278.738 287.901 282.981 293.117 282.981H318.64C323.856 282.981 328.099 278.738 328.099 273.522V247.281C328.099 242.066 323.856 237.822 318.64 237.822H312.124V195.403C312.124 190.187 307.881 185.944 302.665 185.944H279.835V162.322H303.442C306.576 162.322 309.117 159.781 309.117 156.646C309.117 153.512 306.576 150.971 303.442 150.971H279.838V130.845H361.059C366.275 130.845 370.518 126.602 370.518 121.386V90.6246H377.978C383.194 90.6246 387.437 86.3818 387.437 81.1657V54.9245C387.437 49.7092 383.194 45.4663 377.978 45.4663ZM295.011 33.8076V11.3507H316.751V33.8076H295.011ZM70.6853 33.8076V11.3507H92.4249V33.8076H70.6853ZM11.3507 79.2747V56.817H33.0903V79.2747H11.3507ZM92.4249 249.173V271.631H70.6853V249.173H92.4249ZM118.949 218.004V64.9774H268.487V218.004H118.949V218.004ZM316.752 249.173V271.631H295.012V249.173H316.752ZM376.086 79.2747H354.347V56.817H376.086V79.2747Z" fill="#FFC947"/>
<path d="M377.978 191.191H370.518V160.43C370.518 155.214 366.275 150.971 361.059 150.971H335.224C332.089 150.971 329.548 153.512 329.548 156.646C329.548 159.781 332.089 162.322 335.224 162.322H359.168V191.191H352.454C347.238 191.191 342.995 195.434 342.995 200.65V226.89C342.995 232.106 347.238 236.349 352.454 236.349H377.978C383.194 236.349 387.437 232.106 387.437 226.89V200.65C387.437 195.435 383.194 191.191 377.978 191.191ZM376.086 224.999H354.347V202.542H376.086V224.999Z" fill="#FFC947"/>
<path d="M52.9699 150.972H26.3775C21.1615 150.972 16.9186 155.215 16.9186 160.431V191.192H9.45891C4.24289 191.192 0 195.435 0 200.651V226.891C0 232.107 4.24289 236.35 9.45891 236.35H34.9821C40.1981 236.35 44.441 232.107 44.441 226.891V200.651C44.441 195.435 40.1981 191.192 34.9821 191.192H28.2685V162.322H52.9699C56.1042 162.322 58.6452 159.781 58.6452 156.647C58.6452 153.512 56.1042 150.972 52.9699 150.972ZM33.0903 202.542V224.999H11.3507V202.542H33.0903Z" fill="#FFC947"/>
<path d="M239.931 121.438C243.065 121.438 245.606 118.897 245.606 115.763V98.0592C245.606 92.8432 241.363 88.6003 236.147 88.6003H151.289C146.073 88.6003 141.831 92.8432 141.831 98.0592V184.922C141.831 190.138 146.073 194.381 151.289 194.381H236.147C241.363 194.381 245.606 190.138 245.606 184.922V149.058C245.606 145.924 243.065 143.383 239.931 143.383C236.796 143.383 234.255 145.924 234.255 149.058V183.03H187.84V153.295C187.84 150.16 185.299 147.619 182.165 147.619H153.181V99.951H234.255V115.763C234.255 118.897 236.796 121.438 239.931 121.438ZM176.49 158.97V183.03H153.181V158.97H176.49Z" fill="#FFC947"/>
</svg>
