<svg width="266" height="279" viewBox="0 0 266 279" fill="none" xmlns="http://www.w3.org/2000/svg">
<path d="M94.9441 173.528H78.5837C73.4878 173.528 69.3413 169.383 69.3413 164.285V155.167C69.3413 154.628 68.9603 154.162 68.3962 154.006C62.7235 152.461 57.253 150.188 52.138 147.252C51.6739 146.986 51.1269 147.04 50.7799 147.386L44.2664 153.9C42.5209 155.645 40.2008 156.605 37.7316 156.605C35.2645 156.605 32.9422 155.645 31.1968 153.9L19.6278 142.331C17.8824 140.586 16.9202 138.263 16.9202 135.796C16.9202 133.327 17.8824 131.005 19.6278 129.261L26.1392 122.748C26.4883 122.401 26.5415 121.854 26.2733 121.39C23.3401 116.275 21.0668 110.804 19.5214 105.132C19.366 104.568 18.8998 104.187 18.3613 104.187H9.24239C4.14651 104.187 0 100.04 0 94.9441V78.5837C0 73.4878 4.14651 69.3413 9.24239 69.3413H18.3613C18.8998 69.3413 19.366 68.9624 19.5214 68.3962C21.0668 62.7256 23.3401 57.2551 26.2755 52.138C26.5415 51.6739 26.4883 51.1269 26.1413 50.7799L19.6278 44.2664C17.8824 42.5231 16.9202 40.2008 16.9202 37.7316C16.9202 35.2645 17.8824 32.9422 19.6278 31.1968L31.1968 19.6278C32.9422 17.8824 35.2624 16.9224 37.7316 16.9224C40.2008 16.9224 42.5231 17.8824 44.2685 19.63L50.7799 26.1413C51.1269 26.4883 51.6718 26.5415 52.138 26.2755C57.253 23.3401 62.7214 21.0689 68.3941 19.5214C68.9624 19.366 69.3413 18.8998 69.3413 18.3613V9.24239C69.3413 4.14651 73.4878 0 78.5837 0H94.9441C100.04 0 104.187 4.14651 104.187 9.24239V18.3613C104.187 18.8998 104.565 19.366 105.132 19.5193C110.802 21.0668 116.273 23.3401 121.388 26.2755C121.854 26.5415 122.399 26.4883 122.748 26.1413L129.259 19.6278C132.872 16.0177 138.719 16.0156 142.331 19.63L143.555 20.8539C147.376 24.6726 141.601 30.4582 137.776 26.6331C137.022 25.9817 136.056 24.3916 135.041 25.4091L128.527 31.9205C125.581 34.8665 120.973 35.4604 117.32 33.3637C112.807 30.7753 107.982 28.7702 102.982 27.4057C98.8778 26.2882 96.0106 22.5674 96.0106 18.3592V9.24239C96.0106 8.65276 95.5316 8.17383 94.942 8.17383H78.5816C77.9941 8.17383 77.5151 8.65276 77.5151 9.24239V18.3613C77.5151 22.5696 74.6479 26.2882 70.544 27.4079C65.5418 28.7723 60.7162 30.7753 56.2036 33.3637C52.553 35.4604 47.9446 34.8665 44.9986 31.9205L38.4872 25.4091C38.2275 25.1494 37.9338 25.0962 37.7316 25.0962C37.5294 25.0962 37.2356 25.1494 36.9781 25.4091L25.407 36.9781C25.1494 37.2356 25.0941 37.5315 25.0941 37.7316C25.0941 37.9338 25.1494 38.2297 25.407 38.4872L31.9205 45.0008C34.8665 47.9467 35.4604 52.553 33.3637 56.2057C30.7753 60.7205 28.7702 65.5439 27.4057 70.5461C26.2882 74.65 22.5674 77.5151 18.3613 77.5151H9.24239C8.65276 77.5151 8.17383 77.9962 8.17383 78.5837V94.9441C8.17383 95.5337 8.65276 96.0127 9.24239 96.0127H18.3613C22.5674 96.0127 26.2882 98.8778 27.4079 102.982C28.7702 107.986 30.7753 112.809 33.3637 117.322C35.4604 120.975 34.8665 125.581 31.9205 128.527L25.4091 135.041C25.1494 135.298 25.0962 135.594 25.0962 135.796C25.0962 135.996 25.1516 136.292 25.4091 136.552L36.9781 148.119C37.3953 148.536 38.0722 148.538 38.4894 148.119L45.0008 141.607C47.9467 138.661 52.5552 138.067 56.2078 140.164C60.7205 142.753 65.5439 144.758 70.5461 146.122C74.65 147.24 77.5173 150.96 77.5173 155.169V164.285C77.5173 164.875 77.9962 165.354 78.5837 165.354H94.9441C95.5337 165.354 96.0127 164.875 96.0127 164.285V155.169C96.0127 150.96 98.8799 147.24 102.984 146.122C108.205 144.7 110.347 152.587 105.134 154.006C104.568 154.162 104.187 154.628 104.187 155.169V164.285C104.187 169.381 100.04 173.528 94.9441 173.528V173.528Z" fill="#FFC947"/>
<path d="M48.2446 86.7639C48.2446 59.7392 75.4184 41.214 100.459 50.7544C105.506 52.6808 102.605 60.3203 97.5473 58.394C77.7854 50.8608 56.4163 65.5312 56.4163 86.7639C56.4163 104.035 70.9632 118.088 88.5752 117.056C93.9606 116.73 94.4651 124.898 89.0563 125.217C66.8486 126.524 48.2446 108.814 48.2446 86.7639Z" fill="#FFC947"/>
<path d="M226.164 181.487L184.754 173.434V163.202C196.383 155.269 202.679 144.034 204.05 131.415C210.087 130.937 214.851 125.873 214.851 119.717V111.317C224.691 107.039 223.363 92.6771 212.952 90.2547V87.0129C212.952 57.8659 189.322 34.2363 160.177 34.2363H155.752C126.605 34.2363 102.978 57.8659 102.978 87.0107V90.2547C92.5709 92.6749 91.2342 107.039 101.079 111.317V119.717C101.079 125.873 105.843 130.937 111.879 131.415C113.076 142.425 118.235 152.501 126.375 159.509C127.933 160.852 129.534 162.082 131.175 163.202V173.434L89.7654 181.487C67.9175 185.735 50.8887 198.051 50.8887 220.776V262.346C50.8887 271.543 58.3452 279 67.5428 279H248.387C257.584 279 265.041 271.543 265.041 262.346V220.776C265.041 198.126 248.116 185.754 226.164 181.487V181.487ZM192.147 183.198C189.18 187.513 184.644 194.099 179.744 201.191C177.747 204.084 174.164 204.452 172.764 203.613L166.308 199.741C172.604 196.023 181.317 189.637 183.96 181.606L192.147 183.198ZM157.964 194.976C151.757 191.851 139.383 184.13 139.349 176.833C139.349 176.823 139.349 176.812 139.349 176.802V167.715C151.244 172.844 164.671 172.851 176.58 167.715V176.802C176.58 184.111 164.177 191.849 157.964 194.976ZM111.151 87.0107C111.151 70.2459 120.449 55.6117 134.16 47.9956V53.1191C134.16 58.5215 142.333 58.5301 142.333 53.1191V44.4728C146.001 43.3127 149.871 42.6166 153.877 42.4506V62.6595C153.877 68.0619 162.051 68.0704 162.051 62.6595V42.4506C166.057 42.6166 169.929 43.3127 173.596 44.4728V53.1191C173.596 58.5215 181.77 58.5301 181.77 53.1191V47.9956C195.48 55.6117 204.778 70.2459 204.778 87.0107V89.9652H111.151V87.0107ZM105.502 98.1391H210.427C214.344 98.1391 214.34 104.059 210.427 104.059H105.502C101.583 104.059 101.588 98.1391 105.502 98.1391V98.1391ZM119.794 127.277C119.747 125.055 117.931 123.278 115.707 123.278C115.026 123.11 109.251 124.34 109.251 119.717V112.235H206.677V119.717C206.677 124.331 200.749 123.148 200.221 123.278C197.998 123.278 196.183 125.055 196.134 127.277C195.915 137.495 191.572 146.984 184.222 153.315C168.613 166.755 147.316 166.757 131.707 153.315C124.355 146.984 120.013 137.495 119.794 127.277ZM131.967 181.606C134.613 189.637 143.323 196.023 149.622 199.741C143.151 203.207 143.608 204.243 140.669 203.896C138.84 203.677 137.199 202.66 136.152 201.144C131.265 194.069 126.743 187.502 123.78 183.198L131.967 181.606ZM84.8122 270.826H67.5407C62.8578 270.826 59.0604 267.029 59.0604 262.346V220.776C59.0604 208.528 64.6245 200.061 76.8299 194.211C77.3238 196.387 84.8122 216.713 84.8122 245.115V270.826ZM153.877 270.826H92.986V245.115C92.986 214.342 85.2166 194.526 84.4525 191.172C89.2248 189.586 85.6807 190.808 115.032 184.899C123.468 197.157 139.211 220.029 148.491 233.22C152.016 238.229 153.877 244.112 153.877 250.236V270.826ZM157.964 233.143C157.151 231.549 156.22 230.004 155.177 228.518C152.04 224.061 147.968 218.211 143.719 212.079C144.981 211.8 146.214 211.315 147.37 210.623L157.964 204.269L168.56 210.623C169.714 211.315 170.948 211.8 172.21 212.079C167.962 218.207 163.89 224.056 160.752 228.518C159.707 230.004 158.777 231.549 157.964 233.143V233.143ZM256.867 262.346C256.867 267.029 253.072 270.826 248.387 270.826H231.115V255.406C231.115 250.004 222.941 249.996 222.941 255.406V270.826H162.051V250.236C162.051 244.112 163.913 238.229 167.436 233.222C172.715 225.719 194.45 194.354 200.898 184.899C230.234 190.806 226.696 189.584 231.475 191.172C230.881 193.686 224.004 212.377 223.054 238.891C222.858 244.306 231.028 244.572 231.222 239.184C232.141 213.526 238.435 197.017 239.097 194.211C251.303 200.061 256.867 208.528 256.867 220.774V262.346Z" fill="#FFC947"/>
</svg>
