<svg width="8" height="14" viewBox="0 0 8 14" fill="none" xmlns="http://www.w3.org/2000/svg">
<path d="M3.99984 12.4001C2.85984 12.4001 1.93317 11.4734 1.93317 10.3334L1.93317 7.66675H0.666504L0.666504 10.3334C0.666504 12.1734 2.15984 13.6667 3.99984 13.6667C5.83984 13.6667 7.33317 12.1734 7.33317 10.3334V7.66675H6.0665V10.3334C6.0665 11.4734 5.13984 12.4001 3.99984 12.4001ZM4.6665 9.66675V4.33341H3.33317V9.66675H4.6665ZM0.666504 3.66675L0.666504 6.33341H1.93317L1.93317 3.66675C1.93317 2.52675 2.85984 1.60008 3.99984 1.60008C5.13984 1.60008 6.0665 2.52675 6.0665 3.66675V6.33341H7.33317V3.66675C7.33317 1.82675 5.83984 0.333414 3.99984 0.333414C2.15984 0.333414 0.666504 1.82675 0.666504 3.66675Z" fill="#F5F5F5"/>
</svg>
