<svg width="282" height="282" viewBox="0 0 282 282" fill="none" xmlns="http://www.w3.org/2000/svg">
<path d="M206.58 78.1726C205.557 77.1482 204.136 76.5588 202.687 76.5588C201.238 76.5588 199.817 77.1482 198.793 78.1726C197.769 79.1971 197.179 80.6126 197.179 82.0667C197.179 83.5152 197.768 84.9362 198.793 85.9607C199.818 86.9851 201.238 87.5745 202.687 87.5745C204.136 87.5745 205.557 86.9851 206.58 85.9607C207.605 84.9362 208.195 83.5152 208.195 82.0667C208.195 80.6181 207.605 79.1971 206.58 78.1726Z" fill="#FCD372"/>
<path d="M82.6169 155.32H38.5544C35.513 155.32 33.0466 157.786 33.0466 160.828V204.891C33.0466 207.933 35.513 210.398 38.5544 210.398H82.6169C85.6584 210.398 88.1248 207.933 88.1248 204.891V160.828C88.1248 157.786 85.6589 155.32 82.6169 155.32ZM77.1091 199.383H44.0623V166.336H77.1091V199.383Z" fill="#FCD372"/>
<path d="M278.6 115.533C276.541 114.679 274.172 115.152 272.597 116.726L216.474 172.85C216.473 172.851 216.472 172.851 216.471 172.852C216.47 172.854 216.469 172.854 216.469 172.855L151.045 238.279C151.044 238.28 151.043 238.281 151.042 238.282C151.041 238.283 151.04 238.284 151.039 238.285L116.726 272.598C115.152 274.173 114.68 276.542 115.532 278.6C116.385 280.658 118.393 282 120.621 282H276.492C279.533 282 282 279.534 282 276.492V120.621C282 118.394 280.658 116.385 278.6 115.533ZM270.984 270.985H133.918L154.937 249.966L160.194 255.224C161.27 256.3 162.68 256.837 164.089 256.837C165.498 256.837 166.908 256.3 167.984 255.224C170.134 253.073 170.134 249.586 167.984 247.434L162.726 242.176L176.746 228.156L182.004 233.413C183.079 234.489 184.489 235.026 185.898 235.026C187.308 235.026 188.717 234.488 189.793 233.413C191.944 231.262 191.944 227.775 189.793 225.624L184.535 220.366L198.556 206.345L203.814 211.603C204.889 212.679 206.299 213.216 207.708 213.216C209.118 213.216 210.527 212.679 211.603 211.603C213.753 209.452 213.753 205.965 211.603 203.813L206.345 198.556L220.365 184.536L225.623 189.793C226.698 190.869 228.108 191.407 229.517 191.407C230.927 191.407 232.336 190.869 233.412 189.793C235.563 187.643 235.563 184.155 233.412 182.004L228.154 176.746L242.175 162.725L247.432 167.982C248.508 169.058 249.917 169.596 251.327 169.596C252.736 169.596 254.146 169.058 255.221 167.982C257.372 165.832 257.372 162.344 255.221 160.193L249.963 154.936L270.984 133.918V270.985Z" fill="#FCD372"/>
<path d="M251.06 182.018C249.002 181.165 246.633 181.637 245.058 183.211L183.211 245.059C181.637 246.634 181.165 249.003 182.017 251.061C182.87 253.119 184.878 254.461 187.106 254.461H248.953C251.994 254.461 254.46 251.995 254.46 248.953V187.107C254.46 184.879 253.119 182.87 251.06 182.018ZM243.445 243.445H200.403L243.445 200.403V243.445Z" fill="#FCD372"/>
<path d="M255.044 82.2099C253.528 80.6941 251.271 80.1951 249.255 80.9326L211.648 94.7049C210.896 94.9803 210.213 95.4159 209.647 95.9821L199.072 106.557L130.023 37.5069C128.99 36.4742 127.589 35.8937 126.129 35.8937C124.668 35.8937 123.267 36.4742 122.234 37.5069L39.1196 120.621H18.8052L126.129 13.2973L185.023 72.1917C187.174 74.3425 190.661 74.3425 192.813 72.1917C194.963 70.0409 194.963 66.5534 192.813 64.402L130.024 1.6131C127.872 -0.537699 124.386 -0.537699 122.234 1.6131L1.61315 122.234C0.0384729 123.809 -0.432995 126.178 0.419062 128.236C1.27167 130.295 3.27981 131.637 5.50772 131.637H11.0155V276.492C11.0155 279.534 13.4819 282 16.5233 282H104.09C107.131 282 109.597 279.534 109.597 276.492C109.597 273.45 107.131 270.984 104.09 270.984H22.0311V131.637H41.401C42.8616 131.637 44.2623 131.056 45.2955 130.024L126.129 49.1906L191.283 114.345L109.605 196.023V146.508H148.16C151.201 146.508 153.668 144.042 153.668 141C153.668 137.958 151.201 135.492 148.16 135.492H104.097C101.056 135.492 98.5896 137.958 98.5896 141V204.891C98.5896 205.533 98.7052 206.147 98.9074 206.72L93.9729 211.655C85.2541 220.374 85.2541 234.561 93.9729 243.279C98.3329 247.639 104.058 249.819 109.785 249.819C115.511 249.819 121.239 247.639 125.598 243.28L172.046 196.832C174.197 194.681 174.197 191.193 172.046 189.042C169.895 186.892 166.409 186.892 164.256 189.042L129.066 224.233L113.02 208.187L213.651 107.556L229.697 123.602L191.245 162.055C189.094 164.206 189.094 167.693 191.245 169.844C193.396 171.995 196.882 171.995 199.034 169.844L241.271 127.607C241.837 127.041 242.273 126.358 242.548 125.606L256.321 87.9986C257.058 85.9849 256.56 83.7262 255.044 82.2099ZM121.277 232.022L117.808 235.49C115.665 237.633 112.817 238.814 109.786 238.814C106.755 238.814 103.906 237.633 101.763 235.49C99.6195 233.347 98.4397 230.498 98.4397 227.468C98.4397 224.437 99.619 221.588 101.763 219.444L105.231 215.976L121.277 232.022ZM235.23 113.555L223.698 102.023L241.895 95.3586L235.23 113.555Z" fill="#FCD372"/>
<path d="M185.442 175.644C184.418 174.62 182.997 174.03 181.548 174.03C180.1 174.03 178.679 174.62 177.654 175.644C176.63 176.674 176.04 178.09 176.04 179.538C176.04 180.992 176.629 182.408 177.654 183.438C178.679 184.462 180.094 185.046 181.548 185.046C182.997 185.046 184.418 184.462 185.442 183.438C186.466 182.408 187.056 180.987 187.056 179.538C187.056 178.09 186.467 176.674 185.442 175.644Z" fill="#FCD372"/>
<path d="M126.129 83.1682C114.588 83.1682 105.199 92.5574 105.199 104.098C105.199 115.638 114.588 125.028 126.129 125.028C137.669 125.028 147.058 115.638 147.058 104.098C147.058 92.5574 137.669 83.1682 126.129 83.1682ZM126.129 114.012C120.662 114.012 116.215 109.565 116.215 104.098C116.215 98.6314 120.662 94.1838 126.129 94.1838C131.595 94.1838 136.043 98.6314 136.043 104.098C136.043 109.564 131.595 114.012 126.129 114.012Z" fill="#FCD372"/>
</svg>
