<svg width="294" height="292" viewBox="0 0 294 292" fill="none" xmlns="http://www.w3.org/2000/svg">
<path fill-rule="evenodd" clip-rule="evenodd" d="M125.924 114.078C126.437 116.203 128.339 117.701 130.526 117.701H201.505C208.43 117.701 214.219 113.437 216.254 106.836L231.642 56.9474C232.086 55.5105 231.82 53.95 230.927 52.7403C230.035 51.5313 228.621 50.8176 227.118 50.8176H116.666C115.215 50.8176 113.844 51.4834 112.946 52.6232C112.048 53.7636 111.724 55.2519 112.064 56.6628L125.924 114.078ZM193.1 88.9092H174.979V79.2398H193.1V88.9092ZM202.569 79.2398H214.857L211.875 88.9092H202.569V79.2398ZM193.1 108.233H174.979V98.3779H193.1V108.233ZM165.51 108.233H147.389V98.3779H165.51V108.233ZM174.979 69.7711V60.2863H193.1V69.7711H174.979ZM165.51 69.7711H147.389V60.2863H165.51V69.7711ZM165.51 79.2398V88.9092H147.389V79.2398H165.51ZM137.921 88.9092H129.589L127.255 79.2398H137.921V88.9092H137.921ZM131.874 98.3779H137.92V108.233H134.253L131.874 98.3779ZM202.569 108.149V98.3779H208.955L207.206 104.046C206.505 106.319 204.808 107.796 202.569 108.149ZM217.778 69.7711H202.569V60.2863H220.704L217.778 69.7711ZM137.921 60.2858V69.7705H124.969L122.68 60.2858H137.921ZM282.069 175.668C289.676 159.331 293.534 141.845 293.534 123.629C293.534 55.4596 238.075 0 169.906 0C149.491 0 129.471 5.02613 111.614 14.5848C109.443 7.02877 102.596 1.81031 94.681 1.81031H80.943C75.0162 1.81031 70.1948 6.63168 70.1948 12.5585C70.1948 18.4854 75.0162 23.3067 80.943 23.3067H91.6788L92.6085 27.157C78.8789 38.1804 67.4862 52.1876 59.5543 67.8436C50.7442 85.233 46.2774 104.002 46.2774 123.629C46.2774 145.027 51.7917 165.948 62.2606 184.447L42.1212 196.107L37.9182 188.68V188.681C36.2872 185.798 33.623 183.72 30.4172 182.832C27.212 181.944 23.8589 182.352 20.9757 183.984L6.30621 192.286C0.340305 195.662 -1.7659 203.263 1.6103 209.229L44.7375 285.431C46.3685 288.314 49.0328 290.391 52.2385 291.279C53.3475 291.587 54.4731 291.739 55.5916 291.739C57.7073 291.739 59.7946 291.194 61.6801 290.127L76.3495 281.825C82.3148 278.448 84.4216 270.848 81.0454 264.882L77.2277 258.137L85.9786 253.085L152.904 271.018C156.695 272.034 160.415 272.541 164.056 272.541C171.315 272.541 178.255 270.524 184.786 266.504L279.666 208.081C288.357 202.729 291.116 189.247 285.454 179.793C284.82 178.736 283.731 177.197 282.069 175.668V175.668ZM80.943 13.838C80.2376 13.838 79.6636 13.2639 79.6636 12.5585C79.6636 11.8531 80.2376 11.2791 80.943 11.2791H94.681C98.5253 11.2791 101.716 13.7983 102.621 17.548L109.16 44.6351C109.673 46.7608 111.575 48.2587 113.762 48.2587H235.248C235.954 48.2587 236.528 48.8327 236.528 49.5381C236.528 49.7027 236.499 49.8613 236.44 50.0086C236.394 50.1252 236.352 50.243 236.315 50.3637L218.67 107.57C216.329 115.161 209.43 120.26 201.504 120.26H125.812C117.442 120.26 110.633 127.069 110.633 135.439C110.633 143.809 117.442 150.618 125.812 150.618H211.714C212.42 150.618 212.994 151.193 212.994 151.898C212.994 152.604 212.42 153.178 211.714 153.178H125.812C116.031 153.178 108.073 145.22 108.073 135.439C108.073 127.889 112.883 121.15 120.041 118.668C122.345 117.87 123.665 115.453 123.093 113.084L100.173 18.1469C99.5527 15.5702 97.3453 13.838 94.6804 13.838H80.943ZM55.7455 123.629C55.7455 90.1597 69.9966 59.1383 95.0846 37.4158L112.961 111.467C104.228 116.157 98.6046 125.322 98.6046 135.439C98.6046 150.442 110.81 162.647 125.812 162.647H211.714C217.641 162.647 222.462 157.826 222.462 151.899C222.462 145.971 217.641 141.15 211.714 141.15H125.812C122.717 141.15 120.102 138.535 120.102 135.44C120.102 132.345 122.717 129.73 125.812 129.73H201.505C213.611 129.73 224.145 121.946 227.719 110.361L245.316 53.3079C245.769 52.1018 245.998 50.8342 245.998 49.5381C245.998 43.6113 241.176 38.7899 235.249 38.7899H117.489L113.946 24.1128C130.964 14.5262 150.234 9.46934 169.906 9.46934C232.854 9.46934 284.065 60.6811 284.065 123.629C284.065 140.253 280.583 156.212 273.726 171.139C266.847 169.313 256.589 170.225 241.703 178.894L189.421 209.346C186.879 210.826 184.294 211.884 181.602 212.53C182.579 210.918 183.349 209.105 183.884 207.108C186.571 197.084 180.614 186.618 170.324 183.282C170.121 183.217 169.914 183.165 169.704 183.126C154.685 180.418 139.858 175.057 127.944 170.75C123.805 169.253 119.895 167.84 116.569 166.761C103.147 162.406 91.0243 167.792 80.9348 173.634L70.4546 179.701C60.8208 162.645 55.7455 143.358 55.7455 123.629V123.629ZM71.685 273.585L57.0155 281.887C56.3344 282.272 55.5366 282.368 54.7673 282.155C53.9991 281.942 53.3635 281.45 52.9777 280.767L9.85048 204.565C9.05925 203.167 9.57175 201.318 10.9696 200.527L25.639 192.225C26.0829 191.974 26.5758 191.846 27.0783 191.846C27.3475 191.846 27.6198 191.882 27.8879 191.957C28.6566 192.17 29.2922 192.662 29.6775 193.344V193.345L72.8046 269.547C73.5959 270.944 73.0828 272.794 71.685 273.585V273.585ZM274.701 200.018L179.822 258.441C172.32 263.059 164.088 264.212 155.355 261.872L86.5355 243.432C85.3206 243.107 84.0299 243.277 82.9427 243.906L72.5638 249.897L46.7845 204.347L85.6792 181.828C94.3804 176.792 103.791 172.57 113.648 175.768C116.824 176.799 120.486 178.123 124.725 179.655C136.885 184.052 151.998 189.515 167.682 192.383C173.094 194.277 176.119 199.505 174.739 204.658C172.922 211.435 167.273 212.28 162.771 211.764C155.075 210.182 147.76 208.094 140.021 205.884C136.348 204.835 132.549 203.75 128.644 202.704C126.119 202.029 123.523 203.527 122.846 206.052C122.169 208.578 123.668 211.173 126.194 211.85C130.024 212.876 133.784 213.95 137.421 214.989C145.402 217.268 152.94 219.421 161.058 221.081C161.089 221.087 161.214 221.11 161.246 221.115L167.748 222.172C177.494 223.732 186.143 222.212 194.185 217.529L246.468 187.077C261.467 178.34 273.004 177.437 277.33 184.659C280.309 189.631 278.982 197.382 274.701 200.018V200.018ZM30.4314 207.889C30.8498 210.751 28.8685 213.41 26.0065 213.829C23.1446 214.248 20.4851 212.266 20.0667 209.404C19.6483 206.542 21.6296 203.882 24.4915 203.464C27.3535 203.046 30.013 205.027 30.4314 207.889V207.889Z" fill="#FFC947"/>
</svg>
