<svg width="261" height="279" viewBox="0 0 261 279" fill="none" xmlns="http://www.w3.org/2000/svg">
<path d="M258.108 121.542C256.688 120.708 254.934 120.687 253.495 121.486L240.698 128.596L237.15 4.5198C237.08 2.00241 235.018 -0.00116199 232.5 5.05618e-07H199.95C197.432 -0.00116199 195.37 2.00241 195.3 4.5198L190.966 156.24L176.7 164.145V125.55C176.699 122.982 174.616 120.901 172.048 120.902C171.26 120.903 170.484 121.103 169.795 121.486L93 164.145V125.55C92.9988 122.982 90.9156 120.901 88.3477 120.902C87.5595 120.903 86.7841 121.103 86.0947 121.486L2.39475 167.986C0.917794 168.805 0.00058125 170.361 0 172.05V274.35C0 276.918 2.08204 279 4.65 279H255.75C258.318 279 260.4 276.918 260.4 274.35V125.55C260.4 123.902 259.528 122.377 258.108 121.542ZM204.47 9.3H227.98L228.25 18.6H204.205L204.47 9.3ZM203.935 27.9H228.515L231.537 133.683L200.415 150.967L203.935 27.9ZM125.55 269.7H97.65V246.45H125.55V269.7ZM162.75 269.7H134.85V246.45H162.75V269.7ZM251.1 269.7H172.05V241.8C172.05 239.232 169.968 237.15 167.4 237.15H93C90.432 237.15 88.35 239.232 88.35 241.8V269.7H9.3V174.789L83.7 133.455V172.05C83.7012 174.618 85.7844 176.699 88.3523 176.698C89.1405 176.697 89.9159 176.497 90.6053 176.114L167.4 133.455V172.05C167.401 174.618 169.484 176.699 172.052 176.698C172.841 176.697 173.616 176.497 174.305 176.114L218.159 151.753L238.545 140.43L251.1 133.455V269.7Z" fill="#FFC947"/>
<path d="M65.1 186H27.9C25.332 186 23.25 188.082 23.25 190.65V209.25C23.25 211.818 25.332 213.9 27.9 213.9H65.1C67.668 213.9 69.75 211.818 69.75 209.25V190.65C69.75 188.082 67.668 186 65.1 186ZM60.45 204.6H32.55V195.3H60.45V204.6Z" fill="#FFC947"/>
<path d="M148.8 186H111.6C109.032 186 106.95 188.082 106.95 190.65V209.25C106.95 211.818 109.032 213.9 111.6 213.9H148.8C151.368 213.9 153.45 211.818 153.45 209.25V190.65C153.45 188.082 151.368 186 148.8 186ZM144.15 204.6H116.25V195.3H144.15V204.6Z" fill="#FFC947"/>
<path d="M232.5 186H195.3C192.732 186 190.65 188.082 190.65 190.65V209.25C190.65 211.818 192.732 213.9 195.3 213.9H232.5C235.068 213.9 237.15 211.818 237.15 209.25V190.65C237.15 188.082 235.068 186 232.5 186ZM227.85 204.6H199.95V195.3H227.85V204.6Z" fill="#FFC947"/>
</svg>
