<svg width="284" height="284" viewBox="0 0 284 284" fill="none" xmlns="http://www.w3.org/2000/svg">
<path d="M200.023 140.091C199.357 137.28 197.293 135.02 194.555 134.111L153.733 120.501L182.725 62.5189C184.545 58.8707 183.456 54.4343 180.149 52.0453C176.826 49.6646 172.275 50.0223 169.399 52.9145L86.1957 136.118C84.1561 138.157 83.3191 141.106 83.9775 143.91C84.6437 146.721 86.7077 148.98 89.4456 149.89L130.267 163.5L101.276 221.482C99.456 225.13 100.545 229.566 103.852 231.955C107.164 234.329 111.705 233.982 114.602 231.086L197.805 147.883C199.844 145.843 200.682 142.894 200.023 140.091Z" fill="#FFC947"/>
<path d="M142 0C99.7716 0 59.8846 19.6393 33.2812 51.3247V42.1562C33.2812 37.5573 29.5599 33.8359 24.9609 33.8359C20.362 33.8359 16.6406 37.5573 16.6406 42.1562V77.5015C16.6406 85.4418 26.8968 86.5784 24.9609 85.8218C25.1318 85.8218 25.3021 85.8135 25.4729 85.8057L58.7542 83.7417C63.3448 83.4572 66.831 79.5083 66.5464 74.9255C66.2619 70.3427 62.2565 66.8898 57.7302 67.1333L40.871 68.1816C64.2234 36.4158 102.007 16.6406 142 16.6406C210.821 16.6406 267.359 73.1788 267.359 142C267.359 146.599 271.081 150.32 275.68 150.32C280.279 150.32 284 146.599 284 142C284 64.0054 219.995 0 142 0Z" fill="#FFC947"/>
<path d="M258.527 198.194L225.246 200.258C220.655 200.543 217.169 204.492 217.454 209.074C217.738 213.657 221.833 217.151 226.27 216.867L243.129 215.818C219.777 247.584 181.993 267.359 142 267.359C73.1788 267.359 16.6406 210.821 16.6406 142C16.6406 137.401 12.9192 133.68 8.32031 133.68C3.7214 133.68 0 137.401 0 142C0 219.995 64.0054 284 142 284C184.228 284 224.115 264.361 250.719 232.675V241.844C250.719 246.443 254.44 250.164 259.039 250.164C263.638 250.164 267.359 246.443 267.359 241.844V206.499C267.359 201.928 262.977 197.944 258.527 198.194Z" fill="#FFC947"/>
</svg>
