<svg width="124" height="124" viewBox="0 0 124 124" fill="none" xmlns="http://www.w3.org/2000/svg">
<path d="M26.8625 0C12.049 0 0 12.053 0 26.8665C0 37.0851 6.5093 47.6143 12.8278 55.7757C19.1463 63.9372 25.474 69.7377 25.474 69.7377C26.2642 70.4618 27.477 70.4618 28.2673 69.7377C28.2673 69.7377 34.5788 63.9372 40.8973 55.7757C47.2158 47.6143 53.7292 37.0851 53.7292 26.8665C53.7291 12.053 41.676 0 26.8625 0ZM26.8625 4.13744C39.4422 4.13744 49.5958 14.2868 49.5958 26.8665C49.5958 35.2481 43.7173 45.3897 37.6358 53.2449C32.2538 60.1969 28.0453 64.0475 26.8787 65.1442C25.7168 64.052 21.495 60.2013 16.1094 53.2449C10.0279 45.3897 4.13327 35.248 4.13327 26.8665C4.13327 14.2868 14.2828 4.13744 26.8625 4.13744V4.13744ZM26.8625 12.404C18.8973 12.404 12.4 18.9014 12.4 26.8665C12.4 34.8319 18.8973 41.3453 26.8625 41.3453C34.8277 41.3453 41.3251 34.8319 41.3251 26.8665C41.3251 18.9014 34.8277 12.404 26.8625 12.404V12.404ZM26.8625 16.5414C32.5939 16.5414 37.208 21.1352 37.208 26.8665C37.208 32.5979 32.5939 37.2119 26.8625 37.2119C21.1311 37.2119 16.5332 32.5979 16.5332 26.8665C16.5332 21.1352 21.1311 16.5414 26.8625 16.5414V16.5414ZM59.9372 37.2119H80.5958C81.7764 37.2119 82.6705 38.0899 82.6705 39.2705V92.9998C82.608 95.8179 86.8671 95.8179 86.8038 92.9998V53.7495H111.596C113.006 53.7495 113.401 55.1924 113.763 56.4014L119.866 76.7854V99.2118H111.362C108.751 96.6592 105.191 95.0746 101.266 95.0746C97.3423 95.0746 93.7814 96.6592 91.1712 99.2118H53.6283C50.872 99.2118 50.872 103.345 53.6283 103.345H88.2206C87.3222 105.226 86.8038 107.324 86.8038 109.541C86.8038 117.506 93.3012 124 101.266 124C108.525 124 114.545 118.601 115.559 111.616H121.937C123.079 111.612 124.004 110.683 124 109.541C124 98.5204 124 87.4995 124 76.4786C123.998 76.2771 123.968 76.0778 123.907 75.8849L117.531 54.5579C116.488 51.0695 114.138 49.6119 111.596 49.6119H86.8037V39.2703C86.8037 35.8712 83.9947 33.0745 80.5957 33.0745H59.8301C56.965 33.2167 57.1788 37.3543 59.9371 37.2117L59.9372 37.2119ZM92.9998 57.8665C91.8631 57.8686 90.9417 58.7886 90.9371 59.9253V72.3453C90.9413 73.4818 91.8631 74.4015 92.9998 74.4038H98.336L101.876 77.9277C102.259 78.3136 102.781 78.5331 103.325 78.537H113.287C114.669 78.5391 115.664 77.2107 115.273 75.8851L110.312 59.3477C110.053 58.4694 109.246 57.8664 108.33 57.8662L92.9998 57.8665ZM10.2969 59.9129C9.16192 59.9363 8.25545 60.8648 8.26662 61.9999V109.541C8.26249 110.683 9.18348 111.612 10.3252 111.616H20.8361C21.8507 118.601 27.8747 124 35.1332 124C42.3917 124 48.4115 118.601 49.4263 111.616H80.5958C83.352 111.616 83.352 107.479 80.5958 107.479H49.4303C48.4227 100.486 42.3974 95.0746 35.1332 95.0746C31.2089 95.0746 27.6442 96.659 25.034 99.2118H12.4V61.9999C12.4156 60.8363 11.4604 59.8925 10.2969 59.9129V59.9129ZM95.0745 61.9999H106.788L110.51 74.4038H104.197L100.657 70.88C100.273 70.4941 99.7523 70.2746 99.2078 70.2707H95.0745V61.9999ZM92.9998 82.6747C90.3054 82.7372 90.3054 86.7475 92.9998 86.8081H97.1331C99.8275 86.7456 99.8275 82.7351 97.1331 82.6747H92.9998ZM35.1332 99.2118C40.8646 99.2118 45.4584 103.81 45.4584 109.541C45.4584 115.273 40.8646 119.866 35.1332 119.866C29.4019 119.866 24.8039 115.273 24.8039 109.541C24.8039 103.81 29.4019 99.2118 35.1332 99.2118ZM101.266 99.2118C106.998 99.2118 111.596 103.81 111.596 109.541C111.596 115.273 106.998 119.866 101.266 119.866C95.535 119.866 90.9371 115.273 90.9371 109.541C90.9371 103.81 95.535 99.2118 101.266 99.2118ZM12.4 103.345H22.0874C21.4727 104.632 21.0424 106.019 20.8321 107.479H12.4V103.345ZM35.1332 103.345C31.7336 103.345 28.9374 106.142 28.9373 109.541C28.9373 112.941 31.7335 115.749 35.1332 115.749C38.5329 115.749 41.3253 112.941 41.3251 109.541C41.3251 106.141 38.5329 103.345 35.1332 103.345ZM101.266 103.345C97.8668 103.345 95.0746 106.142 95.0745 109.541C95.0745 112.941 97.8668 115.749 101.266 115.749C104.666 115.749 107.458 112.941 107.458 109.541C107.458 106.141 104.666 103.345 101.266 103.345ZM114.312 103.345H119.862V107.479H115.564C115.353 106.019 114.927 104.632 114.312 103.345ZM35.1332 107.479C36.2991 107.479 37.208 108.375 37.208 109.541C37.208 110.707 36.2992 111.616 35.1332 111.616C33.9675 111.616 33.0746 110.707 33.0746 109.541C33.0747 108.375 33.9675 107.479 35.1332 107.479ZM101.266 107.479C102.432 107.479 103.325 108.375 103.325 109.541C103.325 110.707 102.432 111.616 101.266 111.616C100.101 111.616 99.2078 110.707 99.2078 109.541C99.2078 108.375 100.101 107.479 101.266 107.479Z" fill="#FFC947"/>
</svg>
