<svg width="122" height="122" viewBox="0 0 122 122" fill="none" xmlns="http://www.w3.org/2000/svg">
<path d="M112.762 33.4066C111.578 33.9799 111.082 35.4048 111.655 36.5893C115.357 44.2398 117.234 52.4524 117.234 61C117.234 92.0078 92.0078 117.234 61 117.234C48.8455 117.234 36.9484 113.241 27.2494 105.949C28.5161 103.292 28.0524 100.01 25.8552 97.8128C23.068 95.0259 18.533 95.0259 15.7456 97.8128C12.9584 100.6 12.9584 105.135 15.7456 107.922C17.9018 110.079 21.1503 110.596 23.8362 109.339C34.4564 117.514 47.5833 122 61 122C94.6355 122 122 94.6355 122 61C122 51.7275 119.963 42.8163 115.945 34.5136C115.372 33.3291 113.947 32.8335 112.762 33.4066Z" fill="#FFC947"/>
<path d="M8.63769 87.4411C9.83482 86.8945 10.3619 85.4808 9.81504 84.2839C6.46433 76.9489 4.76562 69.1149 4.76562 61C4.76562 29.9922 29.9922 4.76562 61 4.76562C72.9636 4.76562 84.2834 8.44159 93.9002 15.4199C92.2287 18.1701 92.5785 21.8127 94.9532 24.1875C97.7406 26.9746 102.275 26.9746 105.063 24.1875C107.85 21.4003 107.85 16.8653 105.063 14.0779C103.09 12.1056 100.243 11.5311 97.7594 12.3499C87.1785 4.33362 74.3592 0 61 0C27.3645 0 0 27.3645 0 61C0 69.8031 1.84382 78.303 5.48023 86.2638C6.02423 87.4549 7.43485 87.9906 8.63769 87.4411V87.4411Z" fill="#FFC947"/>
<path d="M61 15.7266C37.6947 15.7266 15.7266 34.2377 15.7266 61C15.7266 85.7886 35.8611 106.273 61 106.273C86.1339 106.273 106.273 85.801 106.273 61C106.273 36.2114 86.1389 15.7266 61 15.7266ZM48.2462 22.5509C43.3222 28.4043 40.3422 36.7585 38.8 44.3203H24.0874C28.7262 34.0954 37.4926 26.1273 48.2462 22.5509ZM20.4922 61C20.4922 56.8553 21.1191 52.8544 22.2812 49.0859L37.9837 49.0836C37.4485 52.9189 37.1719 56.9206 37.1719 61C37.1719 65.0794 37.4485 69.0787 37.9837 72.9141H22.2812C21.1191 69.1456 20.4922 65.1447 20.4922 61V61ZM24.0876 77.6797H38.8003C40.342 85.2399 43.3217 93.595 48.2465 99.4491C37.4926 95.8727 28.7262 87.9046 24.0876 77.6797ZM58.6172 101.177C52.0597 99.3487 46.4236 90.1092 43.6936 77.6797H58.6172V101.177ZM58.6172 72.9141H42.8146C42.2456 69.1299 41.9375 65.1251 41.9375 61C41.9375 56.8749 42.2458 52.8701 42.8146 49.0859H58.6172V72.9141ZM58.6172 44.3203H43.6936C46.4236 31.8906 52.0597 22.6513 58.6172 20.8232V44.3203ZM63.3828 20.8232C69.9403 22.6513 75.5764 31.8908 78.3064 44.3203H63.3828V20.8232ZM63.3828 49.0859H79.1854C79.7544 52.8701 80.0625 56.8749 80.0625 61C80.0625 65.1251 79.7542 69.1299 79.1854 72.9141H63.3828V49.0859ZM63.3828 101.177V77.6773L78.3064 77.6797C75.5764 90.1094 69.9403 99.3487 63.3828 101.177ZM73.7538 99.4491C78.68 93.5933 81.659 85.2368 83.1999 77.6773H97.9126C93.2738 87.9046 84.5074 95.8727 73.7538 99.4491ZM101.508 61C101.508 65.1447 100.881 69.1456 99.7188 72.9141H84.0163C84.5515 69.0787 84.8281 65.0794 84.8281 61C84.8281 56.9206 84.5515 52.9213 84.0163 49.0859H99.7188C100.881 52.8544 101.508 56.8553 101.508 61ZM83.1997 44.3203C81.658 36.7601 78.6783 28.405 73.7535 22.5509C84.5072 26.1273 93.2738 34.0954 97.9121 44.3203H83.1997Z" fill="#FFC947"/>
</svg>
