<svg width="120" height="120" viewBox="0 0 120 120" fill="none" xmlns="http://www.w3.org/2000/svg">
<path d="M26.5274 0.927399C12.4158 0.927399 0.937574 12.4094 0.9375 26.5211C0.937426 36.2555 7.13849 46.2859 13.1576 54.0606C19.1768 61.8354 25.2047 67.3611 25.2047 67.3611C25.5678 67.694 26.0425 67.8786 26.5351 67.8786C27.0277 67.8786 27.5024 67.694 27.8655 67.3611C27.8655 67.3611 33.8781 61.8354 39.8972 54.0606C45.9165 46.2859 52.1212 36.2554 52.1212 26.5211C52.1212 12.4094 40.6391 0.927399 26.5274 0.927399V0.927399ZM26.5274 12.7437C34.1153 12.7437 40.3048 18.9333 40.3048 26.5211C40.3048 34.109 34.1153 40.3139 26.5274 40.3139C18.9396 40.3139 12.75 34.109 12.75 26.5211C12.75 18.9333 18.9396 12.7437 26.5274 12.7437V12.7437ZM55.455 32.4313C53.6676 41.5375 48.1376 49.8497 43.008 56.4754C36.7642 64.5404 30.5264 70.2682 30.5264 70.2682C28.2947 72.312 24.7793 72.312 22.5476 70.2682C22.5476 70.2682 16.2926 64.5428 10.0468 56.4754C9.63902 55.9486 9.22716 55.3847 8.81635 54.8375V91.4938H23.3282C26.3707 89.0373 30.2271 87.5524 34.4101 87.5524C38.5931 87.5524 42.4456 89.0373 45.4881 91.4938H79.6952V38.3451C79.6952 35.1071 77.0154 32.4313 73.7774 32.4313H55.455ZM85.5937 48.1813C84.5117 48.1852 83.6365 49.0643 83.6327 50.1462V91.4938H86.3282C89.3708 89.0373 93.2271 87.5524 97.4101 87.5524C101.593 87.5524 105.446 89.0373 108.488 91.4938H119.063V73.775C119.061 73.583 119.033 73.3934 118.978 73.2096L113.118 53.6757C112.833 52.3468 112.281 51.0404 111.318 49.9843C110.355 48.9282 108.88 48.1811 107.246 48.1811L85.5937 48.1813ZM89.5313 56.0446H104.139C105.012 56.0448 105.78 56.6192 106.027 57.4559L110.749 73.2098C111.125 74.4724 110.178 75.7404 108.861 75.7399H99.3712C98.8488 75.7439 98.3468 75.5382 97.9753 75.1706L94.6185 71.7985H89.5313C88.444 71.8024 87.5592 70.9247 87.5548 69.8374V58.0211C87.5509 56.9278 88.438 56.0404 89.5313 56.0446V56.0446ZM89.5313 79.6775H93.4726C96.155 79.6179 96.155 83.6728 93.4726 83.6148H89.5313C86.8489 83.6743 86.8489 79.6196 89.5313 79.6775ZM34.4101 91.4938C26.8222 91.4938 20.6327 97.6795 20.6327 105.267C20.6327 112.855 26.8222 119.06 34.4101 119.06C41.9979 119.06 48.1836 112.855 48.1836 105.267C48.1836 97.6795 41.9979 91.4938 34.4101 91.4938ZM97.4101 91.4938C89.8223 91.4938 83.6327 97.6795 83.6327 105.267C83.6327 112.855 89.8223 119.06 97.4101 119.06C104.998 119.06 111.188 112.855 111.188 105.267C111.188 97.6795 104.998 91.4938 97.4101 91.4938ZM8.81635 95.4313V105.267C8.81241 106.355 9.68976 107.24 10.7774 107.244H16.8144C16.74 106.594 16.6991 105.936 16.6991 105.267C16.6991 101.632 17.8032 98.2483 19.6944 95.4313H8.81635ZM49.1219 95.4313C51.0131 98.2483 52.1173 101.632 52.1173 105.267C52.1173 105.935 52.0726 106.594 52.002 107.244H79.8182C79.7438 106.594 79.6992 105.936 79.6992 105.267C79.6992 101.632 80.8033 98.2483 82.6946 95.4313H49.1219ZM112.122 95.4313C114.013 98.2483 115.121 101.632 115.121 105.267C115.121 105.935 115.077 106.594 115.002 107.244H117.086C118.18 107.248 119.067 106.361 119.063 105.267V95.4313H112.122ZM34.4101 99.3687C37.6487 99.3687 40.3087 102.029 40.3087 105.267C40.3087 108.506 37.6487 111.185 34.4101 111.185C31.1715 111.185 28.4923 108.506 28.4923 105.267C28.4924 102.029 31.1715 99.3687 34.4101 99.3687ZM97.4101 99.3687C100.649 99.3687 103.309 102.029 103.309 105.267C103.309 108.506 100.649 111.185 97.4101 111.185C94.1714 111.185 91.4923 108.506 91.4923 105.267C91.4924 102.029 94.1716 99.3687 97.4101 99.3687Z" fill="#FFC947"/>
</svg>
