<svg width="118" height="111" viewBox="0 0 118 111" fill="none" xmlns="http://www.w3.org/2000/svg">
<path d="M31.5742 82.9688H96.4758L106.35 44.8838C113.329 40.6337 118 32.9517 118 24.1992C118 10.8558 107.144 0 93.8008 0C80.4573 0 69.6016 10.8558 69.6016 24.1992C69.6016 27.9086 70.4416 31.4253 71.9397 34.5703H32.0425L27.4332 13.8281H0V20.7422H21.8872L34.1787 76.0547H31.5742C25.8556 76.0547 21.2031 80.7072 21.2031 86.4258C21.2031 92.1444 25.8556 96.7969 31.5742 96.7969H35.6259C35.2421 97.8789 35.0312 99.0421 35.0312 100.254C35.0312 105.973 39.6837 110.625 45.4023 110.625C51.121 110.625 55.7734 105.973 55.7734 100.254C55.7734 99.0421 55.5626 97.8789 55.1788 96.7969H70.1962C69.8124 97.8789 69.6016 99.0421 69.6016 100.254C69.6016 105.973 74.254 110.625 79.9727 110.625C85.6913 110.625 90.3438 105.973 90.3438 100.254C90.3438 99.0421 90.1329 97.8789 89.7491 96.7969H97.2578V89.8828H31.5742C29.668 89.8828 28.1172 88.332 28.1172 86.4258C28.1172 84.5196 29.668 82.9688 31.5742 82.9688V82.9688ZM41.2613 76.0547L38.1884 62.2266H52.5925L53.7449 76.0547H41.2613ZM72.7585 62.2266L71.6062 76.0547H60.6829L59.5305 62.2266H72.7585ZM58.9544 55.3125L57.802 41.4844H74.487L73.3347 55.3125H58.9544ZM78.5442 76.0547L79.6966 62.2266H94.7107L91.1255 76.0547H78.5442ZM96.5033 55.3125H80.2727L81.1474 44.8183C84.8314 47.0875 89.1656 48.3984 93.8008 48.3984C95.377 48.3984 96.9176 48.2452 98.4106 47.9562L96.5033 55.3125ZM93.8008 6.91406C103.332 6.91406 111.086 14.6682 111.086 24.1992C111.086 33.7303 103.332 41.4844 93.8008 41.4844C84.2697 41.4844 76.5156 33.7303 76.5156 24.1992C76.5156 14.6682 84.2697 6.91406 93.8008 6.91406ZM50.864 41.4844L52.0163 55.3125H36.6519L33.5791 41.4844H50.864ZM48.8594 100.254C48.8594 102.16 47.3086 103.711 45.4023 103.711C43.4961 103.711 41.9453 102.16 41.9453 100.254C41.9453 98.3477 43.4961 96.7969 45.4023 96.7969C47.3086 96.7969 48.8594 98.3477 48.8594 100.254ZM83.4297 100.254C83.4297 102.16 81.8789 103.711 79.9727 103.711C78.0664 103.711 76.5156 102.16 76.5156 100.254C76.5156 98.3477 78.0664 96.7969 79.9727 96.7969C81.8789 96.7969 83.4297 98.3477 83.4297 100.254Z" fill="#FFC947"/>
<path d="M90.3438 34.5703H97.2578V27.6562H104.172V20.7422H97.2578V13.8281H90.3438V20.7422H83.4297V27.6562H90.3438V34.5703Z" fill="#FFC947"/>
</svg>
