<svg width="264" height="304" viewBox="0 0 264 304" fill="none" xmlns="http://www.w3.org/2000/svg">
<path d="M128.625 53.8238C128.625 37.03 132 23.4258 132 23.4258C132 23.4258 135.374 37.03 135.374 53.8238C135.374 57.3829 135.199 60.7475 134.956 63.9176C139.585 58.5887 148.025 47.046 148.025 33.5584C148.025 15.024 132 0 132 0C132 0 115.984 15.024 115.984 33.5584C115.984 47.0363 124.425 58.579 129.034 63.9176C128.8 60.7475 128.625 57.3829 128.625 53.8238Z" fill="#FFC947"/>
<path d="M135.384 250.176C135.384 266.98 132.01 280.584 132.01 280.584C132.01 280.584 128.635 266.98 128.635 250.176C128.635 246.627 128.801 243.253 129.044 240.092C124.425 245.411 115.994 256.954 115.994 270.442C115.994 288.976 132.01 304 132.01 304C132.01 304 148.035 288.976 148.035 270.442C148.035 256.964 139.585 245.431 134.966 240.092C135.209 243.253 135.384 246.617 135.384 250.176Z" fill="#FFC947"/>
<path d="M86.3347 76.6564C85.2067 74.9935 84.0495 73.2043 82.9118 71.24C77.5926 62.0311 75.1421 53.5029 75.1421 53.5029C75.1421 53.5029 81.2976 59.9015 86.6265 69.1006C87.7448 71.0552 88.7172 72.9514 89.5924 74.7699C90.4384 70.3745 91.4108 61.3698 87.1516 53.9794C81.2684 43.8078 67.7225 40.6377 67.7225 40.6377C67.7225 40.6377 63.6869 53.9599 69.5507 64.1218C73.8196 71.5317 82.1144 75.188 86.3347 76.6564Z" fill="#FFC947"/>
<path d="M177.675 227.353C178.812 229.016 179.95 230.796 181.098 232.779C186.417 241.979 188.887 250.507 188.887 250.507C188.887 250.507 182.692 244.118 177.393 234.909C176.255 232.954 175.282 231.058 174.407 229.23C173.571 233.635 172.599 242.64 176.877 250.021C182.751 260.192 196.306 263.362 196.306 263.362C196.306 263.362 200.332 250.04 194.449 239.878C190.17 232.468 181.895 228.802 177.675 227.353Z" fill="#FFC947"/>
<path d="M43.9078 150.123C40.5238 147.196 33.2014 141.858 24.6732 141.848C12.9263 141.848 3.40625 151.99 3.40625 151.99C3.40625 151.99 12.9263 162.142 24.6635 162.142C33.2111 162.142 40.5238 156.804 43.9078 153.877C41.8949 154.023 39.7653 154.12 37.5093 154.12C26.8709 154.12 18.2552 151.981 18.2552 151.981C18.2552 151.981 26.8806 149.841 37.5093 149.841C39.775 149.861 41.8949 149.968 43.9078 150.123Z" fill="#FFC947"/>
<path d="M220.082 153.877C223.466 156.804 230.779 162.142 239.307 162.142C251.064 162.142 260.584 152 260.584 152C260.584 152 251.064 141.858 239.307 141.858C230.779 141.858 223.466 147.196 220.082 150.123C222.095 149.968 224.225 149.88 226.461 149.88C237.119 149.88 245.735 152.019 245.735 152.019C245.735 152.019 237.109 154.178 226.461 154.159C224.225 154.139 222.095 154.032 220.082 153.877Z" fill="#FFC947"/>
<path d="M86.6068 234.88C81.2974 244.079 75.1225 250.478 75.1225 250.478C75.1225 250.478 77.5827 241.95 82.8922 232.731C84.0396 230.786 85.1968 228.987 86.3345 227.324C82.1045 228.783 73.8194 232.449 69.5407 239.849C63.6673 250.021 67.6931 263.333 67.6931 263.333C67.6931 263.333 81.2488 260.163 87.1222 250.011C91.3912 242.611 90.4187 233.596 89.5824 229.201C88.717 231.029 87.7446 232.925 86.6068 234.88Z" fill="#FFC947"/>
<path d="M177.393 69.1104C182.712 59.9015 188.887 53.4932 188.887 53.4932C188.887 53.4932 186.436 62.0408 181.098 71.2497C179.999 73.2043 178.822 74.9936 177.675 76.6564C181.914 75.1978 190.19 71.5317 194.449 64.1413C200.332 53.9794 196.306 40.6475 196.306 40.6475C196.306 40.6475 182.741 43.8273 176.877 53.9892C172.608 61.3893 173.571 70.3843 174.427 74.7796C175.302 72.9515 176.274 71.0552 177.393 69.1104Z" fill="#FFC947"/>
<path d="M37.4217 78.9026C21.3864 69.6354 0.352783 75.9951 0.352783 75.9951C0.352783 75.9951 5.36078 97.3885 21.4058 106.656C33.0944 113.395 47.3015 111.858 54.2252 110.526C51.3566 109.145 48.3518 107.609 45.2789 105.839C30.7314 97.4371 20.6376 87.7128 20.6376 87.7128C20.6376 87.7128 34.1154 91.5928 48.6532 99.9946C51.7261 101.774 54.5558 103.612 57.1814 105.401C54.8865 98.7207 49.12 85.6416 37.4217 78.9026Z" fill="#FFC947"/>
<path d="M242.594 197.354C230.896 190.615 216.708 192.142 209.774 193.484C212.624 194.874 215.648 196.391 218.701 198.171C233.249 206.563 243.352 216.287 243.352 216.287C243.352 216.287 229.884 212.417 215.337 204.015C212.264 202.236 209.434 200.407 206.809 198.608C209.104 205.289 214.899 218.349 226.578 225.097C242.623 234.355 263.637 228.005 263.637 228.005C263.637 228.005 258.619 206.611 242.594 197.354Z" fill="#FFC947"/>
<path d="M20.6376 216.287C20.6376 216.287 30.7411 206.543 45.2789 198.151C48.3615 196.382 51.3566 194.855 54.2349 193.464C47.3113 192.132 33.0847 190.596 21.4155 197.344C5.36078 206.602 0.352783 227.985 0.352783 227.985C0.352783 227.985 21.3766 234.335 37.4217 225.078C49.1103 218.339 54.8865 205.25 57.1911 198.589C54.5558 200.388 51.7358 202.206 48.6727 203.996C34.1154 212.397 20.6376 216.287 20.6376 216.287Z" fill="#FFC947"/>
<path d="M243.352 87.7031C243.352 87.7031 233.249 97.4274 218.721 105.829C215.648 107.609 212.643 109.145 209.774 110.516C216.708 111.858 230.915 113.385 242.574 106.646C258.639 97.369 263.637 75.9951 263.637 75.9951C263.637 75.9951 242.633 69.6452 226.578 78.9027C214.88 85.6513 209.123 98.7207 206.809 105.382C209.434 103.602 212.264 101.764 215.337 99.9946C229.884 91.5928 243.352 87.7031 243.352 87.7031Z" fill="#FFC947"/>
<path d="M132 144.823C132 144.823 91.9459 108.494 66.3613 111.673C115.537 137.491 132 232.799 132 232.799C132 232.799 136.833 147.167 197.639 111.673C165.14 105.732 132 144.823 132 144.823Z" fill="#FFC947"/>
<path d="M132 127.524C141.092 127.524 148.463 120.153 148.463 111.061C148.463 101.968 141.092 94.5977 132 94.5977C122.907 94.5977 115.537 101.968 115.537 111.061C115.537 120.153 122.907 127.524 132 127.524Z" fill="#FFC947"/>
</svg>
