<svg width="15" height="15" viewBox="0 0 15 15" fill="none" xmlns="http://www.w3.org/2000/svg">
<g clip-path="url(#clip0_53_27410)">
<path d="M14.831 7.31841C15.0563 7.09163 15.0563 6.72394 14.831 6.49716L10.0554 1.69017C9.56669 1.19825 9.15917 0.78803 8.79216 0.506172C8.40478 0.208667 7.99549 0 7.5 0C7.00451 0 6.59522 0.208668 6.20784 0.506172C5.84082 0.788033 5.43331 1.19824 4.94462 1.69018L0.168977 6.49716C-0.0563256 6.72394 -0.0563256 7.09163 0.168977 7.31841C0.394279 7.54519 0.759567 7.54519 0.984869 7.31841L1.31538 6.98573V9.52764C1.31538 12.0228 3.02162 14.1897 5.43496 14.7595C6.79322 15.0802 8.20677 15.0802 9.56502 14.7595C11.9784 14.1897 13.6846 12.0228 13.6846 9.52764V6.98572L14.0151 7.31841C14.2404 7.54519 14.6057 7.54519 14.831 7.31841Z" fill="#FFC947"/>
</g>
<defs>
<clipPath id="clip0_53_27410">
<rect width="15" height="15" fill="white"/>
</clipPath>
</defs>
</svg>
