<svg width="15" height="15" viewBox="0 0 15 15" fill="none" xmlns="http://www.w3.org/2000/svg">
<g clip-path="url(#clip0_53_27414)">
<path d="M2.59224 0.126708C2.86097 0.0427965 3.13977 0 3.42047 0C4.76966 0 5.76924 1.18804 5.76923 2.53159V5.54534C5.76924 6.88888 4.76965 8.07692 3.42047 8.07692C3.13977 8.07692 2.86097 8.03413 2.59224 7.95021L2.38682 7.88607C2.31668 7.86417 2.24767 7.83988 2.17986 7.8133C3.25009 9.98675 5.01326 11.7499 7.1867 12.8201C7.16012 12.7523 7.13583 12.6833 7.11393 12.6132L7.04979 12.4078C6.96587 12.139 6.92308 11.8602 6.92308 11.5795C6.92308 10.2303 8.11112 9.23076 9.45467 9.23077H12.4684C13.812 9.23076 15 10.2303 15 11.5795C15 11.8602 14.9572 12.139 14.8733 12.4078L14.8092 12.6132C14.4355 13.8098 13.3668 14.6764 12.0883 14.9016C11.344 15.0328 10.5791 15.0328 9.83474 14.9016C9.80545 14.8965 9.77627 14.891 9.7472 14.8851C4.86904 13.9466 1.05337 10.1309 0.114851 5.25274C0.109024 5.22369 0.103529 5.19453 0.0983712 5.16526C-0.0327907 4.42092 -0.0327903 3.65601 0.0983718 2.91166C0.323646 1.63324 1.19022 0.564489 2.38682 0.19085L2.59224 0.126708Z" fill="#FFC947"/>
<path d="M8.4273 1.32594C9.90545 0.904769 11.5151 1.25705 12.629 2.37098C13.743 3.48492 14.0952 5.09455 13.6741 6.5727C13.5868 6.87913 13.7644 7.19832 14.0708 7.28563C14.3773 7.37294 14.6964 7.19531 14.7838 6.88888C15.3106 5.0398 14.8776 2.98777 13.4449 1.55509C12.0122 0.122403 9.9602 -0.310599 8.11112 0.216254C7.80469 0.303565 7.62706 0.622754 7.71437 0.929184C7.80168 1.23562 8.12087 1.41325 8.4273 1.32594Z" fill="#FFC947"/>
<path d="M9.87186 3.42279C10.2611 3.34526 10.7542 3.47599 11.1391 3.8609C11.524 4.24581 11.6547 4.73888 11.5772 5.12816C11.515 5.44065 11.7178 5.74443 12.0303 5.80667C12.3428 5.86891 12.6466 5.66604 12.7088 5.35355C12.868 4.55445 12.5887 3.67875 11.955 3.04501C11.3213 2.41127 10.4456 2.132 9.64647 2.29116C9.33398 2.35341 9.13111 2.65719 9.19336 2.96968C9.2556 3.28217 9.55937 3.48503 9.87186 3.42279Z" fill="#FFC947"/>
</g>
<defs>
<clipPath id="clip0_53_27414">
<rect width="15" height="15" fill="white"/>
</clipPath>
</defs>
</svg>
