<svg width="307" height="307" viewBox="0 0 307 307" fill="none" xmlns="http://www.w3.org/2000/svg">
<path d="M174.102 259.031L108.73 157.977V76.75C108.73 73.2177 105.866 70.354 102.334 70.354H70.3551C66.8228 70.354 63.959 73.2177 63.959 76.75V158.156L4.35667 259.479C1.50553 264.325 0.001709 269.845 0.001709 275.468C0.00110939 292.882 14.1183 306.999 31.5322 307H148C153.986 306.998 159.844 305.269 164.871 302.02C179.291 292.698 183.424 273.451 174.102 259.031ZM148 294.209H31.5322C28.1798 294.214 24.8867 293.32 21.9972 291.619C13.0774 286.37 10.1015 274.884 15.3505 265.965L75.8685 163.139C76.4465 162.156 76.7511 161.037 76.7511 159.896V83.1461H95.9386V159.896C95.938 161.128 96.2936 162.334 96.9621 163.369L163.351 265.977C165.266 268.936 166.285 272.385 166.287 275.91C166.29 286.013 158.103 294.205 148 294.209Z" fill="#FFC947"/>
<path d="M92.1329 185.946L81.1067 179.467L26.7995 271.778C26.2203 272.763 25.9151 273.885 25.9163 275.028C25.9199 278.56 28.7866 281.421 32.3189 281.416H76.7506V268.625H43.4926L92.1329 185.946Z" fill="#FFC947"/>
<path d="M291.561 147.104H191.876C177.747 147.104 166.293 158.558 166.293 172.688V275.021C166.314 292.674 180.619 306.979 198.272 307H255.834C273.487 306.979 287.792 292.674 287.813 275.021V188.127L302.485 173.461C305.373 170.567 306.996 166.646 306.998 162.558C307.004 154.028 300.092 147.109 291.561 147.104ZM293.436 164.418L276.896 180.957C275.697 182.157 275.022 183.783 275.022 185.479V275.02C275.022 285.617 266.432 294.208 255.835 294.208H198.272C187.675 294.208 179.085 285.617 179.085 275.02V172.688C179.085 165.623 184.812 159.896 191.876 159.896H291.562C292.266 159.895 292.942 160.175 293.439 160.673C294.472 161.708 294.47 163.385 293.436 164.418Z" fill="#FFC947"/>
<path d="M249.439 185.479V268.625H230.251V281.417H255.835C259.367 281.417 262.231 278.553 262.231 275.02V185.479H249.439Z" fill="#FFC947"/>
<path d="M179.084 92.6373V6.39603C179.084 2.86373 176.221 0 172.689 0H127.918C124.385 0 121.522 2.86373 121.522 6.39603V94.4541C113.716 96.8573 106.207 100.134 99.1364 104.221L105.532 115.292C113.047 110.953 121.115 107.654 129.517 105.487C132.342 104.757 134.316 102.208 134.314 99.2893V12.7915H166.293V97.7987C166.294 100.869 168.476 103.505 171.492 104.08C193.919 108.367 214.084 120.505 228.371 138.317L238.342 130.309C223.291 111.553 202.454 98.3066 179.084 92.6373Z" fill="#FFC947"/>
<path d="M271.824 89.5415C259.461 89.5415 249.439 99.564 249.439 111.927C249.439 124.29 259.461 134.312 271.824 134.312C284.187 134.312 294.209 124.289 294.209 111.927C294.209 99.564 284.187 89.5415 271.824 89.5415ZM271.824 121.521C266.525 121.521 262.23 117.226 262.23 111.927C262.23 106.629 266.525 102.334 271.824 102.334C277.123 102.334 281.418 106.629 281.418 111.927C281.418 117.226 277.123 121.521 271.824 121.521Z" fill="#FFC947"/>
<path d="M249.439 44.771C238.842 44.771 230.251 53.3616 230.251 63.9585C230.251 74.5554 238.842 83.146 249.439 83.146C260.036 83.146 268.626 74.5554 268.626 63.9585C268.626 53.3616 260.036 44.771 249.439 44.771ZM249.439 70.3539C245.906 70.3539 243.043 67.4902 243.043 63.9579C243.043 60.4256 245.906 57.5625 249.439 57.5625C252.971 57.5625 255.835 60.4262 255.835 63.9585C255.835 67.4908 252.971 70.3539 249.439 70.3539Z" fill="#FFC947"/>
<path d="M22.3864 51.1665C10.0231 51.1665 0.0012207 61.189 0.0012207 73.5517C0.0012207 85.9151 10.0231 95.9375 22.3864 95.9375C34.7498 95.9375 44.7717 85.9151 44.7717 73.5523C44.7717 61.189 34.7498 51.1665 22.3864 51.1665ZM22.3864 83.1461C17.0877 83.1461 12.7927 78.8511 12.7927 73.5523C12.7927 68.2536 17.0877 63.9586 22.3864 63.9586C27.6852 63.9586 31.9802 68.2536 31.9802 73.5523C31.9802 78.8511 27.6852 83.1461 22.3864 83.1461Z" fill="#FFC947"/>
<path d="M51.1676 6.396C40.5707 6.396 31.9801 14.9866 31.9801 25.5835C31.9801 36.1804 40.5707 44.771 51.1676 44.771C61.7645 44.771 70.3551 36.1804 70.3551 25.5835C70.3551 14.9866 61.7645 6.396 51.1676 6.396ZM51.1676 31.9789C47.6353 31.9789 44.7716 29.1152 44.7716 25.5829C44.7716 22.0512 47.6353 19.1875 51.1676 19.1875C54.6999 19.1875 57.5636 22.0512 57.5636 25.5835C57.5636 29.1158 54.6999 31.9789 51.1676 31.9789Z" fill="#FFC947"/>
<path d="M211.064 185.479H191.876V198.27H211.064V185.479Z" fill="#FFC947"/>
<path d="M204.668 211.062H191.876V223.854H204.668V211.062Z" fill="#FFC947"/>
<path d="M211.064 236.646H191.876V249.437H211.064V236.646Z" fill="#FFC947"/>
<path d="M204.668 262.229H191.876V275.02H204.668V262.229Z" fill="#FFC947"/>
<path d="M25.5841 115.125H12.7926V127.916H25.5841V115.125Z" fill="#FFC947"/>
<path d="M44.7716 147.104H31.9801V159.895H44.7716V147.104Z" fill="#FFC947"/>
<path d="M153.501 172.688H140.709V185.479H153.501V172.688Z" fill="#FFC947"/>
<path d="M140.709 147.104H127.918V159.895H140.709V147.104Z" fill="#FFC947"/>
<path d="M134.313 121.521H121.522V134.312H134.313V121.521Z" fill="#FFC947"/>
<path d="M140.709 262.229H127.918V275.02H140.709V262.229Z" fill="#FFC947"/>
<path d="M121.522 236.646H108.73V249.437H121.522V236.646Z" fill="#FFC947"/>
</svg>
