<svg width="303" height="303" viewBox="0 0 303 303" fill="none" xmlns="http://www.w3.org/2000/svg">
<path d="M288.461 119.098C296.891 120.679 303 128.04 303 136.617V166.383C303 174.96 296.891 182.321 288.461 183.902C283.624 184.809 278.967 181.622 278.06 176.785C277.153 171.947 280.339 167.29 285.176 166.383V136.617L262.322 132.331C258.892 131.688 256.152 129.102 255.314 125.713C252.746 115.337 248.634 105.449 243.136 96.3364C241.332 93.3476 241.44 89.5811 243.411 86.7001L256.548 67.5006L235.499 46.4524L216.3 59.5889C213.419 61.5601 209.652 61.6678 206.664 59.8644C197.551 54.3661 187.663 50.2544 177.287 47.6863C173.898 46.8477 171.312 44.1084 170.669 40.6779L166.383 17.8235H136.617L132.332 40.6779C131.688 44.1084 129.102 46.8477 125.713 47.6863C115.337 50.2544 105.449 54.3661 96.3365 59.8644C93.3477 61.6678 89.581 61.5601 86.7001 59.5889L67.5005 46.4524L46.4524 67.5006L59.5889 86.7001C61.5601 89.5811 61.6677 93.3476 59.8643 96.3364C54.3661 105.449 50.2544 115.337 47.6863 125.713C46.8477 129.102 44.1084 131.688 40.6778 132.331L17.8235 136.617V166.383L40.6778 170.669C44.1084 171.312 46.8477 173.898 47.6863 177.287C50.2544 187.663 54.3661 197.551 59.8643 206.664C61.6677 209.652 61.5601 213.419 59.5889 216.3L46.4524 235.499L67.5005 256.548L86.7001 243.411C89.581 241.44 93.3477 241.332 96.3365 243.136C105.449 248.634 115.337 252.746 125.713 255.314C129.102 256.152 131.688 258.892 132.332 262.322L136.617 285.176H166.383C167.29 280.339 171.947 277.153 176.785 278.06C181.622 278.967 184.809 283.624 183.902 288.461C182.321 296.891 174.96 303 166.383 303H136.617C128.04 303 120.679 296.891 119.098 288.461L115.842 271.092C107.613 268.642 99.681 265.349 92.1572 261.274L77.5652 271.258C70.4866 276.101 60.9622 275.216 54.8974 269.151L33.8492 248.103C27.7844 242.038 26.8992 232.513 31.7425 225.435L41.7265 210.843C37.6511 203.319 34.3578 195.387 31.9077 187.158L14.5389 183.902C6.1088 182.321 0 174.96 0 166.383V136.617C0 128.04 6.1088 120.679 14.5389 119.098L31.9077 115.842C34.3578 107.613 37.6511 99.6809 41.7265 92.1571L31.7425 77.5652C26.8992 70.4866 27.7844 60.9623 33.8492 54.8975L54.8974 33.8492C60.9622 27.7844 70.4866 26.8992 77.5652 31.7425L92.1572 41.7264C99.681 37.6511 107.613 34.3578 115.842 31.9077L119.098 14.5389C120.679 6.10882 128.04 0 136.617 0H166.383C174.96 0 182.321 6.10882 183.902 14.5389L187.158 31.9077C195.387 34.3578 203.319 37.6511 210.843 41.7264L225.435 31.7425C232.513 26.8992 242.038 27.7844 248.103 33.8492L269.151 54.8975C275.216 60.9623 276.101 70.4866 271.258 77.5652L261.274 92.1571C265.349 99.6809 268.642 107.613 271.092 115.842L288.461 119.098ZM245.074 303C213.082 303 187.147 277.065 187.147 245.074C187.147 213.082 213.082 187.147 245.074 187.147C277.065 187.147 303 213.082 303 245.074C303 277.065 277.065 303 245.074 303ZM245.074 285.176C267.222 285.176 285.176 267.222 285.176 245.074C285.176 222.925 267.222 204.971 245.074 204.971C222.925 204.971 204.971 222.925 204.971 245.074C204.971 267.222 222.925 285.176 245.074 285.176ZM231.706 253.985C224.779 253.985 220.5 246.428 224.064 240.488L237.432 218.209C239.964 213.989 245.438 212.62 249.659 215.152C253.879 217.685 255.248 223.159 252.715 227.379L247.446 236.162H258.441C265.368 236.162 269.647 243.719 266.083 249.659L252.715 271.938C250.183 276.158 244.709 277.527 240.488 274.995C236.268 272.463 234.899 266.988 237.432 262.768L242.701 253.985H231.706ZM151.5 213.882C117.047 213.882 89.1177 185.953 89.1177 151.5C89.1177 117.047 117.047 89.1177 151.5 89.1177C185.953 89.1177 213.882 117.047 213.882 151.5C213.882 185.953 185.953 213.882 151.5 213.882ZM151.5 196.059C176.109 196.059 196.059 176.109 196.059 151.5C196.059 126.891 176.109 106.941 151.5 106.941C126.891 106.941 106.941 126.891 106.941 151.5C106.941 176.109 126.891 196.059 151.5 196.059Z" fill="#FFC947"/>
</svg>
