<svg width="16" height="16" viewBox="0 0 16 16" fill="none" xmlns="http://www.w3.org/2000/svg">
<path d="M13.6569 2.34314C12.1459 0.832162 10.1369 0 8 0C5.86314 0 3.85413 0.832162 2.34314 2.34314C0.832129 3.85416 0 5.86311 0 8C0 10.1369 0.832129 12.1458 2.34314 13.6569C3.85413 15.1678 5.86314 16 8 16C9.07973 16 10.1275 15.7884 11.1142 15.3711L10.6105 14.1803C9.78405 14.5298 8.90573 14.7071 8 14.7071C4.30171 14.7071 1.29293 11.6983 1.29293 8C1.29293 4.30171 4.30171 1.29293 8 1.29293C11.6983 1.29293 14.7071 4.30171 14.7071 8C14.7071 9.55627 13.8007 10.2529 12.9024 10.2529C12.004 10.2529 11.0976 9.5563 11.0976 8C11.0976 6.29194 9.70806 4.90237 8 4.90237C6.29194 4.90237 4.90237 6.29198 4.90237 8C4.90237 9.70802 6.29194 11.0976 8 11.0976C8.92283 11.0976 9.75253 10.6918 10.3205 10.0495C10.9055 11.0372 11.9078 11.5458 12.9024 11.5458C14.4417 11.5458 16 10.3279 16 8C16 5.86311 15.1679 3.85416 13.6569 2.34314ZM8 9.8047C7.0049 9.8047 6.1953 8.9951 6.1953 8C6.1953 7.0049 7.0049 6.1953 8 6.1953C8.9951 6.1953 9.8047 7.0049 9.8047 8C9.8047 8.9951 8.9951 9.8047 8 9.8047Z" fill="#FFC947"/>
</svg>
