<svg width="240" height="240" viewBox="0 0 240 240" fill="none" xmlns="http://www.w3.org/2000/svg">
<path d="M220 200V148C219.996 144.818 218.731 141.768 216.481 139.519C214.232 137.269 211.182 136.004 208 136H32C28.8185 136.004 25.7683 137.269 23.5186 139.519C21.269 141.768 20.0036 144.818 20 148V200H0V220C0.0036392 223.181 1.26909 226.232 3.51874 228.481C5.76839 230.731 8.81852 231.996 12 232H48.688C49.5148 234.34 51.0466 236.365 53.0725 237.798C55.0984 239.231 57.5187 240 60 240C62.4813 240 64.9016 239.231 66.9275 237.798C68.9534 236.365 70.4852 234.34 71.312 232H164.688C165.515 234.34 167.047 236.365 169.073 237.798C171.098 239.231 173.519 240 176 240C178.481 240 180.902 239.231 182.927 237.798C184.953 236.365 186.485 234.34 187.312 232H228C231.181 231.996 234.232 230.731 236.481 228.481C238.731 226.232 239.996 223.181 240 220V200H220ZM172 200V176H180V188H188V176H212V200H172ZM92 156V144H116V168H76V144H84V156H92ZM140 156V144H164V168H124V144H132V156H140ZM84 176V188H92V176H116V200H76V176H84ZM124 176H132V188H140V176H164V200H124V176ZM212 148V168H172V144H180V156H188V144H208C209.06 144.001 210.077 144.423 210.827 145.173C211.577 145.923 211.999 146.94 212 148V148ZM32 144H36V156H44V144H68V168H28V148C28.0012 146.94 28.423 145.923 29.1729 145.173C29.9228 144.423 30.9395 144.001 32 144V144ZM28 176H36V188H44V176H68V200H28V176ZM60 232C59.2089 232 58.4355 231.765 57.7777 231.326C57.1199 230.886 56.6072 230.262 56.3045 229.531C56.0017 228.8 55.9225 227.996 56.0769 227.22C56.2312 226.444 56.6122 225.731 57.1716 225.172C57.731 224.612 58.4437 224.231 59.2196 224.077C59.9956 223.923 60.7998 224.002 61.5307 224.304C62.2616 224.607 62.8864 225.12 63.3259 225.778C63.7654 226.436 64 227.209 64 228C63.9988 229.06 63.577 230.077 62.8271 230.827C62.0772 231.577 61.0605 231.999 60 232V232ZM176 232C175.209 232 174.436 231.765 173.778 231.326C173.12 230.886 172.607 230.262 172.304 229.531C172.002 228.8 171.923 227.996 172.077 227.22C172.231 226.444 172.612 225.731 173.172 225.172C173.731 224.612 174.444 224.231 175.22 224.077C175.996 223.923 176.8 224.002 177.531 224.304C178.262 224.607 178.886 225.12 179.326 225.778C179.765 226.436 180 227.209 180 228C179.999 229.06 179.577 230.077 178.827 230.827C178.077 231.577 177.06 231.999 176 232V232ZM232 220C231.999 221.06 231.577 222.077 230.827 222.827C230.077 223.577 229.06 223.999 228 224H187.312C186.485 221.66 184.953 219.635 182.927 218.202C180.902 216.769 178.481 216 176 216C173.519 216 171.098 216.769 169.073 218.202C167.047 219.635 165.515 221.66 164.688 224H71.312C70.4852 221.66 68.9534 219.635 66.9275 218.202C64.9016 216.769 62.4813 216 60 216C57.5187 216 55.0984 216.769 53.0725 218.202C51.0466 219.635 49.5148 221.66 48.688 224H12C10.9395 223.999 9.9228 223.577 9.17291 222.827C8.42303 222.077 8.00121 221.06 8 220V208H232V220Z" fill="#FFC806"/>
<path d="M29.7847 95.4414C31.3133 96.9769 33.2304 98.0681 35.3312 98.5984C37.4319 99.1286 39.6373 99.078 41.7115 98.4519L97.9682 81.9393L93.3447 114.303C93.1016 116.005 93.2271 117.739 93.7126 119.389C94.1981 121.038 95.0323 122.564 96.1588 123.862C97.2852 125.161 98.6776 126.203 100.242 126.917C101.806 127.631 103.505 128 105.224 128H110.527C112.948 128.01 115.314 127.284 117.312 125.918C119.309 124.551 120.844 122.609 121.711 120.349L142.262 67.5064L197.168 51.4539C199.07 50.8786 200.791 49.8201 202.163 48.3814C203.534 46.9428 204.51 45.1732 204.993 43.2453C205.477 41.3175 205.453 39.2971 204.923 37.3813C204.394 35.4655 203.377 33.7197 201.971 32.3142C198.093 28.4319 193.237 25.6706 187.918 24.3224C182.599 22.9743 177.015 23.0897 171.756 24.6562L139.138 34.3535L96.5332 2.40014C94.4536 0.846986 91.9289 0.00534282 89.3333 1.46962e-10H82.9483C80.7763 -1.07476e-05 78.645 0.589479 76.7818 1.70561C74.9185 2.82173 73.3931 4.42264 72.3682 6.33762C71.3433 8.2526 70.8574 10.4098 70.9623 12.5793C71.0672 14.7487 71.7589 16.849 72.9637 18.6562L92.6435 48.1761L43.4275 62.8079C42.7369 63.0138 42.0033 63.0291 41.3047 62.8521C40.606 62.675 39.9683 62.3123 39.459 61.8022L33.1717 55.5149C32.06 54.3971 30.7376 53.5108 29.2811 52.9075C27.8245 52.3042 26.2628 51.9957 24.6863 52H15.3137C12.9404 52 10.6203 52.7037 8.64692 54.0223C6.67353 55.3409 5.13545 57.215 4.22719 59.4077C3.31893 61.6004 3.08128 64.0132 3.54429 66.3409C4.0073 68.6687 5.15018 70.8069 6.8284 72.4851L29.7847 95.4414ZM79.6199 14.2188C79.2183 13.6163 78.9877 12.9162 78.9528 12.1931C78.9178 11.4699 79.0798 10.7508 79.4214 10.1125C79.7631 9.47414 80.2716 8.9405 80.8927 8.56847C81.5138 8.19644 82.2243 7.99997 82.9483 8H89.3333C90.1985 8.00183 91.0401 8.28237 91.7334 8.80005L129.59 37.1921L100.668 45.7905L79.6199 14.2188ZM11.6182 62.4693C11.9122 61.7323 12.4229 61.1017 13.0826 60.6609C13.7424 60.2201 14.5203 59.9896 15.3137 60H24.6863C25.2118 59.9986 25.7324 60.1014 26.218 60.3025C26.7035 60.5036 27.1443 60.799 27.5149 61.1716L33.8023 67.459C35.3301 68.9887 37.2433 70.0768 39.3391 70.608C41.4348 71.1391 43.6353 71.0937 45.7073 70.4763L137.559 43.1691L137.6 43.2L137.642 43.1444L174.035 32.3247C177.913 31.1697 182.031 31.0847 185.953 32.0786C189.875 33.0726 193.455 35.1085 196.314 37.9709C196.74 38.3966 197.048 38.9247 197.21 39.5044C197.372 40.0841 197.382 40.6957 197.238 41.2802C197.095 41.8647 196.803 42.4023 196.391 42.8412C195.979 43.2801 195.461 43.6054 194.887 43.7856L145.919 58.1021L147.728 53.4497L140.272 50.5503L114.255 117.45C113.966 118.203 113.455 118.85 112.789 119.306C112.123 119.761 111.334 120.003 110.527 120H105.224C104.651 120 104.085 119.877 103.563 119.639C103.042 119.401 102.578 119.054 102.202 118.621C101.827 118.188 101.549 117.679 101.387 117.13C101.225 116.58 101.183 116.002 101.264 115.434L107.96 68.5657L100.04 67.4343L99.2114 73.2368L39.4273 90.7849C38.7346 90.9949 37.9979 91.0128 37.2959 90.8366C36.5938 90.6605 35.9529 90.2968 35.4414 89.7847L12.4851 66.8284C11.9168 66.2747 11.5297 65.5616 11.3749 64.7834C11.2201 64.0052 11.3049 63.1983 11.6182 62.4692V62.4693Z" fill="#FFC806"/>
</svg>
