<svg width="173" height="217" viewBox="0 0 173 217" fill="none" xmlns="http://www.w3.org/2000/svg">
<path d="M89.6785 172.732V142.993H83.3216V172.732C72.5542 174.279 64.2507 183.562 64.2507 194.751C64.2507 207.019 74.232 217 86.5001 217C98.7681 217 108.749 207.019 108.749 194.751C108.749 183.562 100.446 174.28 89.6785 172.732ZM86.5001 210.643C77.7368 210.643 70.6077 203.514 70.6077 194.751C70.6077 185.987 77.7368 178.858 86.5001 178.858C95.2633 178.858 102.392 185.987 102.392 194.751C102.392 203.514 95.2633 210.643 86.5001 210.643Z" fill="#FFC806"/>
<path d="M153.247 160.018V156.202C153.25 147.568 153.254 135.745 138.835 127.68C136.683 126.476 134.462 125.278 132.315 124.118C117.943 116.359 104.368 109.03 104.368 97.6394V52.541H123.177L86.5001 0L70.4225 23.0321L75.6352 26.6708L86.5001 11.106L110.987 46.1841H98.0113V88.1044H74.9894V46.1841H62.0136L71.9965 31.8835L66.7842 28.2448L49.8235 52.541H68.6324V97.6398C68.6324 109.031 55.0574 116.359 40.6847 124.119C38.5378 125.278 36.3175 126.476 34.1655 127.68C19.7471 135.745 19.75 147.569 19.753 156.202V160.018C8.98558 161.565 0.682129 170.848 0.682129 182.037C0.682129 194.305 10.6634 204.286 22.9315 204.286C35.1995 204.286 45.1808 194.305 45.1808 182.037C45.1808 170.848 36.8773 161.566 26.1099 160.018V156.2C26.1074 147.976 26.1048 139.472 37.2685 133.228C39.379 132.047 41.5781 130.86 43.7047 129.712C59.0851 121.408 74.9894 112.822 74.9894 97.6389V94.4605H83.3216V123.922H89.6786V94.4605H98.0113V97.6389C98.0113 112.822 113.915 121.408 129.295 129.711C131.422 130.86 133.621 132.047 135.732 133.227C146.895 139.471 146.893 147.975 146.89 156.199V160.018C136.123 161.565 127.819 170.847 127.819 182.036C127.819 194.305 137.801 204.286 150.069 204.286C162.337 204.286 172.318 194.305 172.318 182.036C172.318 170.848 164.015 161.566 153.247 160.018V160.018ZM38.8238 182.037C38.8238 190.8 31.6947 197.929 22.9315 197.929C14.1682 197.929 7.03908 190.8 7.03908 182.037C7.03908 173.274 14.1682 166.144 22.9315 166.144C31.6947 166.144 38.8238 173.274 38.8238 182.037ZM150.069 197.929C141.305 197.929 134.176 190.8 134.176 182.037C134.176 173.274 141.305 166.144 150.069 166.144C158.832 166.144 165.961 173.274 165.961 182.037C165.961 190.8 158.832 197.929 150.069 197.929Z" fill="#FFC806"/>
<path d="M83.3215 130.279H89.6785V136.636H83.3215V130.279Z" fill="#FFC806"/>
<path d="M83.3215 58.8975H89.6785V65.2544H83.3215V58.8975Z" fill="#FFC806"/>
<path d="M83.3215 46.1836H89.6785V52.5405H83.3215V46.1836Z" fill="#FFC806"/>
</svg>
