<svg width="8" height="14" viewBox="0 0 8 14" fill="none" xmlns="http://www.w3.org/2000/svg">
<path d="M0.225806 7.4564H1.76043V13.7742C1.76043 13.8989 1.8615 14 1.98624 14H4.58825C4.71299 14 4.81406 13.8989 4.81406 13.7742V7.48616H6.57824C6.69295 7.48616 6.78946 7.40008 6.80255 7.28614L7.0705 4.96025C7.07786 4.89625 7.05758 4.83217 7.01477 4.78416C6.97191 4.73611 6.91058 4.70861 6.84623 4.70861H4.81415V3.25062C4.81415 2.81111 5.05079 2.58824 5.51758 2.58824C5.5841 2.58824 6.84623 2.58824 6.84623 2.58824C6.97096 2.58824 7.07203 2.48712 7.07203 2.36243V0.227477C7.07203 0.102742 6.97096 0.00167097 6.84623 0.00167097H5.01516C5.00225 0.00103871 4.97357 0 4.9313 0C4.61359 0 3.50926 0.0623677 2.63692 0.864884C1.67038 1.7542 1.80474 2.81901 1.83685 3.00363V4.70856H0.225806C0.101071 4.70856 0 4.80963 0 4.93437V7.23055C0 7.35528 0.101071 7.4564 0.225806 7.4564Z" fill="#FFC947"/>
</svg>
