<svg width="291" height="257" viewBox="0 0 291 257" fill="none" xmlns="http://www.w3.org/2000/svg">
<path d="M101.222 35.589C112.962 23.848 128.573 17.381 145.178 17.381C161.782 17.381 177.391 23.848 189.13 35.589C190.826 37.286 193.051 38.135 195.276 38.135C197.5 38.135 199.723 37.286 201.42 35.59C204.813 32.197 204.815 26.694 201.421 23.3C186.4 8.275 166.425 0 145.178 0C123.93 0 103.954 8.275 88.932 23.3C85.537 26.694 85.537 32.196 88.932 35.59C92.324 38.982 97.829 38.983 101.222 35.589V35.589Z" fill="#FFC947"/>
<path d="M254.572 101.6H248.542L252.899 71.0951C254.266 61.5261 251.586 52.0441 245.545 45.0801C239.506 38.1161 230.498 34.1221 220.832 34.1221H69.522C59.856 34.1221 50.848 38.1161 44.809 45.0801C38.768 52.0441 36.088 61.5251 37.455 71.0951L41.812 101.6H35.782C16.052 101.6 0 117.652 0 137.382V221.217C0 240.947 16.052 257 35.782 257H52.14C64.93 257 76.167 250.251 82.495 240.131H207.856C214.184 250.251 225.421 257 238.211 257H254.569C274.299 257 290.351 240.947 290.351 221.217V137.382C290.354 117.651 274.302 101.6 254.572 101.6V101.6ZM60.255 58.4781C62.441 55.9571 65.731 54.5711 69.522 54.5711H220.833C224.623 54.5711 227.914 55.9581 230.1 58.4781C232.286 60.9991 233.195 64.4521 232.658 68.2041L227.66 103.19C213.064 107.705 202.431 121.325 202.431 137.382V152.207H87.924V137.382C87.924 121.324 77.291 107.704 62.695 103.19L57.697 68.2041C57.16 64.4511 58.07 60.9981 60.255 58.4781V58.4781ZM67.477 221.217C67.477 229.674 60.598 236.553 52.141 236.553H35.782C27.326 236.553 20.447 229.674 20.447 221.217V137.382C20.447 128.926 27.326 122.047 35.782 122.047H52.14C60.597 122.047 67.476 128.926 67.476 137.382V221.217H67.477ZM87.925 172.654H202.431V219.683H87.925V172.654ZM269.907 221.217C269.907 229.674 263.028 236.553 254.572 236.553H238.214C229.757 236.553 222.878 229.674 222.878 221.217V137.382C222.878 128.926 229.757 122.047 238.214 122.047H254.572C263.028 122.047 269.907 128.926 269.907 137.382V221.217Z" fill="#FFC947"/>
<path d="M111.436 85.241C113.327 85.241 115.167 84.474 116.496 83.145C117.826 81.815 118.593 79.975 118.593 78.083C118.593 76.202 117.826 74.352 116.496 73.022C115.167 71.693 113.327 70.926 111.436 70.926C109.555 70.926 107.713 71.693 106.375 73.022C105.047 74.351 104.279 76.202 104.279 78.083C104.279 79.964 105.047 81.814 106.375 83.145C107.713 84.475 109.555 85.241 111.436 85.241V85.241Z" fill="#FFC947"/>
<path d="M178.912 85.241C180.793 85.241 182.643 84.474 183.972 83.145C185.313 81.815 186.069 79.964 186.069 78.083C186.069 76.202 185.313 74.352 183.972 73.022C182.644 71.693 180.803 70.926 178.912 70.926C177.031 70.926 175.19 71.693 173.851 73.022C172.522 74.351 171.755 76.202 171.755 78.083C171.755 79.975 172.522 81.814 173.851 83.145C175.191 84.475 177.032 85.241 178.912 85.241Z" fill="#FFC947"/>
<path d="M111.436 118.98C113.327 118.98 115.167 118.213 116.496 116.884C117.836 115.544 118.593 113.704 118.593 111.822C118.593 109.941 117.836 108.091 116.496 106.761C115.167 105.432 113.327 104.665 111.436 104.665C109.555 104.665 107.713 105.432 106.375 106.761C105.047 108.09 104.279 109.941 104.279 111.822C104.279 113.704 105.047 115.544 106.375 116.884C107.713 118.213 109.555 118.98 111.436 118.98V118.98Z" fill="#FFC947"/>
<path d="M178.912 118.98C180.803 118.98 182.643 118.213 183.972 116.884C185.313 115.554 186.069 113.704 186.069 111.822C186.069 109.941 185.313 108.091 183.972 106.761C182.644 105.432 180.803 104.665 178.912 104.665C177.031 104.665 175.19 105.432 173.851 106.761C172.522 108.09 171.755 109.941 171.755 111.822C171.755 113.704 172.522 115.553 173.851 116.884C175.191 118.213 177.032 118.98 178.912 118.98Z" fill="#FFC947"/>
</svg>
