<svg width="14" height="14" viewBox="0 0 14 14" fill="none" xmlns="http://www.w3.org/2000/svg">
<path d="M7 0C8.9019 0 9.1392 0.00699996 9.8854 0.042C10.6309 0.077 11.1384 0.1939 11.585 0.3675C12.047 0.5453 12.4362 0.7861 12.8254 1.1746C13.1813 1.52453 13.4568 1.94781 13.6325 2.415C13.8054 2.8609 13.923 3.3691 13.958 4.1146C13.9909 4.8608 14 5.0981 14 7C14 8.9019 13.993 9.1392 13.958 9.8854C13.923 10.6309 13.8054 11.1384 13.6325 11.585C13.4573 12.0524 13.1818 12.4758 12.8254 12.8254C12.4754 13.1812 12.0521 13.4566 11.585 13.6325C11.1391 13.8054 10.6309 13.923 9.8854 13.958C9.1392 13.9909 8.9019 14 7 14C5.0981 14 4.8608 13.993 4.1146 13.958C3.3691 13.923 2.8616 13.8054 2.415 13.6325C1.94763 13.4571 1.52427 13.1817 1.1746 12.8254C0.818585 12.4755 0.543152 12.0522 0.3675 11.585C0.1939 11.1391 0.077 10.6309 0.042 9.8854C0.00909996 9.1392 0 8.9019 0 7C0 5.0981 0.00699996 4.8608 0.042 4.1146C0.077 3.3684 0.1939 2.8616 0.3675 2.415C0.542665 1.94753 0.818163 1.52412 1.1746 1.1746C1.52437 0.818462 1.9477 0.543011 2.415 0.3675C2.8616 0.1939 3.3684 0.077 4.1146 0.042C4.8608 0.00909996 5.0981 0 7 0ZM7 3.5C6.07174 3.5 5.1815 3.86875 4.52513 4.52513C3.86875 5.1815 3.5 6.07174 3.5 7C3.5 7.92826 3.86875 8.8185 4.52513 9.47487C5.1815 10.1313 6.07174 10.5 7 10.5C7.92826 10.5 8.8185 10.1313 9.47487 9.47487C10.1313 8.8185 10.5 7.92826 10.5 7C10.5 6.07174 10.1313 5.1815 9.47487 4.52513C8.8185 3.86875 7.92826 3.5 7 3.5ZM11.55 3.325C11.55 3.09294 11.4578 2.87038 11.2937 2.70628C11.1296 2.54219 10.9071 2.45 10.675 2.45C10.4429 2.45 10.2204 2.54219 10.0563 2.70628C9.89219 2.87038 9.8 3.09294 9.8 3.325C9.8 3.55706 9.89219 3.77962 10.0563 3.94372C10.2204 4.10781 10.4429 4.2 10.675 4.2C10.9071 4.2 11.1296 4.10781 11.2937 3.94372C11.4578 3.77962 11.55 3.55706 11.55 3.325ZM7 4.9C7.55695 4.9 8.0911 5.12125 8.48492 5.51508C8.87875 5.9089 9.1 6.44305 9.1 7C9.1 7.55695 8.87875 8.0911 8.48492 8.48492C8.0911 8.87875 7.55695 9.1 7 9.1C6.44305 9.1 5.9089 8.87875 5.51508 8.48492C5.12125 8.0911 4.9 7.55695 4.9 7C4.9 6.44305 5.12125 5.9089 5.51508 5.51508C5.9089 5.12125 6.44305 4.9 7 4.9Z" fill="#FFC947"/>
</svg>
