<svg width="303" height="303" viewBox="0 0 303 303" fill="none" xmlns="http://www.w3.org/2000/svg">
<path d="M120.156 245.536H168.792C177.074 245.533 185.212 243.344 192.378 239.188L286.763 187.08C291.795 184.303 293.859 178.133 291.513 172.886C290.212 170.32 287.904 168.406 285.14 167.601C282.403 166.771 279.446 167.125 276.982 168.577L215.976 203.786C208.648 211.174 198.446 214.977 188.069 214.189H125.38C122.798 214.711 120.438 216.006 118.609 217.899C116.556 219.883 113.292 219.85 111.279 217.828C109.263 215.805 109.247 212.541 111.237 210.497C115.012 206.655 120.019 204.265 125.38 203.742H188.069C197.822 203.742 204.526 201.336 208.578 196.414C210.361 194.093 210.668 190.961 209.369 188.339C207.131 184.551 202.896 182.405 198.518 182.844H151.5C141.13 183.203 130.799 181.418 121.147 177.606C110.853 173.621 99.8356 171.845 88.8111 172.396C70.9716 173.041 53.9274 179.943 40.6675 191.892L91.0488 255.374C99.72 249.597 109.757 246.204 120.156 245.536V245.536Z" fill="#FFC947"/>
<path d="M69.7164 278.921L72.2385 282.104L88.6123 269.11L85.6695 265.407L85.6556 265.391L29.4696 194.595L29.465 194.583L27.6364 192.285L11.2695 205.273L52.7277 257.513L69.7164 278.921Z" fill="#FFC947"/>
<path d="M0 303H26.9406L58.0932 281.085L13.1744 224.488L11.8845 222.862L0 232.375V303Z" fill="#FFC947"/>
<path d="M161.949 20.8955C167.719 20.8955 172.395 16.2189 172.395 10.4489C172.395 4.67889 167.719 0 161.949 0H120.155C114.385 0 109.707 4.67889 109.707 10.4489C109.707 16.2189 114.385 20.8955 120.155 20.8955H161.949Z" fill="#FFC947"/>
<path d="M182.849 57.4644C183.661 57.4644 184.458 57.2771 185.182 56.9142L195.631 51.6897C197.3 50.8552 198.398 49.1931 198.509 47.3298C198.62 45.4666 197.73 43.6843 196.172 42.6579C194.613 41.6292 192.625 41.509 190.956 42.3435L180.507 47.5679C178.339 48.6521 177.202 51.0864 177.761 53.4443C178.318 55.8022 180.426 57.469 182.849 57.4644V57.4644Z" fill="#FFC947"/>
<path d="M198.518 62.6888H193.293C190.408 62.6888 188.069 65.0283 188.069 67.9133C188.069 70.7983 190.408 73.1378 193.293 73.1378H198.518C201.403 73.1378 203.742 70.7983 203.742 67.9133C203.742 65.0283 201.403 62.6888 198.518 62.6888Z" fill="#FFC947"/>
<path d="M96.9228 56.9142C99.5027 58.2041 102.642 57.1592 103.932 54.577C105.222 51.9972 104.177 48.8579 101.595 47.5679L91.1458 42.3435C89.4768 41.509 87.4887 41.6292 85.9306 42.6579C84.3749 43.6843 83.4825 45.4666 83.5958 47.3298C83.7068 49.1931 84.8048 50.8552 86.4739 51.6897L96.9228 56.9142Z" fill="#FFC947"/>
<path d="M78.3623 67.9133C78.3623 70.7983 80.7018 73.1378 83.5868 73.1378H88.8112C91.6962 73.1378 94.0357 70.7983 94.0357 67.9133C94.0357 65.0283 91.6962 62.6888 88.8112 62.6888H83.5868C80.7018 62.6888 78.3623 65.0283 78.3623 67.9133Z" fill="#FFC947"/>
<path d="M104.672 96.9785L106.743 98.3562C108.53 99.5606 110.872 99.5629 112.661 98.3609L116.626 95.7232C121.924 92.1817 128.834 92.1817 134.134 95.7232L138.092 98.3609C139.879 99.5653 142.218 99.5653 144.005 98.3609L147.97 95.7232C153.268 92.1817 160.178 92.1817 165.479 95.7232L169.437 98.3609C171.223 99.5653 173.563 99.5653 175.35 98.3609L177.433 96.9785C177.49 96.9392 177.56 96.9368 177.62 96.9022L159.787 67.7053C157.783 64.425 156.724 60.6569 156.724 56.8126V31.3445H125.38V56.8126C125.38 60.6569 124.319 64.425 122.317 67.7053L104.482 96.9022C104.545 96.9368 104.614 96.9392 104.672 96.9785Z" fill="#FFC947"/>
<path d="M83.9219 146.276H198.18C200.085 146.375 201.893 145.432 202.898 143.811C203.904 142.193 203.953 140.154 203.021 138.492L183.05 105.795L181.145 107.06C175.847 110.606 168.933 110.604 163.636 107.055L159.683 104.417C157.892 103.225 155.557 103.225 153.765 104.417L149.805 107.055C144.507 110.604 137.59 110.604 132.292 107.055L128.339 104.417C126.545 103.225 124.213 103.225 122.421 104.417L118.461 107.055C113.163 110.604 106.246 110.604 100.948 107.055L99.0543 105.795L79.0835 138.492C78.1518 140.154 78.1981 142.193 79.206 143.811C80.2116 145.432 82.0193 146.375 83.9219 146.276Z" fill="#FFC947"/>
</svg>
