<svg width="46" height="46" viewBox="0 0 46 46" fill="none" xmlns="http://www.w3.org/2000/svg">
<path fill-rule="evenodd" clip-rule="evenodd" d="M16.2936 1.31201C8.85615 2.99345 3.02032 8.70929 1.22983 16.0661C0.25078 20.0888 0.259725 24.3217 1.23878 28.3444C3.05726 35.8162 8.40645 42.0345 15.5823 44.932L15.8951 45.0583C19.0004 46.3121 22.5576 44.802 23.8318 41.7254C24.1825 40.8787 25.0175 40.3169 25.9402 40.3169H28.7497C36.3911 40.3169 43.0384 35.1248 44.832 27.7552C45.7227 24.0956 45.7227 20.2782 44.832 16.6185L44.5968 15.6522C42.868 8.54895 37.2333 3.0301 30.0521 1.4066L29.0433 1.17853C25.0415 0.273823 20.8859 0.273823 16.8841 1.17853L16.2936 1.31201ZM14.2549 13.9167C13.2929 13.9167 12.5131 14.6904 12.5131 15.6448C12.5131 16.5992 13.2929 17.3729 14.2549 17.3729H30.221C31.183 17.3729 31.9628 16.5992 31.9628 15.6448C31.9628 14.6904 31.183 13.9167 30.221 13.9167H14.2549ZM17.1578 22.5571C16.1959 22.5571 15.416 23.3308 15.416 24.2852C15.416 25.2396 16.1959 26.0133 17.1578 26.0133H27.3181C28.28 26.0133 29.0599 25.2396 29.0599 24.2852C29.0599 23.3308 28.28 22.5571 27.3181 22.5571H17.1578Z" fill="white"/>
</svg>
