<svg width="11" height="16" viewBox="0 0 11 16" fill="none" xmlns="http://www.w3.org/2000/svg">
<path d="M5.35382 0C2.4017 0 0 2.4017 0 5.35382C0 6.1589 0.174387 6.93264 0.518175 7.65406C0.525095 7.6695 0.532365 7.68465 0.540115 7.6998L4.58521 15.5319C4.73371 15.8194 5.03023 16 5.35374 16C5.67733 16 5.97386 15.8195 6.1223 15.5319L10.1663 7.70195C10.1733 7.68846 10.1798 7.67482 10.186 7.66105C10.5321 6.93755 10.7075 6.16146 10.7075 5.35382C10.7076 2.4017 8.30594 0 5.35382 0ZM5.35382 8.15612C3.80863 8.15612 2.55151 6.89901 2.55151 5.35382C2.55151 3.80869 3.80863 2.55159 5.35382 2.55159C6.89901 2.55159 8.15611 3.80869 8.15611 5.35382C8.15611 6.89901 6.89901 8.15612 5.35382 8.15612Z" fill="#FFC947" fill-opacity="0.01"/>
</svg>
