<svg width="12" height="16" viewBox="0 0 12 16" fill="none" xmlns="http://www.w3.org/2000/svg">
<path d="M6.17901 0C3.22689 0 0.825195 2.4017 0.825195 5.35382C0.825195 6.1589 0.999582 6.93264 1.34337 7.65406C1.35029 7.6695 1.35756 7.68465 1.36531 7.6998L5.4104 15.5319C5.5589 15.8194 5.85543 16 6.17894 16C6.50253 16 6.79905 15.8195 6.94749 15.5319L10.9915 7.70195C10.9985 7.68846 11.005 7.67482 11.0112 7.66105C11.3573 6.93755 11.5327 6.16146 11.5327 5.35382C11.5328 2.4017 9.13113 0 6.17901 0ZM6.17901 8.15612C4.63382 8.15612 3.37671 6.89901 3.37671 5.35382C3.37671 3.80869 4.63382 2.55159 6.17901 2.55159C7.7242 2.55159 8.98131 3.80869 8.98131 5.35382C8.98131 6.89901 7.7242 8.15612 6.17901 8.15612Z" fill="#FFC947"/>
</svg>
