<svg width="317" height="317" viewBox="0 0 317 317" fill="none" xmlns="http://www.w3.org/2000/svg">
<g clip-path="url(#clip0_12_40)">
<path d="M116.623 142.38C103.117 142.38 92.1284 153.368 92.1284 166.875C92.1284 180.382 103.117 191.37 116.623 191.37C130.13 191.37 141.118 180.382 141.118 166.875C141.118 153.368 130.13 142.38 116.623 142.38ZM116.623 175.882C111.656 175.882 107.617 171.842 107.617 166.875C107.617 161.909 111.656 157.868 116.623 157.868C121.589 157.868 125.63 161.909 125.63 166.875C125.63 171.842 121.589 175.882 116.623 175.882Z" fill="#FFC947"/>
<path d="M309.255 251.259H149.493V204.004C159.757 194.907 166.244 181.638 166.244 166.875C166.244 148.556 156.256 132.534 141.448 123.938L127.833 99.2413H175.25C179.528 99.2413 182.994 95.7746 182.994 91.4967V82.4894H251.258V100.502H225.501C222.817 100.502 220.325 101.891 218.914 104.175C217.503 106.459 217.373 109.31 218.575 111.71L235.326 145.212C236.684 147.925 239.418 149.494 242.258 149.494C243.422 149.494 244.603 149.229 245.717 148.674C249.541 146.761 251.092 142.11 249.179 138.284L238.033 115.99H279.974L268.828 138.284C266.915 142.109 268.466 146.761 272.29 148.674C276.118 150.59 280.768 149.036 282.681 145.212L299.431 111.71C300.631 109.31 300.502 106.459 299.092 104.175C297.681 101.891 295.189 100.502 292.505 100.502H266.747V81.2289C276.47 77.9799 283.498 68.7965 283.498 57.9961C283.498 44.4889 272.51 33.5006 259.003 33.5006H182.995V24.4955C182.995 20.2176 179.529 16.7509 175.251 16.7509H57.9961L57.9566 16.7679C51.2216 16.7647 44.3949 18.4063 38.0902 21.8816C28.4425 27.2012 21.4429 35.9576 18.3817 46.5414C15.3206 57.1241 16.564 68.266 21.8815 77.9148L67.4228 160.528C67.156 162.608 67.0023 164.724 67.0023 166.875C67.0023 168.795 67.1229 170.686 67.3363 172.548L20.1108 251.258H7.74462C3.46672 251.258 0 254.725 0 259.003V292.505C0 296.782 3.46672 300.249 7.74462 300.249H309.256C313.534 300.249 317.001 296.782 317.001 292.505V259.003C317 254.726 313.533 251.259 309.255 251.259ZM116.623 201.008C97.8025 201.008 82.4904 185.696 82.4904 166.875C82.4904 148.055 97.8025 132.743 116.623 132.743C135.443 132.743 150.755 148.055 150.755 166.875C150.755 185.696 135.443 201.008 116.623 201.008ZM259.004 67.0023C254.038 67.0023 249.998 62.9624 249.998 57.9961C249.998 53.0297 254.038 48.9888 259.004 48.9888C263.97 48.9888 268.011 53.0297 268.011 57.9961C268.011 62.9624 263.969 67.0023 259.004 67.0023ZM236.232 48.9899C235.124 51.7799 234.51 54.8165 234.51 57.9971C234.51 61.1767 235.125 64.2133 236.232 67.0034H182.995V48.9899H236.232ZM167.507 83.7531H119.297L94.1234 38.0902C92.9685 35.995 91.6482 34.0482 90.203 32.2401H167.507V83.7531V83.7531ZM35.4464 70.437C28.5898 57.9993 33.1302 42.3019 45.5679 35.4464C49.5 33.2786 53.7566 32.2497 57.9587 32.2497C67.046 32.2497 75.8708 37.0623 80.5586 45.568L120.154 117.394C118.986 117.311 117.811 117.254 116.623 117.254C98.7524 117.254 83.0615 126.753 74.3242 140.964L35.4464 70.437ZM73.7948 191.89C82.4168 206.594 98.381 216.497 116.623 216.497C122.737 216.497 128.592 215.379 134.005 213.347V251.259H38.1734L73.7948 191.89ZM301.512 284.76H15.4882V266.748H301.511V284.76H301.512Z" fill="#FFC947"/>
</g>
<defs>
<clipPath id="clip0_12_40">
<rect width="317" height="317" fill="white"/>
</clipPath>
</defs>
</svg>
