<svg width="303" height="303" viewBox="0 0 303 303" fill="none" xmlns="http://www.w3.org/2000/svg">
<path d="M265.598 228.197H208.549C201.5 228.197 194.751 230.143 188.902 233.767V142.667C188.902 127.597 183.033 113.43 172.379 102.776C167.793 98.1862 163.159 93.5536 160.377 90.7728V74.8031H170.516C175.419 74.8031 179.393 70.8286 179.393 65.9262V8.87695C179.393 3.97451 175.419 0 170.516 0H18.3854C13.4829 0 9.5084 3.97451 9.5084 8.87695V65.9262C9.5084 70.8286 13.4829 74.8031 18.3854 74.8031H28.5246V90.7722C25.7426 93.553 21.1094 98.1856 16.5247 102.773C5.86885 113.43 0 127.597 0 142.667V275.106C0 290.486 12.513 303 27.8932 303H161.008C169.768 303 177.594 298.937 182.711 292.602C189.432 299.035 198.533 303 208.549 303H265.598C286.222 303 303 286.221 303 265.598C303 244.938 286.291 228.197 265.598 228.197V228.197ZM141.361 17.7539H161.64V57.0492H141.361V17.7539ZM103.328 17.7539H123.607V57.0492H103.328V17.7539ZM65.2947 17.7539H85.5738V57.0492H65.2947V17.7539ZM27.2623 57.0492V17.7539H47.5414V57.0492H27.2623ZM171.148 275.106C171.148 280.697 166.599 285.246 161.008 285.246H27.8932C22.3025 285.246 17.7539 280.697 17.7539 275.106V142.667C17.7539 132.34 21.7758 122.631 29.0809 115.325C36.3186 108.083 43.6758 100.73 43.6764 100.73C45.3423 99.065 46.2785 96.8055 46.2785 94.4508V74.8031H142.623V94.4508C142.623 96.8055 143.559 99.065 145.225 100.73C145.225 100.73 152.582 108.082 159.823 115.328C167.126 122.631 171.148 132.34 171.148 142.667V275.106ZM228.197 285.246H208.549C197.716 285.246 188.902 276.432 188.902 265.598C188.902 254.716 197.705 245.951 208.549 245.951H228.197V285.246ZM265.598 285.246H245.951V245.951H265.598C276.434 245.951 285.246 254.709 285.246 265.598C285.246 276.432 276.432 285.246 265.598 285.246Z" fill="#FFC947"/>
<path d="M141.992 161.64H122.344V141.992C122.344 137.09 118.369 133.115 113.467 133.115H75.434C70.5316 133.115 66.5571 137.09 66.5571 141.992V161.64H46.9094C42.007 161.64 38.0325 165.614 38.0325 170.517V208.549C38.0325 213.452 42.007 217.426 46.9094 217.426H66.5571V237.074C66.5571 241.976 70.5316 245.951 75.434 245.951H113.467C118.369 245.951 122.344 241.976 122.344 237.074V217.426H141.992C146.894 217.426 150.869 213.452 150.869 208.549V170.516C150.869 165.614 146.894 161.64 141.992 161.64ZM133.115 199.672H113.467C108.565 199.672 104.59 203.647 104.59 208.549V228.197H84.311V208.549C84.311 203.647 80.3365 199.672 75.434 199.672H55.7864V179.393H75.434C80.3365 179.393 84.311 175.419 84.311 170.516V150.869H104.59V170.516C104.59 175.419 108.565 179.393 113.467 179.393H133.115V199.672Z" fill="#FFC947"/>
</svg>
