<svg width="256" height="256" viewBox="0 0 256 256" fill="none" xmlns="http://www.w3.org/2000/svg">
<g clip-path="url(#clip0_20_66)">
<path d="M250.995 160.649H230.894C230.894 154.61 230.894 116.387 230.894 110.426C230.894 107.665 228.655 105.426 225.894 105.426H200.772V75.284C200.772 72.5226 198.533 70.2841 195.772 70.2841H135.529C132.768 70.2841 130.529 72.5226 130.529 75.284V105.426H105.407C102.646 105.426 100.407 107.665 100.407 110.426V175.71H90.3261V89.4666C96.1679 87.4007 100.366 81.8248 100.366 75.284C100.366 66.9907 93.6195 60.2439 85.3262 60.2439H15.0426C6.74936 60.2439 0.00204561 66.9907 0.00204561 75.284C0.00204561 81.8248 4.20043 87.4012 10.0428 89.4666V175.71H5.00191C1.8175 175.71 -0.552939 178.65 0.113043 181.758L15.1736 252.041C15.6676 254.346 17.7051 255.993 20.0625 255.993H205.813C207.665 255.993 209.365 254.969 210.232 253.333L255.414 167.988C257.172 164.667 254.765 160.649 250.995 160.649V160.649ZM220.894 115.426V140.568H170.65V115.426H220.894ZM220.894 150.567V160.649H185.731C182.971 160.649 180.732 162.888 180.732 165.649V175.71H170.65V150.567H220.894ZM140.529 80.2839H190.772V105.426C177.165 105.426 148.558 105.426 140.529 105.426V80.2839ZM110.407 115.426H160.65V140.568H110.407V115.426ZM110.407 150.567H160.65V175.71H110.407V150.567ZM10.0018 75.284C10.0018 72.5046 12.2627 70.2436 15.0426 70.2436H85.3262C88.1056 70.2436 90.3666 72.5051 90.3666 75.284C90.3666 78.0639 88.1056 80.3249 85.3262 80.3249H15.0426C12.2627 80.3249 10.0018 78.0634 10.0018 75.284V75.284ZM80.3263 90.3246V175.71H20.0425V90.3246H80.3263ZM202.802 245.994H24.1044L11.1867 185.709H185.732C188.493 185.709 190.732 183.471 190.732 180.71V170.648H242.691L202.802 245.994Z" fill="#FFC947"/>
<path d="M175.691 200.811C167.397 200.811 160.65 207.558 160.65 215.851C160.65 224.144 167.397 230.892 175.691 230.892C183.984 230.892 190.731 224.144 190.731 215.851C190.731 207.558 183.984 200.811 175.691 200.811ZM175.691 220.892C172.911 220.892 170.65 218.631 170.65 215.851C170.65 213.072 172.911 210.811 175.691 210.811C178.471 210.811 180.732 213.072 180.732 215.851C180.732 218.631 178.471 220.892 175.691 220.892Z" fill="#FFC947"/>
<path d="M145.569 200.811H35.1236C32.3622 200.811 30.1238 203.05 30.1238 205.811C30.1238 208.572 32.3622 210.811 35.1236 210.811H145.569C148.33 210.811 150.569 208.572 150.569 205.811C150.569 203.05 148.331 200.811 145.569 200.811Z" fill="#FFC947"/>
<path d="M145.569 220.892H35.1236C32.3622 220.892 30.1238 223.131 30.1238 225.892C30.1238 228.653 32.3622 230.892 35.1236 230.892H145.569C148.33 230.892 150.569 228.653 150.569 225.892C150.569 223.131 148.331 220.892 145.569 220.892Z" fill="#FFC947"/>
<path d="M35.1236 130.486H65.2453C68.0062 130.486 70.2452 128.247 70.2452 125.487V105.406C70.2452 102.644 68.0062 100.406 65.2453 100.406H35.1236C32.3622 100.406 30.1238 102.644 30.1238 105.406V125.487C30.1238 128.248 32.3622 130.486 35.1236 130.486ZM40.1235 110.405H60.2455V120.487H40.1235V110.405Z" fill="#FFC947"/>
<path d="M107.135 28.8438C109.213 30.6617 112.372 30.4517 114.19 28.3738L122.998 18.307V55.203C122.998 57.964 125.237 60.2029 127.998 60.2029C130.759 60.2029 132.998 57.964 132.998 55.203V18.307L141.806 28.3738C143.624 30.4517 146.784 30.6627 148.861 28.8438C150.939 27.0253 151.149 23.8669 149.331 21.7889L131.761 1.708C129.788 -0.544942 126.235 -0.575441 124.236 1.708L106.665 21.7889C104.847 23.8669 105.057 27.0253 107.135 28.8438V28.8438Z" fill="#FFC947"/>
</g>
<defs>
<clipPath id="clip0_20_66">
<rect width="256" height="256" fill="white"/>
</clipPath>
</defs>
</svg>
