<svg width="256" height="256" viewBox="0 0 256 256" fill="none" xmlns="http://www.w3.org/2000/svg">
<g clip-path="url(#clip0_20_23)">
<path d="M251.342 55.1996L130.842 0.667554C128.873 -0.223946 126.614 -0.221446 124.647 0.672554L4.64749 55.2046C1.96949 56.4216 0.250488 59.0911 0.250488 62.0326V248.5C0.250488 252.642 3.60849 256 7.75049 256H248.25C252.392 256 255.75 252.642 255.75 248.5V62.0326C255.75 59.0871 254.026 56.4136 251.342 55.1996V55.1996ZM175.25 211C179.392 211 182.75 207.642 182.75 203.5V196H197.75V241H152.75V196H167.75V203.5C167.75 207.643 171.108 211 175.25 211ZM197.75 181H145.25C141.108 181 137.75 184.358 137.75 188.5V241H117.75C117.75 229.091 117.75 139.355 117.75 128.5C117.75 124.358 114.392 121 110.25 121H57.75V106H197.75V181ZM57.75 181V136H72.75V143.5C72.75 147.642 76.108 151 80.25 151C84.392 151 87.75 147.642 87.75 143.5V136H102.75V181H57.75ZM57.75 196H72.75V203.5C72.75 207.642 76.108 211 80.25 211C84.392 211 87.75 207.642 87.75 203.5V196H102.75V241H57.75V196ZM240.75 241H212.75V98.5001C212.75 94.3581 209.392 91.0001 205.25 91.0001H50.25C46.108 91.0001 42.75 94.3581 42.75 98.5001V241H15.25V66.8626L127.756 15.7356L240.75 66.8711V241Z" fill="#FFC947"/>
<path d="M97.75 58.5C97.75 62.642 101.108 66 105.25 66H150.25C154.392 66 157.75 62.642 157.75 58.5C157.75 54.358 154.392 51 150.25 51H105.25C101.108 51 97.75 54.358 97.75 58.5Z" fill="#FFC947"/>
</g>
<defs>
<clipPath id="clip0_20_23">
<rect width="256" height="256" fill="white"/>
</clipPath>
</defs>
</svg>
