<svg width="237" height="237" viewBox="0 0 237 237" fill="none" xmlns="http://www.w3.org/2000/svg">
<g clip-path="url(#clip0_20_46)">
<path d="M235.046 118.397L195.214 77.2421C193.907 75.8904 192.106 75.1276 190.225 75.1276H164.772V45.1711C164.772 41.3366 161.664 38.2278 157.829 38.2278H28.8654C25.0308 38.2278 21.922 41.3366 21.922 45.1711V66.0077H16.6664C12.8318 66.0077 9.72302 69.1165 9.72302 72.9511C9.72302 76.7856 12.8318 79.8944 16.6664 79.8944H21.922V93.7876H6.94336C3.10877 93.7876 0 96.8964 0 100.731C0 104.566 3.10877 107.674 6.94336 107.674H21.922V171.441C21.922 175.275 25.0308 178.384 28.8654 178.384H43.645C44.9911 182.865 47.4319 186.971 50.8333 190.372C56.25 195.789 63.4521 198.772 71.1125 198.772C78.7729 198.772 85.9745 195.789 91.3917 190.372C94.8338 186.93 97.2121 182.822 98.5351 178.46H164.842C166.165 182.822 168.543 186.93 171.985 190.372C177.402 195.789 184.604 198.772 192.264 198.772C199.925 198.772 207.126 195.789 212.544 190.372C215.986 186.93 218.364 182.822 219.687 178.46H230.057C233.891 178.46 237 175.352 237 171.517V123.226C237 121.424 236.299 119.692 235.046 118.397V118.397ZM213.674 116.283H164.578V89.0143H187.283L213.674 116.283ZM35.8088 107.674H71.948C75.7826 107.674 78.8914 104.565 78.8914 100.731C78.8914 96.8959 75.7826 93.7872 71.948 93.7872H35.8088V79.894H77.0412C80.8758 79.894 83.9846 76.7852 83.9846 72.9506C83.9846 69.116 80.8758 66.0072 77.0412 66.0072H35.8088V52.114H77.0412H150.885L150.69 164.573H99.2456C98.1925 159.161 95.5749 153.995 91.3917 149.812C85.975 144.395 78.7729 141.412 71.1125 141.412C63.4521 141.412 56.2505 144.395 50.8333 149.812C46.7598 153.885 44.0635 158.968 42.9762 164.496H35.8088V107.674ZM81.5724 180.553C78.7784 183.347 75.0633 184.885 71.1125 184.885C67.1617 184.885 63.4466 183.347 60.6526 180.553C57.8586 177.759 56.3199 174.044 56.3199 170.092C56.3199 166.141 57.8586 162.426 60.6526 159.631C63.4466 156.837 67.1617 155.299 71.1125 155.299C75.0633 155.299 78.7784 156.837 81.5724 159.631C87.3401 165.4 87.3401 174.785 81.5724 180.553ZM202.723 180.553C199.929 183.347 196.214 184.885 192.263 184.885C188.313 184.885 184.598 183.347 181.804 180.553C176.036 174.785 176.036 165.4 181.804 159.632C184.598 156.838 188.313 155.299 192.263 155.299C196.214 155.299 199.929 156.838 202.723 159.632C205.517 162.426 207.056 166.141 207.056 170.093C207.056 174.044 205.517 177.759 202.723 180.553V180.553ZM220.397 164.573C219.344 159.161 216.726 153.996 212.543 149.812C207.126 144.395 199.924 141.412 192.263 141.412C184.603 141.412 177.401 144.395 171.984 149.812C168.296 153.501 165.832 157.954 164.577 162.665V130.169H223.113V164.573H220.397Z" fill="#FFC947"/>
</g>
<defs>
<clipPath id="clip0_20_46">
<rect width="237" height="237" fill="white"/>
</clipPath>
</defs>
</svg>
