<svg width="209" height="209" viewBox="0 0 209 209" fill="none" xmlns="http://www.w3.org/2000/svg">
<path d="M208.998 24.8681C209.067 18.1977 206.507 11.9269 201.79 7.20968C197.135 2.55413 190.966 0 184.393 0C184.306 0 184.219 0.000408203 184.131 0.00122461C177.461 0.0698027 171.244 2.75864 166.625 7.57135L130.043 45.6914L34.3201 14.0132L6.05079 42.2825L86.0464 91.5379L53.1309 125.838L27.2965 121.596L0 148.892L44.5162 164.484L60.1079 209L87.4045 181.703L83.1632 155.869L117.463 122.954L166.718 202.95L194.988 174.68L163.31 78.9571L201.429 42.3752C206.242 37.7559 208.93 31.5386 208.998 24.8681ZM192.942 33.5306L149.242 75.467L180.976 171.357L169.021 183.311L119.936 103.591L70.0219 151.491L74.2893 177.483L65.23 186.542L54.1351 154.865L22.4577 143.77L31.517 134.711L57.5093 138.978L105.409 89.0646L25.6894 39.9794L37.6437 28.0252L133.533 59.7585L175.47 16.0591C177.788 13.643 180.91 12.2934 184.258 12.2587C184.302 12.2579 184.346 12.2579 184.389 12.2579C187.689 12.2579 190.786 13.5401 193.123 15.8775C195.491 18.2455 196.776 21.3935 196.742 24.742C196.707 28.0905 195.357 31.2116 192.942 33.5306Z" fill="#FFC947"/>
</svg>
