<svg width="188" height="188" viewBox="0 0 188 188" fill="none" xmlns="http://www.w3.org/2000/svg">
<path d="M177.898 105.871C183.617 104.947 188 99.9767 188 94C188 88.0233 183.617 83.053 177.898 82.1292C175.479 64.9555 167.721 48.7731 155.825 36.0699L169.646 22.249C171.485 23.3917 173.653 24.0537 175.973 24.0537C182.605 24.0537 188 18.6586 188 12.0269C188 5.39509 182.605 0 175.973 0C169.341 0 163.946 5.39509 163.946 12.0269C163.946 14.3471 164.608 16.5146 165.751 18.3539L151.93 32.1748C139.227 20.2787 123.045 12.5211 105.871 10.1024C104.947 4.38275 99.9767 0 94 0C88.0233 0 83.053 4.38275 82.1292 10.1024C64.9551 12.5211 48.7731 20.2787 36.0699 32.1752L22.249 18.3542C23.3917 16.515 24.0541 14.3471 24.0541 12.0272C24.0537 5.39509 18.6586 0 12.0269 0C5.39509 0 0 5.39509 0 12.0269C0 18.6586 5.39509 24.0537 12.0269 24.0537C14.3471 24.0537 16.5146 23.3917 18.3542 22.2486L32.1752 36.0696C20.279 48.7728 12.5211 64.9551 10.1028 82.1288C4.38275 83.053 0 88.0233 0 94C0 99.9767 4.38275 104.947 10.1024 105.871C12.5207 123.045 20.2787 139.227 32.1748 151.93L18.3539 165.751C16.5143 164.608 14.3467 163.946 12.0265 163.946C5.39509 163.946 0 169.342 0 175.973C0 182.605 5.39509 188 12.0269 188C18.6586 188 24.0537 182.605 24.0537 175.973C24.0537 173.653 23.3917 171.485 22.2486 169.646L36.0696 155.825C48.7728 167.721 64.9551 175.479 82.1288 177.898C83.053 183.617 88.0233 188 94 188C99.9767 188 104.947 183.617 105.871 177.898C123.045 175.479 139.227 167.721 151.93 155.825L165.751 169.646C164.608 171.486 163.946 173.653 163.946 175.973C163.946 182.605 169.341 188 175.973 188C182.605 188 188 182.605 188 175.973C188 169.341 182.605 163.946 175.973 163.946C173.653 163.946 171.485 164.608 169.646 165.751L155.825 151.93C167.721 139.227 175.479 123.045 177.898 105.871V105.871ZM94 163.946C88.6163 163.946 84.0477 167.502 82.5188 172.389C48.1915 167.381 20.6187 139.808 15.6113 105.481C20.4979 103.952 24.0537 99.3837 24.0537 94C24.0537 88.6163 20.4979 84.0477 15.6113 82.5188C20.6187 48.1919 48.1919 20.6187 82.5188 15.6113C84.0477 20.4979 88.6163 24.0537 94 24.0537C99.3837 24.0537 103.952 20.4979 105.481 15.6113C139.808 20.6183 167.382 48.1919 172.389 82.5188C167.502 84.0477 163.946 88.6163 163.946 94C163.946 99.3837 167.502 103.952 172.389 105.481C167.382 139.808 139.808 167.382 105.481 172.389C103.952 167.502 99.3837 163.946 94 163.946ZM182.492 94C182.492 97.5944 179.568 100.519 175.973 100.519C172.379 100.519 169.454 97.5944 169.454 94C169.454 90.4056 172.379 87.481 175.973 87.481C179.568 87.481 182.492 90.4056 182.492 94ZM175.973 5.50781C179.568 5.50781 182.492 8.43246 182.492 12.0269C182.492 15.6213 179.568 18.5459 175.973 18.5459C172.379 18.5459 169.454 15.6213 169.454 12.0269C169.454 8.43246 172.379 5.50781 175.973 5.50781V5.50781ZM94 5.50781C97.5944 5.50781 100.519 8.43246 100.519 12.0269C100.519 15.6213 97.5944 18.5459 94 18.5459C90.4052 18.5459 87.481 15.6213 87.481 12.0269C87.481 8.43246 90.4052 5.50781 94 5.50781V5.50781ZM5.50781 12.0269C5.50781 8.43246 8.43209 5.50781 12.0269 5.50781C15.6216 5.50781 18.5459 8.43246 18.5459 12.0269C18.5459 15.6213 15.6216 18.5459 12.0269 18.5459C8.43209 18.5459 5.50781 15.6213 5.50781 12.0269V12.0269ZM5.50781 94C5.50781 90.4056 8.43209 87.481 12.0269 87.481C15.6216 87.481 18.5459 90.4056 18.5459 94C18.5459 97.5944 15.6216 100.519 12.0269 100.519C8.43209 100.519 5.50781 97.5944 5.50781 94V94ZM12.0269 182.492C8.43209 182.492 5.50781 179.568 5.50781 175.973C5.50781 172.379 8.43209 169.454 12.0269 169.454C15.6216 169.454 18.5459 172.379 18.5459 175.973C18.5459 179.568 15.6216 182.492 12.0269 182.492ZM94 182.492C90.4052 182.492 87.481 179.568 87.481 175.973C87.481 172.379 90.4052 169.454 94 169.454C97.5944 169.454 100.519 172.379 100.519 175.973C100.519 179.568 97.5944 182.492 94 182.492ZM182.492 175.973C182.492 179.568 179.568 182.492 175.973 182.492C172.379 182.492 169.454 179.568 169.454 175.973C169.454 172.379 172.379 169.454 175.973 169.454C179.568 169.454 182.492 172.379 182.492 175.973Z" fill="#FFC947"/>
<path d="M148.055 113.82C146.654 113.229 145.039 113.885 144.446 115.285C142.657 119.521 140.375 123.438 137.692 126.995C133.269 124.065 128.47 121.607 123.408 119.655C125.182 112.547 126.203 104.79 126.394 96.7539H148.667C148.555 99.0043 148.309 101.246 147.927 103.446C147.666 104.944 148.67 106.37 150.168 106.631C150.328 106.658 150.486 106.672 150.643 106.672C151.957 106.672 153.12 105.728 153.353 104.389C153.945 100.982 154.246 97.4864 154.246 94C154.246 79.5243 149.113 66.2263 140.573 55.8264C140.542 55.7768 140.513 55.7265 140.478 55.6784C140.358 55.5121 140.223 55.3645 140.076 55.2334C129.017 42.1083 112.467 33.7537 93.9999 33.7537C73.1099 33.7537 54.0103 44.3356 42.9076 62.0609C42.1002 63.3501 42.4905 65.0494 43.7797 65.8569C45.0693 66.6636 46.7686 66.2736 47.5753 64.9848C48.436 63.6108 49.3533 62.2882 50.316 61.0104C54.737 63.9379 59.5332 66.3937 64.5912 68.3446C62.818 75.4533 61.7961 83.2094 61.6059 91.246H39.332C39.5894 86.0382 40.5756 80.9314 42.2783 76.0298C42.7773 74.5934 42.0176 73.0236 40.5804 72.5246C39.1451 72.0252 37.5746 72.7853 37.0756 74.2225C34.871 80.5679 33.7533 87.222 33.7533 94C33.7533 108.476 38.8862 121.774 47.4263 132.174C47.4571 132.224 47.4868 132.274 47.5214 132.322C47.6407 132.488 47.7762 132.635 47.9223 132.767C58.9827 145.892 75.5326 154.247 93.9996 154.247C118.278 154.247 140.071 139.795 149.52 117.429C150.112 116.028 149.456 114.412 148.055 113.82V113.82ZM118.188 117.849C111.342 115.746 104.112 114.534 96.7539 114.291V96.7539H120.885C120.702 104.168 119.781 111.308 118.188 117.849V117.849ZM39.3305 96.7539H61.6059C61.7961 104.79 62.818 112.547 64.5912 119.655C59.5416 121.603 54.7527 124.054 50.3377 126.975C43.9082 118.483 39.8938 108.065 39.3305 96.7539V96.7539ZM67.1149 96.7539H91.246V114.291C83.888 114.534 76.6581 115.746 69.8115 117.849C68.2197 111.308 67.2981 104.168 67.1149 96.7539V96.7539ZM91.246 119.801V148.44C85.4059 147.183 79.8838 141.952 75.4647 133.39C73.8531 130.268 72.4629 126.828 71.2975 123.149C77.6605 121.182 84.3895 120.042 91.246 119.801V119.801ZM96.7539 148.44V119.801C103.61 120.042 110.339 121.182 116.702 123.15C115.537 126.828 114.147 130.268 112.535 133.39C108.116 141.952 102.594 147.183 96.7539 148.44ZM112.535 54.6099C114.147 57.7321 115.537 61.1719 116.702 64.85C110.339 66.8174 103.61 67.9575 96.7539 68.1992V39.5604C102.594 40.8172 108.116 46.0482 112.535 54.6099ZM91.246 39.5604V68.1992C84.3895 67.9575 77.6605 66.8174 71.2975 64.85C72.4629 61.1719 73.8531 57.7317 75.4647 54.6095C79.8838 46.0482 85.4059 40.8172 91.246 39.5604V39.5604ZM96.7539 73.7088C104.112 73.4661 111.342 72.2544 118.188 70.1511C119.78 76.6918 120.702 83.8314 120.885 91.246H96.7539V73.7088ZM148.669 91.246H126.394C126.204 83.2094 125.182 75.4529 123.409 68.3442C128.458 66.3966 133.247 63.946 137.662 61.025C144.092 69.5174 148.106 79.9345 148.669 91.246V91.246ZM134.095 56.7774C130.297 59.2383 126.206 61.3298 121.902 63.0251C120.652 59.1039 119.157 55.4309 117.429 52.0837C115.314 47.9851 112.931 44.5262 110.346 41.7547C119.537 44.6364 127.691 49.8835 134.095 56.7774V56.7774ZM53.8678 56.7536C60.3924 49.6962 68.5928 44.5449 77.6803 41.7271C75.0847 44.5034 72.6928 47.9712 70.5705 52.0837C68.8428 55.4313 67.348 59.1039 66.0981 63.0255C61.78 61.3243 57.6763 59.2247 53.8678 56.7536ZM69.8115 70.1511C76.6581 72.2544 83.8876 73.4661 91.246 73.7088V91.246H67.1149C67.2981 83.8314 68.2197 76.6918 69.8115 70.1511V70.1511ZM53.9053 131.222C57.7031 128.762 61.7939 126.67 66.0981 124.974C67.348 128.896 68.8425 132.569 70.5705 135.916C72.6858 140.015 75.0685 143.474 77.6539 146.245C68.4628 143.364 60.3098 138.116 53.9053 131.222V131.222ZM110.338 146.254C112.926 143.481 115.312 140.019 117.429 135.917C119.157 132.569 120.652 128.896 121.902 124.975C126.22 126.676 130.324 128.775 134.132 131.247C127.656 138.23 119.457 143.412 110.338 146.254V146.254Z" fill="#FFC947"/>
</svg>
