<svg width="252" height="252" viewBox="0 0 252 252" fill="none" xmlns="http://www.w3.org/2000/svg">
<g clip-path="url(#clip0_20_49)">
<path d="M197.786 145.35C197.786 145.35 165.991 125.732 165.951 125.707C163.663 124.295 160.581 125.04 159.174 127.311C157.763 129.588 158.512 132.686 160.778 134.084C160.778 134.084 192.593 153.715 192.613 153.727C194.9 155.138 197.979 154.412 199.385 152.123C200.791 149.833 200.075 146.762 197.786 145.35Z" fill="#FFC947"/>
<path d="M146.614 114.638C143.47 114.637 141.1 117.63 141.819 120.689C142.105 121.908 142.942 123.015 144.046 123.714C144.803 124.194 145.686 124.481 146.603 124.481C148.325 124.481 149.895 123.611 150.796 122.145C152.715 119.021 150.303 114.638 146.614 114.638Z" fill="#FFC947"/>
<path d="M95.6482 127.057C94.2598 124.845 91.0586 124.131 88.86 125.52C88.86 125.52 57.2704 145.44 57.2172 145.473C54.9409 146.908 54.2464 149.983 55.6801 152.258C56.5419 153.626 58.205 154.427 59.8514 154.474C60.7777 154.5 61.6986 154.287 62.4689 153.801C62.4689 153.801 94.0895 133.857 94.1116 133.843C96.3875 132.407 97.0785 129.335 95.6482 127.057Z" fill="#FFC947"/>
<path d="M108.129 114.259C105.843 114.259 103.841 115.865 103.335 118.092C102.646 121.125 105.048 124.102 108.139 124.102C110.42 124.102 112.434 122.496 112.938 120.268C113.627 117.216 111.248 114.259 108.129 114.259Z" fill="#FFC947"/>
<path d="M250.793 224.173C249.009 222.122 245.9 221.905 243.849 223.689C238.601 228.252 233.744 232.983 226.858 234.886C219.203 237.002 211.928 235.332 205 231.868L230.632 145.625C231.27 143.48 230.379 141.174 228.465 140.014L204.75 125.645V83.6842C204.75 80.9663 202.547 78.7623 199.828 78.7623H189.985V63.9967C189.985 61.2788 187.781 59.0748 185.063 59.0748H169.559V44.3092C169.559 41.5914 167.355 39.3874 164.637 39.3874H140.766V4.93432C140.766 2.21646 138.562 0.0124512 135.844 0.0124512H116.157C113.438 0.0124512 111.235 2.21646 111.235 4.93432V39.3874H87.3636C84.6453 39.3874 82.4418 41.5914 82.4418 44.3092V59.0748H66.9379C64.2195 59.0748 62.016 61.2788 62.016 63.9967V78.7623H52.1723C49.4539 78.7623 47.2504 80.9663 47.2504 83.6842V125.645L23.5359 140.013C21.6213 141.174 20.7309 143.479 21.3688 145.625C21.3688 145.625 46.9384 231.654 46.9492 231.692C46.5126 230.223 38.6367 229.256 37.2443 229.076C22.9133 227.221 12.0158 234.4 1.69264 243.376C-0.358792 245.16 -0.575354 248.268 1.20784 250.319C2.91031 252.277 6.07852 252.606 8.15111 250.804C18.7863 241.559 30.7764 234.511 44.8481 241.548C57.578 247.913 70.7548 250.642 84.0138 243.664C94.7051 238.037 105.022 233.177 116.956 238.859L129.225 244.702C139.721 249.7 151.705 249.585 162.102 244.386C168.509 241.182 175.022 236.919 182.34 236.416C189.514 235.923 196.446 238.594 202.75 241.748C211.077 245.912 220.826 246.744 229.768 244.195C238.005 241.847 243.999 236.601 250.307 231.116C252.359 229.333 252.576 226.225 250.793 224.173ZM194.906 88.606V119.68L143.622 88.606H194.906ZM121.078 9.85618H130.922V39.3874H121.078V9.85618V9.85618ZM92.2855 49.2311H159.715V59.0748H92.2855V49.2311V49.2311ZM57.0941 88.606H108.379L57.0941 119.68V88.606ZM121.078 229.92C121.079 229.046 114.062 227.432 113.144 227.233C104.578 225.379 95.3823 226.557 87.6166 230.644C81.982 233.61 76.5458 237.069 70.1016 237.899C70.0898 237.9 70.078 237.902 70.0662 237.903C66.301 238.361 62.4472 238.084 58.803 237.021L31.8868 146.464L121.078 92.4215C121.078 92.4215 121.078 229.915 121.078 229.92ZM71.8597 78.7623V68.9186H180.141V78.7623H71.8597ZM195.902 227.924C195.956 226.401 182.101 226.415 181.173 226.513C172.63 227.416 165.239 231.812 157.7 235.582C148.793 240.035 139.628 238.755 130.922 234.607V92.4215L220.114 146.464L195.902 227.924Z" fill="#FFC947"/>
</g>
<defs>
<clipPath id="clip0_20_49">
<rect width="252" height="252" fill="white"/>
</clipPath>
</defs>
</svg>
