<svg width="15" height="18" viewBox="0 0 15 18" fill="none" xmlns="http://www.w3.org/2000/svg">
<g clip-path="url(#clip0_53_27398)">
<path d="M1.73274 18C1.4449 17.9994 1.16215 17.9207 0.912315 17.7716C0.349736 17.439 0 16.7933 0 16.0924V1.90769C0 1.20481 0.349736 0.561116 0.912315 0.228509C1.1681 0.0751363 1.45868 -0.00373598 1.75368 0.000135996C2.04867 0.00400797 2.33726 0.0904822 2.58927 0.25052L14.2089 7.50722C14.451 7.66565 14.6506 7.88564 14.789 8.14658C14.9274 8.40752 15 8.70085 15 8.99906C15 9.29728 14.9274 9.59061 14.789 9.85155C14.6506 10.1125 14.451 10.3325 14.2089 10.4909L2.58739 17.7496C2.32949 17.9122 2.0341 17.9988 1.73274 18Z" fill="#FFC947"/>
</g>
<defs>
<clipPath id="clip0_53_27398">
<rect width="15" height="18" fill="white"/>
</clipPath>
</defs>
</svg>
