<svg width="310" height="310" viewBox="0 0 310 310" fill="none" xmlns="http://www.w3.org/2000/svg">
<path d="M300.313 254.3H264.388C258.293 247.606 249.512 243.398 239.768 243.398C230.024 243.398 221.243 247.606 215.148 254.3H143.294C137.199 247.606 128.419 243.398 118.674 243.398C108.93 243.398 100.149 247.606 94.0541 254.3H88.4009C80.0545 254.3 73.2641 247.51 73.2641 239.163C73.2641 230.817 80.0545 224.026 88.4009 224.026H276.094C280.483 224.026 284.244 220.887 285.029 216.569L309.248 83.3658C309.729 80.7162 309.011 77.9898 307.285 75.9221C305.56 73.8545 303.006 72.6593 300.313 72.6593H83.8707L75.3191 25.6246C74.7191 22.3242 72.3493 19.6238 69.1548 18.6L12.4612 0.435932C7.6834 -1.0953 2.57143 1.53728 1.04081 6.31382C-0.489818 11.0904 2.14215 16.2035 6.9187 17.7336L58.4229 34.235L89.6275 205.862H88.4003C70.0382 205.862 55.0995 220.801 55.0995 239.163C55.0995 256.604 68.5796 270.946 85.6672 272.342C85.4795 273.769 85.3729 275.221 85.3729 276.699C85.3729 295.061 100.312 309.999 118.674 309.999C137.036 309.999 151.974 295.061 151.974 276.699C151.974 275.263 151.873 273.851 151.696 272.463H206.746C206.568 273.852 206.467 275.263 206.467 276.699C206.467 295.061 221.406 309.999 239.768 309.999C258.13 309.999 273.069 295.061 273.069 276.699C273.069 275.263 272.967 273.852 272.79 272.463H300.313C305.328 272.463 309.395 268.397 309.395 263.381C309.395 258.366 305.328 254.3 300.313 254.3ZM289.43 90.8233L268.515 205.862H108.09L87.1736 90.8233H289.43ZM118.674 291.836C110.328 291.836 103.538 285.046 103.538 276.699C103.538 268.353 110.328 261.562 118.674 261.562C127.021 261.562 133.811 268.353 133.811 276.699C133.811 285.046 127.021 291.836 118.674 291.836ZM239.768 291.836C231.422 291.836 224.631 285.046 224.631 276.699C224.631 268.353 231.422 261.562 239.768 261.562C248.114 261.562 254.905 268.353 254.905 276.699C254.905 285.046 248.114 291.836 239.768 291.836Z" fill="#FFC947"/>
<path d="M243.957 187.644C248.943 188.188 253.427 184.587 253.971 179.601L260.576 119.054C261.119 114.068 257.519 109.584 252.532 109.041C247.545 108.497 243.062 112.098 242.519 117.084L235.914 177.631C235.37 182.617 238.971 187.101 243.957 187.644V187.644Z" fill="#FFC947"/>
<path d="M206.853 187.692C211.866 187.874 216.077 183.959 216.259 178.946L218.46 118.399C218.643 113.387 214.727 109.176 209.714 108.993C204.702 108.811 200.491 112.727 200.308 117.739L198.107 178.286C197.925 183.298 201.84 187.509 206.853 187.692V187.692Z" fill="#FFC947"/>
<path d="M169.753 187.692C174.766 187.51 178.682 183.299 178.499 178.286L176.298 117.739C176.116 112.726 171.905 108.811 166.892 108.993H166.891C161.879 109.175 157.963 113.386 158.145 118.399L160.347 178.946C160.53 183.959 164.741 187.874 169.753 187.692V187.692Z" fill="#FFC947"/>
<path d="M116.031 119.054L122.636 179.601C123.18 184.587 127.663 188.188 132.649 187.644C137.635 187.101 141.237 182.617 140.693 177.631L134.088 117.084C133.544 112.098 129.061 108.497 124.075 109.041C119.088 109.585 115.487 114.068 116.031 119.054Z" fill="#FFC947"/>
</svg>
