<svg width="301" height="303" viewBox="0 0 301 303" fill="none" xmlns="http://www.w3.org/2000/svg">
<path d="M149.379 303L143.706 300.864C93.6245 282 50.6736 254.029 16.0539 217.718C4.24997 205.342 -2.24902 189.778 -2.24902 173.892V0L17.6318 7.06827C41.8692 15.6863 61.4933 19.6994 79.3812 19.6994C110.698 19.6994 141.76 3.92065 142.07 3.76161L149.379 0.00739746L156.818 3.59886C157.124 3.74496 189.344 19.1187 220.542 19.1187C243.088 19.1187 264.699 12.6534 281.006 7.02019L300.751 0.20343V175.562C300.751 190.557 295.163 204.895 284.593 217.038C252.31 254.101 208.75 282.352 155.126 301.001L149.379 303ZM26.2667 35.2027V173.892C26.2667 184.483 30.5852 194.845 38.43 203.07C68.8918 235.015 106.35 259.919 149.837 277.157C195.919 260.232 233.453 235.371 261.467 203.206C268.508 195.119 272.233 185.558 272.233 175.562V35.0473C256.974 39.2972 239.345 42.7481 220.542 42.7481C191.266 42.7481 162.871 32.6413 149.81 27.2522C136.95 32.8669 109.013 43.3306 79.3812 43.3306C60.0181 43.3325 41.5991 39.5672 26.2667 35.2027V35.2027ZM237.754 108.99L217.59 92.2815L133.746 161.762L87.3264 123.297L67.1599 140.006L133.746 195.18L237.754 108.99Z" fill="#FFC947"/>
</svg>
