<svg width="303" height="303" viewBox="0 0 303 303" fill="none" xmlns="http://www.w3.org/2000/svg">
<path d="M96.758 71.6649C96.4132 72.9462 96.325 74.2829 96.4983 75.5983C96.6716 76.9137 97.1031 78.1821 97.768 79.3307L106.05 93.351C106.717 94.4992 107.605 95.5046 108.662 96.3095C109.72 97.1143 110.926 97.7028 112.211 98.0412C113.494 98.3855 114.832 98.4737 116.15 98.3006C117.467 98.1275 118.737 97.6966 119.887 97.0326L122.968 95.4692C126.282 97.9737 129.895 100.057 133.724 101.672V105.051C133.724 107.726 134.788 110.292 136.682 112.184C138.576 114.075 141.145 115.138 143.824 115.138H160.034C162.713 115.138 165.282 114.075 167.176 112.184C169.07 110.292 170.134 107.726 170.134 105.051V101.572C173.958 99.9563 177.557 97.8544 180.841 95.3179L183.82 97.0326C186.138 98.3677 188.891 98.7299 191.476 98.0397C194.061 97.3494 196.265 95.6631 197.607 93.351L205.687 79.3307C207.023 77.0161 207.386 74.2664 206.695 71.6851C206.004 69.1038 204.315 66.9018 202 65.5625L199.071 63.9991C199.375 61.8607 199.527 59.7036 199.525 57.5437C199.529 55.4341 199.377 53.3271 199.071 51.2397L202 49.5754C204.315 48.2361 206.004 46.0342 206.695 43.4528C207.386 40.8715 207.023 38.1218 205.687 35.8072L197.607 21.7869C196.265 19.4748 194.061 17.7885 191.476 17.0982C188.891 16.408 186.138 16.7702 183.82 18.1054L180.689 19.6688C177.387 17.1462 173.771 15.0611 169.933 13.4655V10.0865C169.933 7.41143 168.868 4.84587 166.974 2.95428C165.08 1.06269 162.511 0 159.833 0H143.622C140.943 0 138.374 1.06269 136.48 2.95428C134.586 4.84587 133.522 7.41143 133.522 10.0865V13.516C129.718 15.1701 126.124 17.2693 122.816 19.7696L119.887 18.1054C118.737 17.4364 117.466 17.0009 116.148 16.8239C114.829 16.6469 113.488 16.7319 112.202 17.074C110.916 17.4161 109.711 18.0086 108.655 18.8174C107.599 19.6262 106.714 20.6354 106.05 21.7869L97.97 35.7568C97.3051 36.9054 96.8736 38.1738 96.7003 39.4892C96.527 40.8046 96.6152 42.1413 96.96 43.4226C97.2988 44.7064 97.8881 45.9107 98.6941 46.9665C99.5 48.0224 100.507 48.9089 101.656 49.5754L104.585 51.0884C104.31 53.2297 104.159 55.385 104.131 57.5437C104.126 59.6702 104.278 61.7941 104.585 63.8983L101.656 65.5625C100.474 66.2028 99.4321 67.0724 98.5909 68.1203C97.7497 69.1682 97.1266 70.3733 96.758 71.6649V71.6649ZM114.029 57.5437C114.046 55.8571 114.164 54.173 114.383 52.5005C114.642 50.5081 114.301 48.4836 113.401 46.6865C112.501 44.8895 111.084 43.4017 109.333 42.4139L106.404 40.7496L114.635 26.8302L117.564 28.5449C119.324 29.5607 121.351 30.0223 123.378 29.8693C125.405 29.7163 127.339 28.9559 128.927 27.6876C131.464 25.6398 134.267 23.9434 137.259 22.6443C139.138 21.8969 140.749 20.6031 141.884 18.9306C143.018 17.2581 143.624 15.2839 143.622 13.2638V10.0865H159.833V13.4655C159.831 15.4857 160.436 17.4598 161.571 19.1323C162.705 20.8048 164.316 22.0986 166.196 22.846C169.188 24.1451 171.99 25.8415 174.528 27.8893C176.116 29.1577 178.049 29.9181 180.077 30.071C182.104 30.224 184.13 29.7624 185.891 28.7467L188.87 27.0319L196.95 40.8505L194.021 42.5148C192.269 43.5026 190.852 44.9903 189.953 46.7874C189.053 48.5845 188.711 50.609 188.971 52.6013C189.189 54.2739 189.307 55.958 189.325 57.6446C189.307 59.3312 189.189 61.0153 188.971 62.6879C188.711 64.6802 189.053 66.7047 189.953 68.5018C190.852 70.2989 192.269 71.7867 194.021 72.7744L196.95 74.4387L188.87 88.459L185.891 86.7443C184.13 85.7285 182.104 85.267 180.077 85.4199C178.049 85.5729 176.116 86.3333 174.528 87.6017C171.978 89.6312 169.177 91.3261 166.196 92.6449C164.316 93.3924 162.705 94.6861 161.571 96.3586C160.436 98.0311 159.831 100.005 159.833 102.025V105.404H143.622V102.025C143.624 100.005 143.018 98.0311 141.884 96.3586C140.749 94.6861 139.138 93.3924 137.259 92.6449C134.277 91.3261 131.477 89.6312 128.927 87.6017C127.102 86.1988 124.866 85.4364 122.564 85.433C120.794 85.4208 119.053 85.873 117.514 86.7443L114.585 88.459L106.454 74.4387L109.383 72.7744C111.135 71.7867 112.552 70.2989 113.451 68.5018C114.351 66.7047 114.693 64.6802 114.433 62.6879C114.194 60.9829 114.059 59.265 114.029 57.5437V57.5437Z" fill="#FFC947"/>
<path d="M151.5 82.5582C156.494 82.5582 161.376 81.0793 165.528 78.3085C169.68 75.5377 172.917 71.5994 174.828 66.9917C176.739 62.3841 177.239 57.3139 176.265 52.4224C175.291 47.5309 172.886 43.0378 169.354 39.5112C165.823 35.9846 161.324 33.583 156.426 32.61C151.528 31.637 146.451 32.1364 141.837 34.045C137.223 35.9535 133.28 39.1856 130.505 43.3324C127.731 47.4792 126.25 52.3545 126.25 57.3419C126.25 64.0297 128.91 70.4435 133.646 75.1725C138.381 79.9015 144.803 82.5582 151.5 82.5582ZM151.5 42.212C154.496 42.212 157.425 43.0994 159.917 44.7619C162.408 46.4244 164.35 48.7873 165.497 51.5519C166.643 54.3165 166.943 57.3586 166.359 60.2935C165.774 63.2284 164.331 65.9243 162.213 68.0403C160.094 70.1562 157.394 71.5972 154.456 72.181C151.517 72.7648 148.471 72.4651 145.702 71.32C142.934 70.1748 140.568 68.2356 138.903 65.7475C137.239 63.2595 136.35 60.3343 136.35 57.3419C136.35 53.3292 137.946 49.4809 140.787 46.6435C143.629 43.8061 147.482 42.212 151.5 42.212Z" fill="#FFC947"/>
<path d="M268.811 276.22C269.494 267.029 272.905 258.25 278.608 251.004C285.183 243.265 288.462 233.264 287.745 223.14C287.028 213.017 282.37 203.576 274.77 196.839C270.459 193.013 265.388 190.138 259.889 188.4C254.389 186.662 248.585 186.101 242.854 186.753C233.768 187.657 225.263 191.636 218.751 198.029C212.239 204.422 208.11 212.846 207.05 221.904C206.48 227.196 207.012 232.548 208.611 237.625C210.21 242.702 212.842 247.394 216.342 251.408C222.011 258.806 225.335 267.728 225.886 277.027V281.667C225.886 287.325 228.137 292.751 232.143 296.752C236.149 300.753 241.583 303 247.248 303C252.913 303 258.347 300.753 262.353 296.752C266.359 292.751 268.609 287.325 268.609 281.667L268.811 276.22ZM258.711 281.667C258.711 284.65 257.525 287.511 255.413 289.62C253.301 291.729 250.437 292.914 247.45 292.914C244.463 292.914 241.599 291.729 239.487 289.62C237.375 287.511 236.188 284.65 236.188 281.667V277.38H258.711V281.667ZM259.923 267.294H252.5V249.188L261.135 240.615L253.964 233.453L247.45 240.01L240.935 233.453L233.764 240.615L242.4 249.188V267.294H234.875C233.026 259.11 229.369 251.442 224.169 244.851C221.552 241.883 219.578 238.406 218.37 234.64C217.162 230.873 216.747 226.898 217.15 222.963C217.938 216.182 221.029 209.875 225.909 205.094C230.788 200.313 237.161 197.346 243.965 196.688C245.126 196.611 246.29 196.611 247.45 196.688C255.048 196.667 262.386 199.451 268.054 204.505C271.099 207.22 273.536 210.546 275.206 214.265C276.877 217.985 277.744 222.014 277.75 226.09C277.767 232.9 275.329 239.488 270.882 244.65C265.638 251.321 261.9 259.045 259.923 267.294V267.294Z" fill="#FFC947"/>
<path d="M24.5935 301.134C25.5341 302.066 26.8037 302.591 28.1285 302.596H85.85C87.1893 302.596 88.4738 302.065 89.4209 301.119C90.368 300.173 90.9 298.891 90.9 297.553V206.774C90.9 205.437 90.368 204.154 89.4209 203.208C88.4738 202.262 87.1893 201.731 85.85 201.731H5.05C3.71066 201.731 2.42617 202.262 1.47911 203.208C0.532052 204.154 0 205.437 0 206.774V274.858C0.00277371 275.526 0.138111 276.186 0.398169 276.8C0.658226 277.415 1.03783 277.972 1.515 278.439L24.5935 301.134ZM25.25 287.467L15.15 277.632L27.5225 275.161L25.25 287.467ZM10.1 211.818H80.8V292.51H34.2895L38.8345 269.714C38.9893 268.906 38.9436 268.072 38.7014 267.285C38.4593 266.499 38.028 265.783 37.4452 265.201C36.8625 264.619 36.146 264.188 35.3582 263.947C34.5705 263.705 33.7355 263.659 32.926 263.814L10.1 268.353V211.818Z" fill="#FFC947"/>
<path d="M20.2 221.904H70.7V231.99H20.2V221.904Z" fill="#FFC947"/>
<path d="M20.2 247.121H70.7V257.207H20.2V247.121Z" fill="#FFC947"/>
<path d="M50.5 272.337H70.7V282.423H50.5V272.337Z" fill="#FFC947"/>
<path d="M225.129 48.9199L219.271 57.09C232.17 66.3272 243.031 78.113 251.179 91.7162C259.328 105.319 264.59 120.45 266.64 136.169H252.5C251.586 136.171 250.691 136.421 249.908 136.892C249.125 137.362 248.485 138.036 248.056 138.841C247.651 139.63 247.46 140.512 247.505 141.397C247.549 142.282 247.826 143.14 248.308 143.885L268.508 174.144C268.954 174.857 269.571 175.447 270.303 175.861C271.035 176.275 271.859 176.5 272.7 176.515C273.527 176.516 274.342 176.314 275.073 175.927C275.804 175.54 276.428 174.98 276.892 174.296L297.092 144.036C297.574 143.292 297.851 142.434 297.895 141.548C297.94 140.663 297.749 139.781 297.344 138.993C296.935 138.159 296.304 137.454 295.52 136.956C294.736 136.458 293.829 136.185 292.9 136.169H276.791C274.72 118.84 269.057 102.132 260.162 87.1099C251.267 72.088 239.336 59.0817 225.129 48.9199V48.9199ZM272.7 162.394L261.943 146.255H283.457L272.7 162.394Z" fill="#FFC947"/>
<path d="M129.936 295.486C130.411 296.039 130.999 296.484 131.662 296.788C132.324 297.093 133.045 297.251 133.774 297.251C134.126 297.3 134.483 297.3 134.835 297.251C135.727 297.059 136.55 296.629 137.217 296.008C137.883 295.386 138.369 294.596 138.622 293.72L143.268 277.229C146.096 277.229 148.823 277.531 151.5 277.531C169.665 277.579 187.622 273.673 204.121 266.083L199.879 256.904C184.702 263.844 168.191 267.389 151.5 267.294H146.096L149.631 254.887C149.887 254.002 149.895 253.065 149.655 252.176C149.414 251.286 148.935 250.48 148.268 249.844C147.61 249.213 146.793 248.772 145.903 248.568C145.014 248.364 144.086 248.404 143.218 248.684L108.575 259.729C107.779 259.981 107.058 260.426 106.476 261.024C105.894 261.623 105.47 262.356 105.242 263.158C105.023 263.959 105.005 264.801 105.19 265.611C105.375 266.42 105.757 267.172 106.302 267.798L129.936 295.486ZM137.36 261.09L131.3 281.768L118.877 267.294L137.36 261.09Z" fill="#FFC947"/>
<path d="M68.8315 94.1074C69.72 94.8193 70.8234 95.2103 71.9625 95.2169C72.6771 95.2136 73.3828 95.0589 74.033 94.763C74.8666 94.3917 75.5839 93.8017 76.1086 93.0557C76.6332 92.3098 76.9456 91.4358 77.0125 90.5266L79.7395 54.2655C79.8002 53.4409 79.6569 52.614 79.3222 51.8576C78.9876 51.1013 78.4719 50.4387 77.8205 49.9283C77.1647 49.4181 76.3928 49.0776 75.5736 48.9368C74.7543 48.796 73.9129 48.8594 73.124 49.1214L38.582 60.5192C37.7048 60.7998 36.9212 61.3146 36.3159 62.008C35.7106 62.7013 35.3067 63.5468 35.148 64.4529C34.9513 65.384 35.0224 66.3516 35.353 67.244C35.6837 68.1364 36.2604 68.9172 37.0165 69.4962L48.682 78.6245C33.4502 99.8041 25.2548 125.222 25.25 151.298C25.2527 163.754 27.0903 176.142 30.704 188.064L40.4 185.138C35.2314 168.25 34.0097 150.403 36.8287 132.97C39.6477 115.536 46.4323 98.9806 56.661 84.5756L68.8315 94.1074ZM68.8315 61.0739L67.367 80.3897L50.5 67.1259L68.8315 61.0739Z" fill="#FFC947"/>
<path d="M292.9 216.861H303V226.947H292.9V216.861Z" fill="#FFC947"/>
<path d="M280.659 196.708L287.801 189.576L294.942 196.708L287.801 203.84L280.659 196.708Z" fill="#FFC947"/>
<path d="M191.9 216.861H202V226.947H191.9V216.861Z" fill="#FFC947"/>
<path d="M204.899 191.654L212.041 184.522L219.182 191.654L212.041 198.787L204.899 191.654Z" fill="#FFC947"/>
<path d="M242.4 171.471H252.5V181.558H242.4V171.471Z" fill="#FFC947"/>
</svg>
