<svg width="304" height="304" viewBox="0 0 304 304" fill="none" xmlns="http://www.w3.org/2000/svg">
<path d="M269.981 303.815C268.068 303.815 266.511 302.083 266.511 299.946V263.774C266.511 261.636 268.065 259.904 269.981 259.904C271.897 259.904 273.45 261.637 273.45 263.774V299.945C273.45 302.083 271.896 303.816 269.981 303.815V303.815Z" fill="#FFC947"/>
<path d="M171.432 303.815C169.519 303.815 167.963 302.083 167.963 299.946L167.963 263.774C167.963 261.636 169.517 259.904 171.432 259.904C173.349 259.904 174.901 261.637 174.901 263.774L174.901 299.945C174.901 302.083 173.348 303.816 171.432 303.815V303.815Z" fill="#FFC947"/>
<path d="M145.475 295.381H3.78841C1.872 295.381 0.318115 293.649 0.318115 291.511L0.319101 4.68794C0.319101 2.54988 1.872 0.817826 3.78703 0.817826L208.107 0.817383C210.023 0.817383 211.576 2.55099 211.576 4.6886V77.2824C211.576 79.4202 210.022 81.1536 208.107 81.1536C206.188 81.1529 204.637 79.4206 204.637 77.2832V8.5582H7.25807V287.639H145.476C147.389 287.639 148.942 289.374 148.942 291.511C148.945 293.648 147.389 295.382 145.473 295.382L145.476 295.38L145.475 295.381Z" fill="#FFC947"/>
<path d="M29.2469 85.8523H70.149V44.9262H29.2469V85.8523ZM73.6183 93.5934H25.7776C23.8642 93.5934 22.3081 91.8612 22.3081 89.7231L22.3085 41.0556C22.3085 38.918 23.862 37.1857 25.7776 37.1857L73.6183 37.1851C75.5343 37.1851 77.0876 38.9184 77.0876 41.0561V89.7229C77.0876 91.8605 75.5337 93.5934 73.6183 93.5934V93.5934Z" fill="#FFC947"/>
<path d="M182.337 57.4432H96.9409C95.0247 57.4432 93.4766 55.712 93.4766 53.5737C93.4772 51.4363 95.0239 49.7038 96.9396 49.7038L182.337 49.7036C184.25 49.7036 185.803 51.4363 185.803 53.5737C185.806 55.712 184.249 57.4443 182.334 57.4443L182.337 57.4432H182.337Z" fill="#FFC947"/>
<path d="M160.231 81.0758H119.052C117.136 81.0758 115.581 79.3429 115.581 77.2055C115.583 75.0675 117.134 73.335 119.05 73.335H160.231C162.147 73.335 163.699 75.0679 163.699 77.2055C163.7 79.3418 162.145 81.0758 160.231 81.0758H160.231Z" fill="#FFC947"/>
<path d="M29.2469 168.561H70.149V127.636H29.2469V168.561ZM73.6183 176.302H25.7776C23.8642 176.302 22.3081 174.57 22.3081 172.433L22.3085 123.766C22.3085 121.628 23.862 119.896 25.7776 119.896L73.6183 119.896C75.5343 119.896 77.0876 121.629 77.0876 123.766V172.431C77.0876 174.569 75.5337 176.303 73.6183 176.302V176.302Z" fill="#FFC947"/>
<path d="M180.292 140.155H96.9404C95.0242 140.155 93.4761 138.422 93.4761 136.285C93.4767 134.147 95.0234 132.415 96.9391 132.415H180.292C182.208 132.415 183.761 134.148 183.761 136.285C183.761 138.421 182.207 140.155 180.292 140.155H180.292Z" fill="#FFC947"/>
<path d="M160.231 163.785H119.052C117.136 163.785 115.581 162.053 115.581 159.916C115.583 157.778 117.134 156.045 119.05 156.045L160.231 156.044C162.147 156.044 163.699 157.778 163.699 159.916C163.7 162.053 162.145 163.786 160.231 163.785H160.231Z" fill="#FFC947"/>
<path d="M29.2469 251.272H70.149V210.348H29.2469V251.272ZM73.6183 259.013H25.7776C23.8642 259.013 22.3081 257.281 22.3081 255.143L22.3085 206.477C22.3085 204.339 23.862 202.607 25.7776 202.607L73.6183 202.606C75.5343 202.606 77.0876 204.34 77.0876 206.477V255.142C77.0876 257.28 75.5337 259.014 73.6183 259.013V259.013Z" fill="#FFC947"/>
<path d="M144.372 222.865H96.9409C95.0247 222.865 93.4766 221.132 93.4766 218.995C93.4772 216.857 95.0239 215.125 96.9396 215.125L144.372 215.124C146.289 215.124 147.84 216.858 147.84 218.995C147.841 221.132 146.286 222.866 144.372 222.865H144.372Z" fill="#FFC947"/>
<path d="M146.871 246.496H119.052C117.136 246.496 115.581 244.764 115.581 242.626C115.583 240.487 117.134 238.756 119.05 238.756L146.871 238.755C148.788 238.755 150.34 240.489 150.34 242.626C150.341 244.763 148.785 246.497 146.871 246.496H146.871Z" fill="#FFC947"/>
<path d="M148.576 241.354C147.684 241.354 146.798 240.976 146.117 240.22L141.486 235.05C136.965 230.002 136.963 221.79 141.486 216.742L150.571 206.607C152.755 204.168 155.67 202.826 158.778 202.826C161.881 202.825 164.795 204.169 166.981 206.607L171.403 211.537C172.758 213.049 172.757 215.5 171.402 217.012C170.047 218.522 167.849 218.523 166.493 217.012L162.079 212.08C161.201 211.105 160.03 210.567 158.778 210.567C157.526 210.566 156.351 211.105 155.477 212.081L146.397 222.214C144.575 224.245 144.575 227.548 146.395 229.578L151.026 234.747C152.381 236.257 152.381 238.709 151.026 240.22C150.346 240.975 149.46 241.354 148.576 241.354L148.576 241.354Z" fill="#FFC947"/>
<path d="M292.84 241.354C291.954 241.354 291.067 240.977 290.387 240.221C289.032 238.708 289.032 236.259 290.387 234.747L295.019 229.578C295.9 228.601 296.38 227.294 296.38 225.896C296.38 224.499 295.898 223.192 295.019 222.216L285.937 212.08C284.118 210.051 281.16 210.051 279.334 212.081L274.922 217.011C273.567 218.522 271.366 218.524 270.011 217.013C268.656 215.5 268.656 213.05 270.011 211.539L274.434 206.607C278.958 201.559 286.322 201.56 290.845 206.607L299.928 216.742C302.115 219.18 303.318 222.431 303.318 225.896C303.318 229.361 302.114 232.613 299.927 235.052L295.296 240.22C294.615 240.976 293.729 241.354 292.84 241.354L292.84 241.354Z" fill="#FFC947"/>
<path d="M181.648 127.564H260.302C262.441 123.887 267.506 114.075 268.017 102.959C263.555 100.46 253.526 93.8619 249.141 82.9836C246.227 83.1034 241.317 83.0649 236.258 81.9288C228.393 80.1628 223.706 76.6263 220.978 72.6342C218.251 76.6249 213.563 80.1628 205.697 81.9288C200.634 83.0642 195.723 83.1054 192.814 82.9836C188.429 93.8606 178.401 100.461 173.938 102.959C174.452 114.072 179.509 123.882 181.648 127.564H181.648ZM262.135 135.305H179.824C178.734 135.305 177.708 134.735 177.052 133.764C176.631 133.137 166.692 118.22 166.963 100.446C166.987 98.8998 167.836 97.5187 169.113 96.9317C169.259 96.8663 183.635 90.1012 187.194 77.7551C187.694 76.0081 189.23 74.896 190.862 75.0922C191.11 75.119 215.991 77.8366 217.527 61.8819C217.72 59.9153 219.207 58.4248 220.977 58.4248C222.75 58.4244 224.236 59.9153 224.429 61.8819C225.965 77.8359 250.84 75.1197 251.092 75.0913C252.727 74.8967 254.255 76.0121 254.761 77.7551C258.34 90.1671 272.691 96.8657 272.836 96.9317C274.12 97.5181 274.968 98.9005 274.986 100.446C275.264 118.219 265.325 133.138 264.904 133.765C264.249 134.734 263.223 135.305 262.135 135.305L262.135 135.305Z" fill="#FFC947"/>
<path d="M220.978 167.296C209.283 167.296 198.241 163.722 189.893 157.232C181.16 150.444 176.354 141.283 176.354 131.435C176.355 129.297 177.907 127.564 179.823 127.564C181.74 127.564 183.292 129.298 183.292 131.435C183.293 146.941 200.198 159.556 220.978 159.556C241.759 159.555 258.664 146.941 258.664 131.435C258.666 129.297 260.218 127.564 262.133 127.564C264.051 127.564 265.602 129.298 265.602 131.435C265.604 141.282 260.79 150.445 252.063 157.232C243.71 163.722 232.675 167.297 220.978 167.296H220.978Z" fill="#FFC947"/>
<path d="M214.028 101.133L216.167 103.631C216.896 104.482 217.237 105.659 217.099 106.826L216.679 110.25L219.474 108.75C220.425 108.239 221.532 108.24 222.483 108.752L225.274 110.25L224.857 106.825C224.712 105.658 225.055 104.482 225.784 103.631L227.93 101.133L224.88 100.516C223.84 100.306 222.947 99.5798 222.447 98.5417L220.977 95.4983L219.509 98.5417C219.01 99.5789 218.111 100.307 217.075 100.517L214.028 101.133V101.133ZM212.378 120.731C211.654 120.731 210.937 120.481 210.335 119.992C209.307 119.154 208.769 117.752 208.937 116.341L209.998 107.633L204.553 101.283C203.669 100.253 203.367 98.7675 203.758 97.4129C204.157 96.0577 205.185 95.0542 206.438 94.8003L214.191 93.2316L217.926 85.4938C218.528 84.2389 219.7 83.4582 220.977 83.4582V83.4575C222.255 83.4575 223.429 84.2402 224.031 85.4947L227.767 93.2316L235.514 94.7997C236.771 95.0537 237.8 96.0581 238.191 97.4128C238.589 98.7671 238.281 100.255 237.402 101.283L231.958 107.633L233.02 116.34C233.188 117.751 232.65 119.155 231.614 119.992C230.586 120.829 229.223 120.966 228.073 120.348L220.977 116.533L213.885 120.348C213.403 120.604 212.888 120.731 212.378 120.731L212.378 120.731Z" fill="#FFC947"/>
<path d="M192.563 113.207C191.977 113.207 191.38 113.042 190.838 112.691C189.177 111.624 188.604 109.259 189.561 107.406C196.037 94.8493 188.002 81.716 187.658 81.163C186.564 79.4126 186.942 77.0007 188.507 75.7766C190.075 74.5518 192.23 74.9668 193.332 76.7092C193.785 77.423 204.282 94.3805 195.572 111.267C194.937 112.511 193.765 113.208 192.563 113.207V113.207Z" fill="#FFC947"/>
<path d="M249.391 113.207C248.19 113.207 247.021 112.511 246.383 111.267C237.668 94.3803 248.172 77.4227 248.623 76.7089C249.727 74.9612 251.894 74.5453 253.459 75.7785C255.02 77.0084 255.393 79.4177 254.297 81.164C253.944 81.7362 245.918 94.86 252.393 107.406C253.353 109.257 252.779 111.625 251.116 112.691C250.575 113.04 249.978 113.207 249.388 113.207L249.391 113.207V113.207Z" fill="#FFC947"/>
<path d="M173.181 121.14C171.766 121.14 170.432 120.169 169.92 118.601C169.259 116.594 170.185 114.371 171.98 113.635L191.376 105.702C193.17 104.964 195.163 105.998 195.825 108.004C196.485 110.011 195.56 112.235 193.76 112.971L174.373 120.901C173.98 121.063 173.576 121.141 173.181 121.14L173.181 121.14Z" fill="#FFC947"/>
<path d="M268.778 121.14C268.379 121.14 267.976 121.064 267.584 120.902L248.19 112.97C246.395 112.234 245.467 110.011 246.13 108.004C246.789 105.997 248.78 104.965 250.581 105.703L269.97 113.635C271.77 114.37 272.691 116.595 272.035 118.601C271.518 120.168 270.192 121.141 268.778 121.14L268.778 121.14Z" fill="#FFC947"/>
<path d="M295.94 303.815H145.475C143.559 303.815 142.003 302.083 142.003 299.946L142.006 253.457C142.006 225.689 166.282 203.098 196.12 203.098L197.102 203.098C199.018 203.098 200.571 204.831 200.571 206.968C200.571 209.105 199.018 210.839 197.102 210.839L196.121 210.839C170.107 210.839 148.942 229.958 148.942 253.457L148.944 296.074H292.471V253.456C292.471 229.957 271.306 210.839 245.292 210.839L244.311 210.839C242.398 210.839 240.841 209.106 240.841 206.968C240.842 204.83 242.395 203.098 244.311 203.098L245.292 203.098C275.131 203.098 299.409 225.689 299.409 253.457L299.41 299.945C299.41 302.083 297.855 303.816 295.941 303.815H295.94Z" fill="#FFC947"/>
<path d="M197.102 210.839C195.189 210.839 193.633 209.106 193.633 206.969V189.362C193.633 187.224 195.187 185.493 197.102 185.493C199.018 185.492 200.572 187.225 200.572 189.363V206.969C200.572 209.105 199.018 210.839 197.102 210.839V210.839Z" fill="#FFC947"/>
<path d="M244.311 210.839C242.398 210.839 240.841 209.106 240.841 206.968L240.842 190.035C240.842 187.897 242.395 186.165 244.311 186.165C246.227 186.164 247.779 187.897 247.779 190.035L247.78 206.968C247.78 209.105 246.226 210.839 244.311 210.839V210.839Z" fill="#FFC947"/>
<path d="M220.991 209.882C211.554 209.882 202.354 203.758 195.097 192.635C187.54 181.049 182.093 164.212 179.352 143.942C179.065 141.828 180.37 139.857 182.262 139.538C184.166 139.217 185.923 140.674 186.212 142.787C188.792 161.832 193.802 177.495 200.704 188.079C206.71 197.277 213.726 202.142 220.99 202.142C220.991 202.141 220.996 202.142 220.996 202.142C233.367 202.138 249.918 186.54 255.845 142.592C256.128 140.478 257.892 139.019 259.789 139.341C261.687 139.659 262.994 141.63 262.705 143.744C259.966 164.062 254.514 180.946 246.943 192.57C239.668 203.731 230.451 209.88 220.996 209.883C220.996 209.882 220.99 209.883 220.991 209.882V209.882Z" fill="#FFC947"/>
<path d="M192.015 219.295L208.843 236.926L215.774 226.947L197.623 212.177L192.015 219.295ZM209.245 246.531C208.367 246.531 207.516 246.158 206.872 245.482L184.821 222.374C183.456 220.946 183.352 218.568 184.586 217L194.495 204.415C195.682 202.911 197.692 202.663 199.144 203.841L222.75 223.04C223.509 223.657 224.007 224.59 224.14 225.627C224.273 226.661 224.025 227.714 223.447 228.541L211.987 245.031C211.391 245.893 210.491 246.434 209.516 246.519C209.426 246.526 209.335 246.531 209.245 246.531V246.531Z" fill="#FFC947"/>
<path d="M225.639 226.947L232.573 236.925L249.401 219.295L243.799 212.177L225.639 226.947H225.639ZM232.168 246.531C232.079 246.531 231.988 246.527 231.897 246.519C230.922 246.432 230.024 245.894 229.428 245.032L217.966 228.54C217.389 227.713 217.141 226.662 217.273 225.626C217.408 224.59 217.906 223.658 218.665 223.041L242.27 203.84C243.723 202.661 245.732 202.911 246.918 204.415L256.827 216.998C258.063 218.568 257.959 220.946 256.591 222.375L234.543 245.482C233.898 246.157 233.047 246.531 232.168 246.531L232.168 246.531Z" fill="#FFC947"/>
<path d="M222.913 249.056H218.503C217.251 249.056 216.093 248.301 215.479 247.082L210.849 237.896C209.909 236.034 210.504 233.674 212.172 232.627C213.847 231.578 215.96 232.241 216.9 234.105L220.533 241.315H220.883L224.515 234.104C225.455 232.24 227.567 231.579 229.241 232.627C230.911 233.673 231.506 236.034 230.566 237.897L225.935 247.081C225.322 248.3 224.164 249.056 222.913 249.056L222.913 249.056Z" fill="#FFC947"/>
<path d="M209.372 303.817C209.16 303.817 208.943 303.795 208.732 303.751C206.848 303.359 205.606 301.34 205.956 299.238L215.088 244.477C215.443 242.374 217.249 240.988 219.134 241.38C219.739 241.504 220.266 241.793 220.706 242.197C221.148 241.792 221.676 241.505 222.278 241.38C224.165 240.989 225.97 242.375 226.326 244.477L235.459 299.238C235.806 301.339 234.565 303.36 232.68 303.751C230.803 304.142 228.988 302.756 228.639 300.654L220.706 253.115L212.776 300.654C212.467 302.515 211.009 303.817 209.372 303.817H209.372Z" fill="#FFC947"/>
<path d="M44.8587 77.7469C43.9669 77.7469 43.0818 77.3702 42.4071 76.615L36.8659 70.4353C35.5107 68.9232 35.5107 66.4738 36.8659 64.9617C38.221 63.4503 40.4194 63.4507 41.7685 64.9617L44.8587 68.4034L57.6217 54.164C58.9771 52.6521 61.1686 52.6534 62.5237 54.1653C63.8801 55.6759 63.8791 58.1275 62.5237 59.6392L47.3117 76.6128C46.6368 77.3689 45.744 77.748 44.8587 77.7469L44.8587 77.7469Z" fill="#FFC947"/>
<path d="M44.8587 160.458C43.9669 160.458 43.0818 160.081 42.4071 159.325L36.8659 153.146C35.5107 151.634 35.5107 149.184 36.8659 147.673C38.221 146.161 40.4194 146.161 41.7685 147.673L44.8587 151.114L57.6217 136.875C58.9771 135.363 61.1686 135.364 62.5237 136.876C63.8801 138.387 63.8791 140.838 62.5237 142.35L47.3117 159.324C46.6368 160.08 45.744 160.459 44.8587 160.458L44.8587 160.458Z" fill="#FFC947"/>
<path d="M44.8587 243.168C43.9669 243.168 43.0818 242.791 42.4071 242.035L36.8659 235.855C35.5107 234.343 35.5107 231.894 36.8659 230.383C38.221 228.87 40.4194 228.871 41.7746 230.382L44.8587 233.823L57.6217 219.586C58.9771 218.074 61.1686 218.075 62.5237 219.586C63.8801 221.098 63.8791 223.548 62.5237 225.06L47.3117 242.034C46.6368 242.791 45.744 243.169 44.8587 243.168H44.8587Z" fill="#FFC947"/>
</svg>
