<svg width="43" height="45" viewBox="0 0 43 45" fill="none" xmlns="http://www.w3.org/2000/svg">
<g clip-path="url(#clip0_53_27400)">
<path fill-rule="evenodd" clip-rule="evenodd" d="M12.209 0C13.1452 0 13.9042 0.778823 13.9042 1.73955V2.30424C14.0147 2.27536 14.1256 2.24752 14.2369 2.22073C18.8497 1.1104 23.6503 1.1104 28.2631 2.22073C28.3744 2.24752 28.4853 2.27536 28.5958 2.30423V1.73955C28.5958 0.778823 29.3548 0 30.291 0C31.2273 0 31.9862 0.778823 31.9862 1.73955V3.57251C35.9912 5.55783 39.1577 9.00846 40.8406 13.262C41.1887 14.1417 41.4732 15.0555 41.6885 15.9974C42.7705 20.7309 42.7705 25.6571 41.6885 30.3906C40.1259 37.2264 34.9246 42.5638 28.2631 44.1673C23.6503 45.2776 18.8497 45.2776 14.2369 44.1673C7.57543 42.5638 2.37409 37.2264 0.811513 30.3906C-0.270505 25.6571 -0.270504 20.7309 0.811513 15.9974C1.02682 15.0555 1.31133 14.1417 1.65939 13.262C3.34234 9.00846 6.50882 5.55784 10.5138 3.57252V1.73955C10.5138 0.778823 11.2727 0 12.209 0ZM10.5138 7.54764C8.69736 8.73102 7.15576 10.3129 6.00253 12.1768H36.4975C35.3442 10.3129 33.8026 8.73101 31.9862 7.54763C31.9812 8.50394 31.2241 9.2776 30.291 9.2776C29.3548 9.2776 28.5958 8.49877 28.5958 7.53805V5.9217C28.2329 5.80293 27.8637 5.69812 27.4888 5.60789C23.3853 4.62014 19.1147 4.62014 15.0112 5.60789C14.6363 5.69813 14.2671 5.80294 13.9042 5.92171V7.53805C13.9042 8.49877 13.1452 9.2776 12.209 9.2776C11.2758 9.2776 10.5188 8.50395 10.5138 7.54764ZM25.9942 24.6297C25.9942 25.9865 25.4246 26.9885 24.5092 27.6565C25.7705 28.4288 26.4824 29.7022 26.4824 31.1843C26.4824 33.8771 24.5296 35.5471 21.3765 35.5471C18.2031 35.5471 16.2706 33.8771 16.2706 31.1843C16.2706 29.7022 16.9826 28.4288 18.2234 27.6565C17.3284 26.9885 16.7385 25.9865 16.7385 24.6297C16.7385 21.8116 18.8744 20.3504 21.3765 20.3504C23.8786 20.3504 25.9942 21.8116 25.9942 24.6297ZM23.2073 24.7758C23.2073 23.6903 22.4343 23.0641 21.3765 23.0641C20.3187 23.0641 19.5457 23.6903 19.5457 24.7758C19.5457 25.8404 20.3187 26.5084 21.3765 26.5084C22.4343 26.5084 23.2073 25.8404 23.2073 24.7758ZM19.0575 30.8085C19.0575 32.1236 20.0339 32.8334 21.3765 32.8334C22.7191 32.8334 23.6955 32.1236 23.6955 30.8085C23.6955 29.5143 22.7191 28.8046 21.3765 28.8046C20.0339 28.8046 19.0575 29.5143 19.0575 30.8085Z" fill="white"/>
</g>
<defs>
<clipPath id="clip0_53_27400">
<rect width="43" height="45" fill="white"/>
</clipPath>
</defs>
</svg>
