<svg width="14" height="15" viewBox="0 0 14 15" fill="none" xmlns="http://www.w3.org/2000/svg">
<path d="M13.5971 8.60656C13.6981 8.14487 13.7518 7.66562 13.7518 7.17379C13.7518 3.48611 10.7623 0.496521 7.07445 0.496521C6.68512 0.496521 6.30366 0.530172 5.93251 0.594207C5.33575 0.218231 4.6297 0 3.87236 0C1.73368 0 0 1.73387 0 3.87221C0 4.58706 0.194472 5.25609 0.532254 5.8309C0.443703 6.26471 0.397179 6.71371 0.397179 7.17374C0.397179 10.8614 3.38667 13.851 7.07445 13.851C7.49217 13.851 7.90075 13.8123 8.29713 13.739C8.84225 14.0319 9.46557 14.1985 10.1277 14.1985C12.2664 14.1985 14 12.4648 14 10.3263C14 9.70831 13.8546 9.12476 13.5971 8.60656ZM10.4991 10.3648C10.1902 10.8019 9.73378 11.1483 9.14246 11.3941C8.55686 11.6376 7.85489 11.761 7.05585 11.761C6.09679 11.761 5.29273 11.5923 4.66515 11.2594C4.21653 11.017 3.84656 10.6888 3.56576 10.2838C3.28212 9.87467 3.13825 9.46869 3.13825 9.07724C3.13825 8.83255 3.23196 8.62043 3.41682 8.44683C3.59974 8.27474 3.83416 8.18756 4.11368 8.18756C4.34313 8.18756 4.54101 8.25647 4.70193 8.3924C4.8556 8.52265 4.9875 8.71537 5.09347 8.96427C5.21179 9.23527 5.34081 9.4641 5.47707 9.64433C5.60803 9.81769 5.79644 9.96341 6.03706 10.0771C6.27914 10.1918 6.60547 10.2498 7.00686 10.2498C7.55885 10.2498 8.01145 10.132 8.35188 9.89952C8.68437 9.67249 8.84604 9.39997 8.84604 9.06635C8.84604 8.80274 8.76165 8.59558 8.58815 8.43301C8.40641 8.26305 8.16674 8.13077 7.87562 8.04004C7.57215 7.94543 7.16016 7.84339 6.65057 7.73671C5.96024 7.58886 5.37342 7.41346 4.90605 7.2152C4.90425 7.21449 4.90241 7.21373 4.90061 7.21293C4.42179 7.00928 4.03587 6.72687 3.75356 6.37351C3.4668 6.01467 3.3215 5.56448 3.3215 5.03531C3.3215 4.53088 3.47404 4.0762 3.77491 3.68399C4.0735 3.29452 4.50958 2.99186 5.07099 2.78418C5.62516 2.57925 6.28435 2.47541 7.03019 2.47541C7.62653 2.47541 8.15083 2.54428 8.58843 2.68034C9.02854 2.81741 9.39959 3.00251 9.69113 3.23025C9.98481 3.4597 10.2032 3.70519 10.3404 3.96015C10.479 4.21766 10.5492 4.47395 10.5492 4.72185C10.5492 4.96043 10.4571 5.17724 10.2754 5.36623C10.0925 5.5563 9.8618 5.6528 9.58957 5.6528C9.34228 5.6528 9.14875 5.59246 9.01443 5.47347C8.88944 5.36301 8.75986 5.19078 8.61593 4.94297C8.44943 4.62663 8.24795 4.37725 8.01675 4.20152C7.79242 4.03086 7.41729 3.9442 6.90193 3.9442C6.4233 3.9442 6.03403 4.04028 5.74499 4.22978C5.46647 4.41237 5.33116 4.62175 5.33116 4.8698C5.33116 5.02196 5.3747 5.14908 5.46429 5.25851C5.55918 5.37441 5.69303 5.47622 5.86223 5.56084C6.03772 5.64906 6.21856 5.71915 6.39973 5.76918C6.58531 5.82067 6.89668 5.89697 7.32368 5.9956C7.77358 6.0922 8.19258 6.19859 8.574 6.31246C8.65062 6.33532 8.72635 6.35846 8.7998 6.38194C9.24445 6.52425 9.62871 6.6998 9.94207 6.90359C10.2619 7.11188 10.5152 7.37938 10.6949 7.69871C10.8751 8.01917 10.9663 8.41488 10.9663 8.87453C10.9663 9.42472 10.809 9.92603 10.4991 10.3648Z" fill="#FFC947"/>
</svg>
