<svg width="48" height="45" viewBox="0 0 48 45" fill="none" xmlns="http://www.w3.org/2000/svg">
<g clip-path="url(#clip0_53_27404)">
<path fill-rule="evenodd" clip-rule="evenodd" d="M14.8264 1.10405C8.01504 2.61334 2.64512 7.84959 0.963482 14.6219C-0.32116 19.7954 -0.321161 25.2046 0.963482 30.3781C2.64512 37.1504 8.01503 42.3867 14.8264 43.8959L15.9611 44.1474C21.0915 45.2842 26.4085 45.2842 31.5389 44.1474L32.6736 43.896C39.485 42.3867 44.8549 37.1504 46.5365 30.3781C47.8212 25.2046 47.8212 19.7954 46.5365 14.6219C44.8549 7.84959 39.485 2.61334 32.6736 1.10405L31.5389 0.852622C26.4085 -0.284206 21.0915 -0.284208 15.9611 0.85262L14.8264 1.10405ZM15.0866 17.0328C14.3453 16.5032 13.3151 16.6749 12.7856 17.4164C12.2561 18.1579 12.4278 19.1883 13.1691 19.7179L19.5954 24.3091C22.0807 26.0848 25.4194 26.0848 27.9047 24.3091L34.331 19.7179C35.0723 19.1883 35.244 18.1579 34.7145 17.4164C34.185 16.6749 33.1548 16.5032 32.4135 17.0328L25.9872 21.624C24.6489 22.5801 22.8512 22.5801 21.513 21.624L15.0866 17.0328Z" fill="white"/>
</g>
<defs>
<clipPath id="clip0_53_27404">
<rect width="48" height="45" fill="white"/>
</clipPath>
</defs>
</svg>
