<svg width="88" height="88" viewBox="0 0 88 88" fill="none" xmlns="http://www.w3.org/2000/svg">
<g clip-path="url(#clip0_53_27408)">
<path d="M43.9991 30.9384C43.9612 30.9382 44.037 30.9384 43.9991 30.9384V30.9384ZM46.0216 31.0623L69.4408 4.12025C71.0576 1.96618 73.4064 0.550991 76.0728 0.128874C78.7934 -0.301664 81.5189 0.352479 83.7472 1.97185C85.9755 3.59089 87.4401 5.98093 87.8708 8.70149C88.3017 11.422 87.647 14.1478 86.0278 16.3761L60.791 45.4468C61.6229 50.7138 60.0253 56.2972 55.998 60.3481C49.5575 66.8259 42.2902 67.719 35.3963 67.719C25.7075 67.719 17.9975 61.8934 17.6739 61.6454C16.6918 60.8924 16.1903 59.6697 16.3606 58.4441C16.531 57.2183 17.3472 56.1788 18.4975 55.7223C23.4992 53.7374 24.7028 50.2828 26.2268 45.9088C27.368 42.6338 28.6613 38.9219 31.7899 35.9313C35.1613 32.7089 39.5044 30.9382 43.9993 30.9382C44.6469 30.9427 45.3862 30.9847 46.0216 31.0623ZM52.966 33.5526C54.0495 34.2399 55.0663 35.056 55.9979 35.9927L55.998 35.9928C56.7116 36.7106 57.3489 37.4766 57.9099 38.2803L80.5377 12.2331C81.0251 11.5099 81.2178 10.6424 81.0806 9.77672C80.9371 8.86992 80.4488 8.0733 79.7062 7.53345C78.9633 6.99377 78.0548 6.7755 77.148 6.91918C76.2411 7.06269 75.4444 7.55098 74.9046 8.29364L52.966 33.5526ZM51.1224 40.8399C49.1995 38.9059 46.6877 37.8312 44.05 37.8138C41.3042 37.7975 38.6423 38.8921 36.5401 40.9015C34.6084 42.7477 33.7327 45.261 32.7189 48.1711C31.5218 51.6065 30.116 55.6419 26.5239 58.8134C28.9202 59.8703 32.0391 60.8443 35.3963 60.8443C41.8257 60.8443 46.6993 59.9505 51.1227 55.5013C55.1411 51.459 55.1411 44.882 51.1224 40.8399ZM84.5609 29.9072C82.6624 29.9072 81.1234 31.4461 81.1234 33.3446V57.7504C81.3049 62.3112 87.8183 62.3078 87.9983 57.7504V33.3446C87.9983 31.4461 86.4594 29.9072 84.5609 29.9072ZM84.5609 70.8127C82.6624 70.8127 81.1234 72.3516 81.1234 74.2501C81.1234 78.0409 78.0394 81.125 74.2486 81.125H13.7497C9.95893 81.125 6.87487 78.0409 6.87487 74.2501V13.7513C6.87487 9.96045 9.95893 6.87638 13.7497 6.87638H56.8895C61.4503 6.69489 61.4469 0.181467 56.8895 0.00151734H13.7497C6.16813 0.00151734 0 6.16965 0 13.7513V74.2501C0 81.8317 6.16813 87.9998 13.7497 87.9998H74.2486C81.8302 87.9998 87.9983 81.8317 87.9983 74.2501C87.9983 72.3516 86.4594 70.8127 84.5609 70.8127Z" fill="#FFC947"/>
</g>
<defs>
<clipPath id="clip0_53_27408">
<rect width="88" height="88" fill="white"/>
</clipPath>
</defs>
</svg>
